<svg width="264" height="41" viewBox="0 0 264 41" fill="none" xmlns="http://www.w3.org/2000/svg">
<path d="M42.9165 18.1491C42.1211 18.1491 41.4126 18.0124 40.7912 17.739C40.1733 17.462 39.685 17.082 39.3263 16.5991C38.9712 16.1126 38.7884 15.5515 38.7777 14.9158H41.1001C41.1143 15.1822 41.2013 15.4165 41.3612 15.619C41.5245 15.8178 41.7411 15.9723 42.011 16.0824C42.2809 16.1925 42.5845 16.2475 42.9219 16.2475C43.2734 16.2475 43.5842 16.1854 43.854 16.0611C44.1239 15.9368 44.3352 15.7646 44.4879 15.5444C44.6406 15.3242 44.717 15.0703 44.717 14.7827C44.717 14.4915 44.6353 14.234 44.4719 14.0103C44.3121 13.783 44.0813 13.6055 43.7795 13.4776C43.4812 13.3498 43.1261 13.2859 42.7141 13.2859H41.6967V11.592H42.7141C43.0621 11.592 43.3693 11.5316 43.6357 11.4109C43.9055 11.2901 44.1151 11.1232 44.2642 10.9102C44.4134 10.6935 44.4879 10.4414 44.4879 10.1538C44.4879 9.88033 44.4222 9.64062 44.2908 9.43466C44.163 9.22514 43.9819 9.06179 43.7475 8.9446C43.5167 8.82741 43.2468 8.76882 42.9379 8.76882C42.6254 8.76882 42.3395 8.82564 42.0803 8.93928C41.821 9.04936 41.6133 9.20739 41.457 9.41335C41.3008 9.61932 41.2173 9.8608 41.2067 10.1378H38.9961C39.0067 9.50923 39.1861 8.95526 39.5341 8.47585C39.8821 7.99645 40.3509 7.6218 40.9403 7.35192C41.5334 7.07848 42.2028 6.94176 42.9485 6.94176C43.7013 6.94176 44.3601 7.07848 44.9247 7.35192C45.4893 7.62535 45.9279 7.99467 46.2404 8.45987C46.5565 8.92152 46.7127 9.43999 46.7092 10.0153C46.7127 10.6261 46.5227 11.1357 46.1392 11.544C45.7592 11.9524 45.2638 12.2116 44.6531 12.3217V12.407C45.4556 12.5099 46.0664 12.7887 46.4854 13.2433C46.908 13.6942 47.1175 14.2589 47.114 14.9371C47.1175 15.5586 46.9382 16.1108 46.576 16.5938C46.2173 17.0767 45.7219 17.4567 45.0898 17.7337C44.4577 18.0107 43.7333 18.1491 42.9165 18.1491ZM51.803 18H47.9358V7.09091H51.835C52.9323 7.09091 53.8769 7.3093 54.6688 7.74609C55.4607 8.17933 56.0697 8.80256 56.4959 9.61577C56.9256 10.429 57.1404 11.402 57.1404 12.5348C57.1404 13.6712 56.9256 14.6477 56.4959 15.4645C56.0697 16.2812 55.4572 16.908 54.6582 17.3448C53.8627 17.7816 52.911 18 51.803 18ZM50.2423 16.0238H51.7072C52.389 16.0238 52.9625 15.9031 53.4277 15.6616C53.8964 15.4165 54.248 15.0384 54.4824 14.527C54.7203 14.0121 54.8393 13.348 54.8393 12.5348C54.8393 11.7287 54.7203 11.07 54.4824 10.5586C54.248 10.0472 53.8982 9.67081 53.433 9.42933C52.9678 9.18786 52.3943 9.06712 51.7125 9.06712H50.2423V16.0238ZM38.9482 32V21.0909H46.299V22.9925H41.2546V25.592H45.9208V27.4936H41.2546V30.0984H46.3203V32H38.9482ZM49.0864 23.8182L50.5885 26.6786L52.128 23.8182H54.4557L52.0854 27.9091L54.5197 32H52.2025L50.5885 29.1715L49.0012 32H46.6574L49.0864 27.9091L46.7427 23.8182H49.0864ZM54.9034 35.0682V23.8182H57.1406V25.1925H57.2418C57.3412 24.9723 57.4851 24.7486 57.6733 24.5213C57.865 24.2905 58.1136 24.0987 58.419 23.946C58.728 23.7898 59.1115 23.7116 59.5696 23.7116C60.1662 23.7116 60.7166 23.8679 61.2209 24.1804C61.7251 24.4893 62.1282 24.9563 62.43 25.5813C62.7319 26.2028 62.8828 26.9822 62.8828 27.9197C62.8828 28.8324 62.7354 29.603 62.4407 30.2315C62.1495 30.8565 61.7518 31.3306 61.2475 31.6538C60.7468 31.9734 60.1857 32.1332 59.5643 32.1332C59.1239 32.1332 58.7493 32.0604 58.4403 31.9148C58.1349 31.7692 57.8846 31.5863 57.6893 31.3661C57.4939 31.1424 57.3448 30.9169 57.2418 30.6896H57.1726V35.0682H54.9034ZM57.1246 27.9091C57.1246 28.3956 57.1921 28.82 57.327 29.1822C57.462 29.5444 57.6573 29.8267 57.913 30.0291C58.1687 30.228 58.4794 30.3274 58.8452 30.3274C59.2145 30.3274 59.527 30.2262 59.7827 30.0238C60.0383 29.8178 60.2319 29.5337 60.3633 29.1715C60.4982 28.8058 60.5657 28.3849 60.5657 27.9091C60.5657 27.4368 60.5 27.0213 60.3686 26.6626C60.2372 26.304 60.0437 26.0234 59.788 25.821C59.5323 25.6186 59.218 25.5174 58.8452 25.5174C58.4758 25.5174 58.1633 25.6151 57.9077 25.8104C57.6555 26.0057 57.462 26.2827 57.327 26.6413C57.1921 27 57.1246 27.4226 57.1246 27.9091ZM65.7648 21.0909V32H63.4956V21.0909H65.7648ZM70.3792 32.1598C69.5518 32.1598 68.8363 31.984 68.2326 31.6325C67.6324 31.2773 67.169 30.7837 66.8423 30.1516C66.5156 29.516 66.3522 28.7791 66.3522 27.9411C66.3522 27.0959 66.5156 26.3572 66.8423 25.7251C67.169 25.0895 67.6324 24.5959 68.2326 24.2443C68.8363 23.8892 69.5518 23.7116 70.3792 23.7116C71.2066 23.7116 71.9204 23.8892 72.5206 24.2443C73.1243 24.5959 73.5895 25.0895 73.9162 25.7251C74.2429 26.3572 74.4062 27.0959 74.4062 27.9411C74.4062 28.7791 74.2429 29.516 73.9162 30.1516C73.5895 30.7837 73.1243 31.2773 72.5206 31.6325C71.9204 31.984 71.2066 32.1598 70.3792 32.1598ZM70.3899 30.402C70.7663 30.402 71.0806 30.2955 71.3327 30.0824C71.5848 29.8658 71.7748 29.571 71.9027 29.1982C72.0341 28.8253 72.0998 28.4009 72.0998 27.9251C72.0998 27.4492 72.0341 27.0249 71.9027 26.652C71.7748 26.2791 71.5848 25.9844 71.3327 25.7678C71.0806 25.5511 70.7663 25.4428 70.3899 25.4428C70.0099 25.4428 69.6903 25.5511 69.4311 25.7678C69.1754 25.9844 68.9819 26.2791 68.8505 26.652C68.7226 27.0249 68.6587 27.4492 68.6587 27.9251C68.6587 28.4009 68.7226 28.8253 68.8505 29.1982C68.9819 29.571 69.1754 29.8658 69.4311 30.0824C69.6903 30.2955 70.0099 30.402 70.3899 30.402ZM74.9817 32V23.8182H77.1816V25.2457H77.2669C77.416 24.7379 77.6664 24.3544 78.0179 24.0952C78.3695 23.8324 78.7743 23.701 79.2324 23.701C79.3461 23.701 79.4686 23.7081 79.6 23.7223C79.7314 23.7365 79.8468 23.756 79.9462 23.7809V25.7944C79.8397 25.7624 79.6923 25.734 79.5041 25.7092C79.3159 25.6843 79.1436 25.6719 78.9874 25.6719C78.6536 25.6719 78.3553 25.7447 78.0925 25.8903C77.8333 26.0323 77.6273 26.2312 77.4746 26.4869C77.3255 26.7425 77.2509 27.0373 77.2509 27.3711V32H74.9817ZM83.5672 32.1598C82.7256 32.1598 82.0012 31.9893 81.3939 31.6484C80.7903 31.304 80.3251 30.8175 79.9983 30.1889C79.6716 29.5568 79.5083 28.8093 79.5083 27.9464C79.5083 27.1048 79.6716 26.3661 79.9983 25.7305C80.3251 25.0948 80.7849 24.5994 81.378 24.2443C81.9746 23.8892 82.6741 23.7116 83.4767 23.7116C84.0165 23.7116 84.5189 23.7987 84.9841 23.9727C85.4529 24.1431 85.8613 24.4006 86.2093 24.745C86.5608 25.0895 86.8343 25.5227 87.0296 26.0447C87.2249 26.5632 87.3226 27.1705 87.3226 27.8665V28.4897H80.4138V27.0835H85.1866C85.1866 26.7567 85.1155 26.4673 84.9735 26.2152C84.8314 25.9631 84.6344 25.766 84.3822 25.6239C84.1336 25.4783 83.8442 25.4055 83.514 25.4055C83.1695 25.4055 82.8641 25.4854 82.5978 25.6452C82.335 25.8015 82.129 26.0128 81.9799 26.2791C81.8307 26.5419 81.7544 26.8349 81.7508 27.158V28.495C81.7508 28.8999 81.8254 29.2496 81.9746 29.5444C82.1273 29.8391 82.3421 30.0664 82.6191 30.2262C82.8961 30.386 83.2246 30.4659 83.6045 30.4659C83.8567 30.4659 84.0875 30.4304 84.297 30.3594C84.5065 30.2884 84.6858 30.1818 84.835 30.0398C84.9841 29.8977 85.0978 29.7237 85.1759 29.5178L87.2746 29.6562C87.1681 30.1605 86.9497 30.6009 86.6194 30.9773C86.2927 31.3501 85.8702 31.6413 85.3517 31.8509C84.8368 32.0568 84.242 32.1598 83.5672 32.1598ZM87.9034 32V23.8182H90.1033V25.2457H90.1885C90.3377 24.7379 90.5881 24.3544 90.9396 24.0952C91.2912 23.8324 91.696 23.701 92.1541 23.701C92.2677 23.701 92.3903 23.7081 92.5216 23.7223C92.653 23.7365 92.7684 23.756 92.8679 23.7809V25.7944C92.7613 25.7624 92.614 25.734 92.4258 25.7092C92.2376 25.6843 92.0653 25.6719 91.9091 25.6719C91.5753 25.6719 91.277 25.7447 91.0142 25.8903C90.755 26.0323 90.549 26.2312 90.3963 26.4869C90.2471 26.7425 90.1726 27.0373 90.1726 27.3711V32H87.9034Z" fill="black"/>
<g clip-path="url(#clip0_29_12522)">
<path d="M2.56961 11.2496L1.52216 22.9713L0.62784 18.9438L2.56961 11.2496ZM2.81097 10.6061L4.41695 16.2455L1.70737 22.9607L2.81097 10.6061ZM9.42159 7.22679L4.53435 15.9881L2.87841 10.1744L9.42159 7.22679ZM7.18998 5.80455L9.44821 6.9734L3.21857 9.77997L7.18998 5.80455ZM6.21326 5.29887L7.01899 5.71596L3.42529 9.3133L6.21326 5.29887ZM9.95388 2.77851L7.15498 5.57997L6.36419 5.17054L9.95388 2.77851ZM9.59696 6.84434L7.32597 5.66819L10.4949 2.49596L9.59696 6.84434ZM10.7556 2.32205L16.2043 4.44757L9.82737 6.81773L10.7556 2.32205ZM17.6776 1.14043L16.4354 4.34075L11.0163 2.22689L17.6776 1.14043ZM17.869 1.15392L24.7964 4.86174L16.6185 4.37575L17.869 1.15392ZM26.5195 2.93455L25.1789 4.85882L18.4264 1.24434L26.5195 2.93455ZM26.6857 3.01658L30.7169 7.14913L25.3481 4.93648L26.6857 3.01658ZM28.9716 11.6948L25.4381 5.17163L30.9688 7.45137L28.9716 11.6948ZM33.9985 15.6651L29.0817 11.8905L31.0819 7.64168L33.9985 15.6651ZM28.1069 22.373L29.0438 12.0925L34.0565 15.9407L28.1069 22.373ZM33.2114 23.7559L28.1656 22.5798L34.0696 16.1966L33.2114 23.7559ZM27.7948 30.7122L28.0788 22.7478L33.1297 23.9251L27.7948 30.7122ZM27.607 30.8328L19.1279 27.1648L27.8936 22.8047L27.607 30.8328ZM16.4179 32.985L18.923 27.3161L27.3482 30.9604L16.4179 32.985ZM18.3276 34.2092L16.5029 33.1556L26.5658 31.2918L18.3276 34.2092ZM11.0892 32.9142L16.2149 33.2012L17.8176 34.1265L11.0892 32.9142ZM8.55461 26.9172L15.967 33.0039L9.67607 32.6514L8.55461 26.9172ZM1.93998 23.8613L8.33914 26.7706L9.44456 32.4228L1.93998 23.8613ZM3.99367 27.1411L2.33482 24.5901L7.98258 31.033L3.99367 27.1411ZM8.21956 26.4746L1.6855 23.504L4.50044 16.5288L8.21956 26.4746ZM13.3037 18.911L4.68456 16.1704L9.63925 7.28804L13.3037 18.911ZM18.5562 11.892L13.5461 18.826L9.89664 7.25195L18.5562 11.892ZM18.5329 11.5883L9.96956 6.99965L16.399 4.60981L18.5329 11.5883ZM18.8045 11.5996L16.6527 4.56132L24.959 5.05497L18.8045 11.5996ZM19.0411 11.7221L25.1927 5.18111L28.7726 11.7885L19.0411 11.7221ZM21.5349 18.5723L27.7696 22.6206L19.0444 26.9606L21.5349 18.5723ZM18.939 11.978L28.6534 12.0444L21.529 18.2044L18.939 11.978ZM21.2855 18.2875L13.7692 18.9554L18.7159 12.1097L21.2855 18.2875ZM13.727 19.2168L21.3139 18.5427L18.8351 26.8924L13.727 19.2168ZM18.7013 27.2741L16.1923 32.9514L8.71102 26.8082L18.7013 27.2741ZM8.43576 26.4243L4.70425 16.446L13.2982 19.1786L8.43576 26.4243ZM13.5002 19.339L18.6321 27.0506L8.63701 26.5847L13.5002 19.339ZM27.9154 22.4529L21.6537 18.3874L28.8532 12.1625L27.9154 22.4529ZM1.47149 23.5878L1.56081 23.5681L1.48425 23.6181L1.51597 23.6669L1.5156 23.668L1.51706 23.6691L3.84565 27.2497L3.92222 27.1998L3.85841 27.2657L9.53571 32.8049L9.59987 32.7389L9.58347 32.8293L18.3025 34.3999L18.3189 34.3095L18.3491 34.3959L27.7237 31.076L27.6931 30.99L27.7652 31.0465L33.3631 23.9251L33.2909 23.8686L33.382 23.8788L34.2829 15.9396L34.1921 15.9294L34.2782 15.8977L31.1792 7.37189L31.0928 7.40325L31.1581 7.33908L26.7397 2.80913L26.674 2.8733L26.6926 2.78361L17.8398 0.934445L17.8212 1.0245L17.8063 0.933716L10.6557 2.10038L10.6703 2.19043L10.6196 2.11424L6.13305 5.10418L6.18409 5.18075L6.10862 5.12825L2.72347 10.0031L2.71836 10.0053L2.71982 10.0078L2.68847 10.053L2.76393 10.1055L2.67498 10.0833L0.444819 18.9201L0.533413 18.9427L0.443726 18.9624L1.47149 23.5878Z" fill="#ADAAAD"/>
<path d="M9.64393 7.79699C10.0913 7.82069 10.473 7.47652 10.4963 7.02918C10.52 6.58183 10.1762 6.19975 9.72888 6.17641C9.28117 6.15308 8.89982 6.49652 8.87612 6.94423C8.85279 7.39194 9.19659 7.77365 9.64393 7.79699Z" fill="#ADAAAD"/>
<path d="M14.2574 19.1352C14.2796 18.7174 13.9588 18.3605 13.541 18.3389C13.1231 18.3171 12.7666 18.6379 12.7451 19.0557C12.7232 19.4739 13.0437 19.8301 13.4615 19.8523C13.8797 19.8738 14.2359 19.5534 14.2574 19.1352Z" fill="#ADAAAD"/>
<path d="M7.44039 26.631C7.41196 27.176 7.8305 27.6409 8.37555 27.6697C8.92024 27.6981 9.38508 27.2796 9.41388 26.7342C9.44232 26.1895 9.02378 25.7246 8.47873 25.6958C7.93404 25.6674 7.4692 26.0859 7.44039 26.631Z" fill="#ADAAAD"/>
<path d="M17.2291 4.50011C17.2506 4.08922 16.9353 3.73886 16.5247 3.71735C16.1142 3.69584 15.7635 4.01156 15.742 4.42209C15.7208 4.83297 16.0362 5.18334 16.4463 5.20485C16.8572 5.22636 17.2076 4.91099 17.2291 4.50011Z" fill="#ADAAAD"/>
<path d="M5.42172 16.3341C5.44724 15.8427 5.07026 15.4234 4.57844 15.3979C4.08771 15.372 3.66844 15.7497 3.64292 16.2408C3.61703 16.7319 3.99438 17.1511 4.48547 17.177C4.97693 17.2029 5.39547 16.8252 5.42172 16.3341Z" fill="#ADAAAD"/>
<path d="M15.5557 33.0637C15.5356 33.4418 15.8262 33.7645 16.2043 33.7841C16.582 33.8042 16.9046 33.5136 16.9247 33.1355C16.9444 32.7575 16.6538 32.4345 16.2757 32.4148C15.898 32.3951 15.575 32.6856 15.5557 33.0637Z" fill="#ADAAAD"/>
<path d="M27.1972 22.5892C27.1738 23.0292 27.5122 23.4047 27.9522 23.4277C28.3919 23.4507 28.7674 23.1127 28.7904 22.6723C28.8134 22.2326 28.4754 21.8571 28.0354 21.8337C27.5957 21.8108 27.2202 22.1491 27.1972 22.5892Z" fill="#ADAAAD"/>
<path d="M18.8103 28.1316C19.355 28.1604 19.8199 27.7419 19.8483 27.1972C19.8767 26.6518 19.4586 26.1873 18.9139 26.1585C18.3688 26.13 17.9044 26.5486 17.8759 27.0933C17.8471 27.6383 18.2657 28.1032 18.8103 28.1316Z" fill="#ADAAAD"/>
<path d="M25.9445 4.99188C25.9656 4.59121 25.6579 4.24996 25.2576 4.22881C24.8577 4.20767 24.516 4.51537 24.4949 4.91605C24.4741 5.31636 24.7815 5.65798 25.1818 5.67876C25.5824 5.69954 25.9237 5.3922 25.9445 4.99188Z" fill="#ADAAAD"/>
<path d="M29.8182 11.966C29.8433 11.4913 29.4787 11.0863 29.0044 11.0615C28.5297 11.0367 28.1247 11.4013 28.0999 11.876C28.0751 12.3503 28.4397 12.7553 28.914 12.7805C29.3887 12.8049 29.7934 12.4407 29.8182 11.966Z" fill="#ADAAAD"/>
<path d="M18.7232 12.5096C19.1005 12.5289 19.4221 12.2395 19.4414 11.8625C19.4611 11.4855 19.1716 11.1636 18.7946 11.1439C18.4177 11.1242 18.0961 11.4137 18.0764 11.791C18.0571 12.168 18.3466 12.4896 18.7232 12.5096Z" fill="#ADAAAD"/>
<path d="M22.2035 18.437C22.2246 18.0334 21.9147 17.6885 21.5104 17.6674C21.1068 17.6463 20.7623 17.9565 20.7411 18.3605C20.72 18.7644 21.0302 19.109 21.4338 19.1301C21.8374 19.1513 22.1823 18.841 22.2035 18.437Z" fill="#ADAAAD"/>
<path d="M2.83935 10.2215L7.08164 11.398L1.88377 16.7122L2.83935 10.2215ZM10.4059 2.58491L7.18117 11.2357L2.93961 10.0589L10.4059 2.58491ZM6.24929 5.2471L9.95383 2.77851L3.42523 9.3133L6.24929 5.2471ZM10.7187 2.37528L14.9435 6.83596L7.46445 11.1052L10.7187 2.37528ZM21.9063 3.05596L15.1214 6.75684L10.8985 2.29799L21.9063 3.05596ZM17.8088 1.11892L21.7156 2.85908L11.4668 2.15325L17.8088 1.11892ZM25.8828 2.80184L22.2443 2.89372L18.6411 1.28918L25.8828 2.80184ZM30.6494 7.07986L22.5968 3.06835L26.6364 2.9659L30.6494 7.07986ZM23.8448 9.60679L22.3796 3.1646L30.8262 7.37262L23.8448 9.60679ZM31.2827 14.2002L24.0275 9.77924L31.0067 7.54616L31.2827 14.2002ZM34.0229 15.7318L31.4719 14.3336L31.209 7.99059L34.0229 15.7318ZM31.3931 23.7278L31.4726 14.5432L34.0801 15.9724L31.3931 23.7278ZM33.2073 23.7924L31.4365 24.1635L34.0076 16.7417L33.2073 23.7924ZM28.2745 30.1018L31.3483 24.3841L31.3545 24.3801L31.3523 24.3764L31.3571 24.3673L33.0633 24.0097L28.2745 30.1018ZM27.6547 30.8678L23.9385 28.9818L31.0362 24.5777L27.6547 30.8678ZM18.6772 34.0856L23.7504 29.0916L27.4608 30.975L18.6772 34.0856ZM18.309 34.1903L12.9161 30.3344L23.478 29.1022L18.309 34.1903ZM9.81383 32.6842L12.6729 30.3862L17.9338 34.1473L9.81383 32.6842ZM4.2831 27.4236L12.4837 30.3031L9.60565 32.6167L4.2831 27.4236ZM7.73898 21.1356L12.4545 30.0982L4.07711 27.1567L7.73898 21.1356ZM7.62487 20.7018L1.90857 16.9491L7.15711 11.5828L7.62487 20.7018ZM14.6631 14.6348L7.84289 20.6559L7.37513 11.5416L14.6631 14.6348ZM14.7773 14.4043L7.52278 11.3254L14.9694 7.07439L14.7773 14.4043ZM16.1641 23.0989L7.99273 20.8659L14.8115 14.8459L16.1641 23.0989ZM15.3544 6.83887L22.1466 3.13361L23.6137 9.582L15.3544 6.83887ZM23.466 9.76465L15.0347 14.3766L15.2275 7.02809L23.466 9.76465ZM24.7111 18.6215L15.1947 14.5819L23.6596 9.95132L24.7111 18.6215ZM24.967 18.6018L23.9206 9.97174L31.162 14.3843L24.967 18.6018ZM25.0764 18.8377L31.2889 14.6081L31.2072 24.0421L25.0764 18.8377ZM24.9659 19.0805L31.0942 24.2827L23.8871 28.7551L24.9659 19.0805ZM16.5397 23.2863L24.7111 19.051L23.6283 28.7605L16.5397 23.2863ZM15.0649 14.8054L24.5638 18.838L16.4179 23.0599L15.0649 14.8054ZM12.6692 30.0337L7.96101 21.0857L16.1598 23.3253L12.6692 30.0337ZM16.3566 23.423L23.4726 28.918L12.8526 30.1573L16.3566 23.423ZM1.89362 17.2022L7.59679 20.9464L3.95862 26.9289L1.89362 17.2022ZM0.635805 18.9511L1.70987 17.2197L3.62211 26.2267L0.635805 18.9511ZM2.40914 11.8847L1.66429 16.9455L0.766326 18.3922L2.40914 11.8847ZM0.444763 18.9201L0.533357 18.9427L0.448409 18.9773L3.83758 27.2348L3.92216 27.1998L3.85836 27.2657L9.53565 32.8049L9.59982 32.7389L9.58341 32.8293L18.3024 34.3999L18.3188 34.3095L18.3491 34.3959L27.7236 31.076L27.693 30.99L27.7652 31.0465L33.363 23.9251L33.2908 23.8686L33.382 23.8788L34.2828 15.9396L34.1921 15.9294L34.2781 15.8977L31.1791 7.37189L31.0927 7.40325L31.158 7.33908L26.7396 2.80913L26.674 2.8733L26.6926 2.78361L17.8398 0.934445L17.8212 1.0245L17.8062 0.933716L10.6556 2.10038L10.6702 2.19043L10.6196 2.11424L6.13299 5.10418L6.18403 5.18075L6.10857 5.12825L2.68841 10.053L2.76388 10.1055L2.67492 10.0833L0.444763 18.9201Z" fill="#504351"/>
<path d="M15.2097 23.2389C15.2097 23.8612 15.7143 24.3658 16.3363 24.3658C16.9586 24.3658 17.4628 23.8612 17.4628 23.2389C17.4628 22.6165 16.9586 22.1123 16.3363 22.1123C15.7143 22.1123 15.2097 22.6165 15.2097 23.2389Z" fill="#504351"/>
<path d="M9.5911 32.3389C9.36833 32.3389 9.18787 32.519 9.18787 32.7421C9.18787 32.9649 9.36833 33.1453 9.5911 33.1453C9.81349 33.1453 9.99432 32.9649 9.99432 32.7421C9.99432 32.519 9.81349 32.3389 9.5911 32.3389Z" fill="#504351"/>
<path d="M13.2122 30.2761C13.2122 29.9818 12.9737 29.743 12.6795 29.743C12.3853 29.743 12.1469 29.9818 12.1469 30.2761C12.1469 30.5706 12.3853 30.8091 12.6795 30.8091C12.9737 30.8091 13.2122 30.5706 13.2122 30.2761Z" fill="#504351"/>
<path d="M17.6491 34.3237C17.6491 34.7018 17.9557 35.0088 18.3342 35.0088C18.7126 35.0088 19.0196 34.7018 19.0196 34.3237C19.0196 33.9449 18.7126 33.6379 18.3342 33.6379C17.9557 33.6379 17.6491 33.9449 17.6491 34.3237Z" fill="#504351"/>
<mask id="mask0_29_12522" style="mask-type:luminance" maskUnits="userSpaceOnUse" x="16" y="0" width="3" height="2">
<path d="M16.9867 0.21875H18.6667V1.86667H16.9867V0.21875Z" fill="white"/>
</mask>
<g mask="url(#mask0_29_12522)">
<path d="M17.8234 0.21875C17.3779 0.21875 17.017 0.580052 17.017 1.02521C17.017 1.47073 17.3779 1.83203 17.8234 1.83203C18.2686 1.83203 18.6299 1.47073 18.6299 1.02521C18.6299 0.580052 18.2686 0.21875 17.8234 0.21875Z" fill="#504351"/>
</g>
<path d="M6.1819 4.63245C5.88148 4.63245 5.63757 4.87635 5.63757 5.17713C5.63757 5.47791 5.88148 5.72146 6.1819 5.72146C6.48268 5.72146 6.72622 5.47791 6.72622 5.17713C6.72622 4.87635 6.48268 4.63245 6.1819 4.63245Z" fill="#504351"/>
<path d="M10.6815 2.89885C11.0713 2.89885 11.387 2.58276 11.387 2.19338C11.387 1.80328 11.0713 1.48718 10.6815 1.48718C10.2922 1.48718 9.97607 1.80328 9.97607 2.19338C9.97607 2.58276 10.2922 2.89885 10.6815 2.89885Z" fill="#504351"/>
<path d="M6.77069 20.9165C6.77069 21.4623 7.21257 21.9049 7.75798 21.9049C8.30376 21.9049 8.746 21.4623 8.746 20.9165C8.746 20.3711 8.30376 19.9285 7.75798 19.9285C7.21257 19.9285 6.77069 20.3711 6.77069 20.9165Z" fill="#504351"/>
<path d="M0.545422 18.4104C0.24464 18.4104 0.00109863 18.6543 0.00109863 18.9551C0.00109863 19.2559 0.24464 19.4994 0.545422 19.4994C0.846203 19.4994 1.08974 19.2559 1.08974 18.9551C1.08974 18.6543 0.846203 18.4104 0.545422 18.4104Z" fill="#504351"/>
<path d="M1.0697 16.9746C1.0697 17.3534 1.37668 17.6604 1.75548 17.6604C2.13392 17.6604 2.44054 17.3534 2.44054 16.9746C2.44054 16.5962 2.13392 16.2892 1.75548 16.2892C1.37668 16.2892 1.0697 16.5962 1.0697 16.9746Z" fill="#504351"/>
<path d="M2.77265 10.6623C3.07307 10.6623 3.31698 10.4187 3.31698 10.1179C3.31698 9.81715 3.07307 9.57324 2.77265 9.57324C2.47224 9.57324 2.22797 9.81715 2.22797 10.1179C2.22797 10.4187 2.47224 10.6623 2.77265 10.6623Z" fill="#504351"/>
<path d="M7.27232 10.3673C6.72691 10.3673 6.2843 10.8099 6.2843 11.3553C6.2843 11.9011 6.72691 12.3437 7.27232 12.3437C7.8181 12.3437 8.26034 11.9011 8.26034 11.3553C8.26034 10.8099 7.8181 10.3673 7.27232 10.3673Z" fill="#504351"/>
<path d="M4.57077 27.2234C4.57077 26.8785 4.29077 26.5985 3.94551 26.5985C3.60025 26.5985 3.32062 26.8785 3.32062 27.2234C3.32062 27.5687 3.60025 27.8487 3.94551 27.8487C4.29077 27.8487 4.57077 27.5687 4.57077 27.2234Z" fill="#504351"/>
<path d="M31.3906 13.8038C31.0738 13.8038 30.8171 14.0609 30.8171 14.3777C30.8171 14.6945 31.0738 14.9512 31.3906 14.9512C31.7078 14.9512 31.9641 14.6945 31.9641 14.3777C31.9641 14.0609 31.7078 13.8038 31.3906 13.8038Z" fill="#504351"/>
<path d="M30.5718 24.2765C30.5718 24.6776 30.8966 25.0024 31.2977 25.0024C31.6987 25.0024 32.0235 24.6776 32.0235 24.2765C32.0235 23.8755 31.6987 23.5503 31.2977 23.5503C30.8966 23.5503 30.5718 23.8755 30.5718 24.2765Z" fill="#504351"/>
<path d="M31.073 6.74072C30.7168 6.74072 30.4277 7.02947 30.4277 7.38604C30.4277 7.7426 30.7168 8.03171 31.073 8.03171C31.4296 8.03171 31.7184 7.7426 31.7184 7.38604C31.7184 7.02947 31.4296 6.74072 31.073 6.74072Z" fill="#504351"/>
<path d="M27.6868 31.5219C27.9873 31.5219 28.2312 31.2783 28.2312 30.9775C28.2312 30.6768 27.9873 30.4329 27.6868 30.4329C27.3864 30.4329 27.1422 30.6768 27.1422 30.9775C27.1422 31.2783 27.3864 31.5219 27.6868 31.5219Z" fill="#504351"/>
<mask id="mask1_29_12522" style="mask-type:luminance" maskUnits="userSpaceOnUse" x="33" y="15" width="2" height="2">
<path d="M33.32 15.12H34.996V16.7632H33.32V15.12Z" fill="white"/>
</mask>
<g mask="url(#mask1_29_12522)">
<path d="M34.9956 15.9297C34.9956 15.4842 34.6343 15.1233 34.1891 15.1233C33.7436 15.1233 33.3827 15.4842 33.3827 15.9297C33.3827 16.3753 33.7436 16.7366 34.1891 16.7366C34.6343 16.7366 34.9956 16.3753 34.9956 15.9297Z" fill="#504351"/>
</g>
<path d="M32.7421 23.8773C32.7421 24.1781 32.9857 24.422 33.2864 24.422C33.5872 24.422 33.8308 24.1781 33.8308 23.8773C33.8308 23.5769 33.5872 23.333 33.2864 23.333C32.9857 23.333 32.7421 23.5769 32.7421 23.8773Z" fill="#504351"/>
<path d="M26.6496 2.30713C26.3488 2.30713 26.1053 2.55067 26.1053 2.85145C26.1053 3.15223 26.3488 3.39614 26.6496 3.39614C26.9504 3.39614 27.1939 3.15223 27.1939 2.85145C27.1939 2.55067 26.9504 2.30713 26.6496 2.30713Z" fill="#504351"/>
<path d="M16.084 14.5851C16.084 13.9416 15.5626 13.4196 14.9187 13.4196C14.2753 13.4196 13.7535 13.9416 13.7535 14.5851C13.7535 15.229 14.2753 15.7507 14.9187 15.7507C15.5626 15.7507 16.084 15.229 16.084 14.5851Z" fill="#504351"/>
<path d="M25.9201 18.8267C25.9201 18.2459 25.449 17.7749 24.8686 17.7749C24.2878 17.7749 23.8171 18.2459 23.8171 18.8267C23.8171 19.4071 24.2878 19.8782 24.8686 19.8782C25.449 19.8782 25.9201 19.4071 25.9201 18.8267Z" fill="#504351"/>
<path d="M15.0989 5.50269C14.3424 5.50269 13.7288 6.11591 13.7288 6.87279C13.7288 7.62966 14.3424 8.24326 15.0989 8.24326C15.8561 8.24326 16.469 7.62966 16.469 6.87279C16.469 6.11591 15.8561 5.50269 15.0989 5.50269Z" fill="#504351"/>
<path d="M22.2261 2.47412C21.9366 2.47412 21.7022 2.70891 21.7022 2.99839C21.7022 3.28787 21.9366 3.52266 22.2261 3.52266C22.5156 3.52266 22.7504 3.28787 22.7504 2.99839C22.7504 2.70891 22.5156 2.47412 22.2261 2.47412Z" fill="#504351"/>
<path d="M22.8765 28.9742C22.8765 29.4496 23.2619 29.835 23.7369 29.835C24.212 29.835 24.597 29.4496 24.597 28.9742C24.597 28.4991 24.212 28.1138 23.7369 28.1138C23.2619 28.1138 22.8765 28.4991 22.8765 28.9742Z" fill="#504351"/>
<path d="M23.7781 8.67603C23.1944 8.67603 22.7208 9.14925 22.7208 9.73295C22.7208 10.3167 23.1944 10.7899 23.7781 10.7899C24.3615 10.7899 24.8347 10.3167 24.8347 9.73295C24.8347 9.14925 24.3615 8.67603 23.7781 8.67603Z" fill="#504351"/>
</g>
<defs>
<clipPath id="clip0_29_12522">
<rect width="35" height="35" fill="white"/>
</clipPath>
</defs>
</svg>
