<svg width="340" height="100" viewBox="0 0 340 100" fill="none" xmlns="http://www.w3.org/2000/svg">
<path d="M132.669 50.4474C130.282 50.4474 128.157 50.0373 126.293 49.217C124.439 48.386 122.974 47.2461 121.898 45.7972C120.833 44.3377 120.284 42.6545 120.252 40.7475H127.219C127.262 41.5465 127.523 42.2496 128.003 42.8569C128.493 43.4535 129.142 43.9169 129.952 44.2472C130.762 44.5774 131.673 44.7425 132.685 44.7425C133.739 44.7425 134.672 44.5561 135.481 44.1832C136.291 43.8104 136.925 43.2937 137.383 42.6332C137.841 41.9727 138.07 41.2109 138.07 40.348C138.07 39.4744 137.825 38.7021 137.335 38.0309C136.856 37.3491 136.163 36.8164 135.257 36.4329C134.363 36.0494 133.297 35.8576 132.061 35.8576H129.009V30.7759H132.061C133.106 30.7759 134.027 30.5948 134.826 30.2326C135.636 29.8704 136.264 29.3697 136.712 28.7305C137.159 28.0806 137.383 27.3242 137.383 26.4613C137.383 25.641 137.186 24.9219 136.792 24.304C136.408 23.6754 135.865 23.1854 135.162 22.8338C134.469 22.4822 133.659 22.3065 132.733 22.3065C131.795 22.3065 130.938 22.4769 130.16 22.8178C129.382 23.1481 128.759 23.6222 128.29 24.2401C127.821 24.858 127.571 25.5824 127.539 26.4134H120.907C120.939 24.5277 121.477 22.8658 122.521 21.4276C123.565 19.9893 124.972 18.8654 126.74 18.0558C128.519 17.2354 130.527 16.8253 132.765 16.8253C135.023 16.8253 136.999 17.2354 138.693 18.0558C140.387 18.8761 141.703 19.984 142.64 21.3796C143.588 22.7646 144.057 24.32 144.047 26.0458C144.057 27.8782 143.487 29.407 142.337 30.6321C141.197 31.8572 139.711 32.6349 137.878 32.9652V33.2209C140.286 33.5298 142.118 34.3661 143.375 35.7298C144.643 37.0827 145.272 38.7766 145.261 40.8114C145.272 42.6758 144.734 44.3324 143.647 45.7812C142.571 47.2301 141.085 48.37 139.189 49.201C137.292 50.032 135.119 50.4474 132.669 50.4474ZM159.328 50H147.727V17.2727H159.424C162.716 17.2727 165.55 17.9279 167.925 19.2383C170.301 20.538 172.128 22.4077 173.407 24.8473C174.696 27.2869 175.34 30.206 175.34 33.6044C175.34 37.0135 174.696 39.9432 173.407 42.3935C172.128 44.8437 170.291 46.7241 167.894 48.0344C165.507 49.3448 162.652 50 159.328 50ZM154.646 44.0714H159.041C161.086 44.0714 162.807 43.7092 164.202 42.9847C165.608 42.2496 166.663 41.1151 167.366 39.581C168.08 38.0362 168.437 36.044 168.437 33.6044C168.437 31.1861 168.08 29.2099 167.366 27.6758C166.663 26.1417 165.614 25.0124 164.218 24.288C162.822 23.5636 161.102 23.2013 159.057 23.2013H154.646V44.0714ZM120.764 87V54.2727H142.816V59.9776H127.683V67.7759H141.681V73.4808H127.683V81.2951H142.88V87H120.764ZM151.178 62.4545L155.685 71.0359L160.303 62.4545H167.286L160.175 74.7273L167.478 87H160.527L155.685 78.5146L150.923 87H143.891L151.178 74.7273L144.147 62.4545H151.178ZM168.629 96.2045V62.4545H175.341V66.5774H175.645C175.943 65.9169 176.374 65.2457 176.939 64.5639C177.514 63.8714 178.26 63.2962 179.176 62.8381C180.103 62.3693 181.254 62.1349 182.628 62.1349C184.418 62.1349 186.069 62.6037 187.582 63.5412C189.094 64.468 190.304 65.869 191.209 67.744C192.115 69.6083 192.567 71.9467 192.567 74.7592C192.567 77.4972 192.125 79.8089 191.241 81.6946C190.368 83.5696 189.174 84.9918 187.662 85.9613C186.159 86.9201 184.476 87.3995 182.612 87.3995C181.291 87.3995 180.167 87.1811 179.24 86.7443C178.324 86.3075 177.573 85.7589 176.987 85.0984C176.401 84.4272 175.953 83.7507 175.645 83.0689H175.437V96.2045H168.629ZM175.293 74.7273C175.293 76.1868 175.495 77.4599 175.9 78.5465C176.305 79.6332 176.891 80.4801 177.658 81.0874C178.425 81.6839 179.357 81.9822 180.455 81.9822C181.562 81.9822 182.5 81.6786 183.267 81.0714C184.034 80.4535 184.615 79.6012 185.009 78.5146C185.414 77.4173 185.616 76.1548 185.616 74.7273C185.616 73.3104 185.419 72.0639 185.025 70.9879C184.631 69.9119 184.05 69.0703 183.283 68.4631C182.516 67.8558 181.573 67.5522 180.455 67.5522C179.347 67.5522 178.409 67.8452 177.642 68.4311C176.886 69.017 176.305 69.848 175.9 70.924C175.495 72 175.293 73.2678 175.293 74.7273ZM201.213 54.2727V87H194.406V54.2727H201.213ZM215.057 87.4794C212.574 87.4794 210.428 86.9521 208.617 85.8974C206.816 84.832 205.426 83.3512 204.446 81.4549C203.466 79.5479 202.976 77.3374 202.976 74.8232C202.976 72.2876 203.466 70.0717 204.446 68.1754C205.426 66.2685 206.816 64.7876 208.617 63.733C210.428 62.6676 212.574 62.1349 215.057 62.1349C217.539 62.1349 219.68 62.6676 221.481 63.733C223.292 64.7876 224.687 66.2685 225.668 68.1754C226.648 70.0717 227.138 72.2876 227.138 74.8232C227.138 77.3374 226.648 79.5479 225.668 81.4549C224.687 83.3512 223.292 84.832 221.481 85.8974C219.68 86.9521 217.539 87.4794 215.057 87.4794ZM215.089 82.206C216.218 82.206 217.161 81.8864 217.917 81.2472C218.674 80.5973 219.244 79.7131 219.627 78.5945C220.021 77.4759 220.218 76.2028 220.218 74.7752C220.218 73.3477 220.021 72.0746 219.627 70.956C219.244 69.8374 218.674 68.9531 217.917 68.3033C217.161 67.6534 216.218 67.3285 215.089 67.3285C213.949 67.3285 212.99 67.6534 212.212 68.3033C211.445 68.9531 210.865 69.8374 210.47 70.956C210.087 72.0746 209.895 73.3477 209.895 74.7752C209.895 76.2028 210.087 77.4759 210.47 78.5945C210.865 79.7131 211.445 80.5973 212.212 81.2472C212.99 81.8864 213.949 82.206 215.089 82.206ZM228.864 87V62.4545H235.464V66.7372H235.72C236.167 65.2138 236.918 64.0632 237.973 63.2855C239.028 62.4972 240.242 62.103 241.616 62.103C241.957 62.103 242.325 62.1243 242.719 62.1669C243.113 62.2095 243.459 62.2681 243.758 62.3427V68.3832C243.438 68.2873 242.996 68.2021 242.431 68.1275C241.867 68.0529 241.35 68.0156 240.881 68.0156C239.88 68.0156 238.985 68.234 238.197 68.6708C237.419 69.0969 236.801 69.6935 236.343 70.4606C235.895 71.2276 235.672 72.1119 235.672 73.1133V87H228.864ZM254.621 87.4794C252.096 87.4794 249.923 86.968 248.101 85.9453C246.29 84.9119 244.894 83.4524 243.914 81.5668C242.934 79.6705 242.444 77.4279 242.444 74.8391C242.444 72.3143 242.934 70.0984 243.914 68.1914C244.894 66.2844 246.274 64.7983 248.053 63.733C249.843 62.6676 251.941 62.1349 254.349 62.1349C255.968 62.1349 257.476 62.396 258.872 62.918C260.278 63.4293 261.503 64.2017 262.547 65.2351C263.602 66.2685 264.422 67.5682 265.008 69.1342C265.594 70.6896 265.887 72.5114 265.887 74.5994V76.4691H245.161V72.2504H259.479C259.479 71.2702 259.266 70.402 258.84 69.6456C258.413 68.8892 257.822 68.2979 257.066 67.8718C256.32 67.435 255.452 67.2166 254.461 67.2166C253.428 67.2166 252.511 67.4563 251.712 67.9357C250.924 68.4045 250.306 69.0384 249.859 69.8374C249.411 70.6257 249.182 71.5046 249.172 72.4741V76.4851C249.172 77.6996 249.395 78.7489 249.843 79.6332C250.301 80.5174 250.945 81.1992 251.776 81.6786C252.607 82.158 253.593 82.3977 254.733 82.3977C255.489 82.3977 256.182 82.2912 256.81 82.0781C257.439 81.8651 257.977 81.5455 258.424 81.1193C258.872 80.6932 259.212 80.1712 259.447 79.5533L265.743 79.9688C265.423 81.4815 264.768 82.8026 263.777 83.9318C262.797 85.0504 261.53 85.924 259.974 86.5526C258.429 87.1705 256.645 87.4794 254.621 87.4794ZM267.629 87V62.4545H274.229V66.7372H274.485C274.932 65.2138 275.683 64.0632 276.738 63.2855C277.793 62.4972 279.007 62.103 280.381 62.103C280.722 62.103 281.09 62.1243 281.484 62.1669C281.878 62.2095 282.224 62.2681 282.523 62.3427V68.3832C282.203 68.2873 281.761 68.2021 281.196 68.1275C280.632 68.0529 280.115 68.0156 279.646 68.0156C278.645 68.0156 277.75 68.234 276.962 68.6708C276.184 69.0969 275.566 69.6935 275.108 70.4606C274.66 71.2276 274.437 72.1119 274.437 73.1133V87H267.629Z" fill="#1E1E1E"/>
<g clip-path="url(#clip0_108_2)">
<path d="M7.21436 32.1417L4.27355 65.6323L1.76265 54.125L7.21436 32.1417ZM7.89198 30.3031L12.401 46.4156L4.79354 65.6021L7.89198 30.3031ZM26.452 20.6479L12.7306 45.6802L8.08135 29.0698L26.452 20.6479ZM20.1865 16.5844L26.5267 19.924L9.03637 27.9427L20.1865 16.5844ZM17.4442 15.1396L19.7064 16.3313L9.61675 26.6094L17.4442 15.1396ZM27.9464 7.93854L20.0882 15.9427L17.868 14.7729L27.9464 7.93854ZM26.9443 19.5552L20.5683 16.1948L29.4654 7.13125L26.9443 19.5552ZM30.1973 6.63438L45.4951 12.7073L27.5912 19.4792L30.1973 6.63438ZM49.6314 3.25833L46.144 12.4021L30.9292 6.3625L49.6314 3.25833ZM50.1688 3.29688L69.6183 13.8906L46.6579 12.5021L50.1688 3.29688ZM74.4559 8.38438L70.6921 13.8823L51.7339 3.55521L74.4559 8.38438ZM74.9226 8.61875L86.2406 20.426L71.167 14.1042L74.9226 8.61875ZM81.3406 33.4135L71.4199 14.776L86.9479 21.2896L81.3406 33.4135ZM95.4541 44.7573L81.6498 33.9729L87.2652 21.8333L95.4541 44.7573ZM78.9126 63.9229L81.5433 34.55L95.6168 45.5448L78.9126 63.9229ZM93.2441 67.874L79.0774 64.5135L95.6537 46.276L93.2441 67.874ZM78.0364 87.749L78.8338 64.9937L93.0148 68.3573L78.0364 87.749ZM77.5093 88.0937L53.7033 77.6135L78.3138 65.1562L77.5093 88.0937ZM46.0949 94.2427L53.1281 78.0458L76.7825 88.4583L46.0949 94.2427ZM51.4565 97.7406L46.3334 94.7302L74.5859 89.4052L51.4565 97.7406ZM31.1339 94.0406L45.5248 94.8604L50.0245 97.5042L31.1339 94.0406ZM24.0178 76.9062L44.8287 94.2969L27.1664 93.2896L24.0178 76.9062ZM5.44659 68.175L23.4129 76.4875L26.5164 92.6365L5.44659 68.175ZM11.2126 77.5458L6.55516 70.2573L22.4118 88.6656L11.2126 77.5458ZM23.0771 75.6417L4.73212 67.1542L12.6354 47.225L23.0771 75.6417ZM37.3513 54.0312L13.1523 46.201L27.063 20.8229L37.3513 54.0312ZM52.0983 33.9771L38.032 53.7885L27.7857 20.7198L52.0983 33.9771ZM52.0328 33.1094L27.9904 19.999L46.0417 13.1708L52.0328 33.1094ZM52.7954 33.1417L46.7541 13.0323L70.0748 14.4427L52.7954 33.1417ZM53.4597 33.4917L70.731 14.8031L80.7817 33.6812L53.4597 33.4917ZM60.4612 53.0635L77.9658 64.6302L53.4689 77.0302L60.4612 53.0635ZM53.1731 34.2229L80.447 34.4125L60.4448 52.0125L53.1731 34.2229ZM59.761 52.25L38.6584 54.1583L52.5467 34.599L59.761 52.25ZM38.5397 54.9052L59.8409 52.9792L52.8814 76.8354L38.5397 54.9052ZM52.5057 77.926L45.4613 94.1469L24.457 76.5948L52.5057 77.926ZM23.6841 75.4979L13.2076 46.9885L37.3359 54.7958L23.6841 75.4979ZM37.903 55.2542L52.3112 77.2875L24.2492 75.9562L37.903 55.2542ZM78.3752 64.151L60.7949 52.5354L81.008 34.75L78.3752 64.151ZM4.13126 67.3937L4.38205 67.3375L4.16709 67.4802L4.25614 67.6198L4.25512 67.6229L4.25922 67.626L10.797 77.8562L11.0119 77.7135L10.8328 77.9021L26.7723 93.7281L26.9525 93.5396L26.9064 93.7979L51.3859 98.2854L51.432 98.0271L51.5169 98.274L77.8368 88.7885L77.7508 88.5427L77.9535 88.7042L93.6699 68.3573L93.4673 68.1958L93.7232 68.225L96.2525 45.5417L95.9976 45.5125L96.2392 45.4219L87.5385 21.0625L87.2959 21.1521L87.4792 20.9687L75.0741 8.02604L74.8899 8.20938L74.9421 7.95313L50.087 2.66979L50.0347 2.92708L49.9928 2.66771L29.9169 6.00104L29.9578 6.25833L29.8155 6.04063L17.2191 14.5833L17.3624 14.8021L17.1505 14.6521L7.64632 28.5802L7.63199 28.5865L7.63608 28.5937L7.54805 28.7229L7.75994 28.8729L7.51018 28.8094L1.2488 54.0573L1.49753 54.1219L1.24573 54.1781L4.13126 67.3937Z" fill="#ADAAAD"/>
<path d="M27.0763 22.2771C28.3323 22.3448 29.404 21.3615 29.4695 20.0833C29.5361 18.8052 28.5708 17.7135 27.3148 17.6469C26.0579 17.5802 24.9872 18.5615 24.9206 19.8406C24.8551 21.1198 25.8204 22.2104 27.0763 22.2771Z" fill="#ADAAAD"/>
<path d="M40.029 54.6719C40.0915 53.4781 39.1907 52.4583 38.0176 52.3969C36.8446 52.3344 35.8435 53.251 35.7831 54.4448C35.7217 55.6396 36.6214 56.6573 37.7945 56.7208C38.9686 56.7823 39.9686 55.8667 40.029 54.6719Z" fill="#ADAAAD"/>
<path d="M20.8897 76.0885C20.8099 77.6458 21.985 78.974 23.5152 79.0563C25.0445 79.1375 26.3496 77.9417 26.4305 76.3833C26.5103 74.8271 25.3352 73.499 23.8049 73.4167C22.2757 73.3354 20.9706 74.5313 20.8897 76.0885Z" fill="#ADAAAD"/>
<path d="M48.3724 12.8573C48.4328 11.6833 47.5474 10.6823 46.3948 10.6208C45.2423 10.5594 44.2575 11.4615 44.1972 12.6344C44.1378 13.8083 45.0232 14.8094 46.1748 14.8708C47.3284 14.9323 48.312 14.0312 48.3724 12.8573Z" fill="#ADAAAD"/>
<path d="M15.2221 46.6688C15.2937 45.2646 14.2353 44.0667 12.8545 43.9938C11.4767 43.9198 10.2995 44.999 10.2279 46.4021C10.1552 47.8052 11.2146 49.0031 12.5934 49.0771C13.9733 49.151 15.1484 48.0719 15.2221 46.6688Z" fill="#ADAAAD"/>
<path d="M43.6741 94.4677C43.6178 95.5479 44.4336 96.4698 45.4951 96.5261C46.5556 96.5833 47.4615 95.7531 47.5178 94.6729C47.573 93.5927 46.7572 92.6698 45.6958 92.6136C44.6353 92.5573 43.7284 93.3875 43.6741 94.4677Z" fill="#ADAAAD"/>
<path d="M76.3588 64.5406C76.2933 65.7979 77.2432 66.8708 78.4787 66.9365C79.7131 67.0021 80.7674 66.0365 80.8319 64.7781C80.8964 63.5219 79.9475 62.449 78.712 62.3823C77.4776 62.3167 76.4233 63.2833 76.3588 64.5406Z" fill="#ADAAAD"/>
<path d="M52.8118 80.376C54.341 80.4583 55.6461 79.2625 55.726 77.7062C55.8058 76.1479 54.6317 74.8208 53.1025 74.7385C51.5722 74.6573 50.2681 75.8531 50.1883 77.4094C50.1074 78.9667 51.2825 80.2948 52.8118 80.376Z" fill="#ADAAAD"/>
<path d="M72.8417 14.2625C72.9011 13.1177 72.0371 12.1427 70.9132 12.0823C69.7903 12.0219 68.8312 12.901 68.7718 14.0458C68.7135 15.1896 69.5764 16.1656 70.7003 16.225C71.8252 16.2844 72.7833 15.4062 72.8417 14.2625Z" fill="#ADAAAD"/>
<path d="M83.7175 34.1885C83.7881 32.8323 82.7645 31.675 81.4328 31.6042C80.1001 31.5333 78.9628 32.575 78.8932 33.9313C78.8236 35.2865 79.8472 36.4438 81.1789 36.5156C82.5117 36.5854 83.6479 35.5448 83.7175 34.1885Z" fill="#ADAAAD"/>
<path d="M52.5671 35.7417C53.6265 35.7969 54.5293 34.9698 54.5836 33.8927C54.6389 32.8156 53.8261 31.8958 52.7677 31.8396C51.7093 31.7833 50.8065 32.6104 50.7512 33.6885C50.697 34.7656 51.5097 35.6844 52.5671 35.7417Z" fill="#ADAAAD"/>
<path d="M62.3384 52.6771C62.3978 51.524 61.5277 50.5385 60.3925 50.4781C59.2594 50.4177 58.2921 51.3042 58.2327 52.4583C58.1734 53.6125 59.0444 54.5969 60.1776 54.6573C61.3107 54.7177 62.279 53.8313 62.3384 52.6771Z" fill="#ADAAAD"/>
<path d="M7.9718 29.2042L19.8824 32.5656L5.28894 47.749L7.9718 29.2042ZM29.2157 7.38542L20.1619 32.1021L8.25329 28.7396L29.2157 7.38542ZM17.5456 14.9917L27.9464 7.93854L9.61673 26.6094L17.5456 14.9917ZM30.0939 6.78646L41.9554 19.5313L20.9572 31.7292L30.0939 6.78646ZM61.5042 8.73125L42.4549 19.3052L30.5985 6.56563L61.5042 8.73125ZM49.9999 3.19688L60.9689 8.16875L32.1943 6.15208L49.9999 3.19688ZM72.6686 8.00521L62.4531 8.26771L52.3368 3.68333L72.6686 8.00521ZM86.0512 20.2281L63.4429 8.76667L74.7844 8.47396L86.0512 20.2281ZM66.9467 27.4479L62.8328 9.04167L86.5477 21.0646L66.9467 27.4479ZM87.8292 40.5719L67.4595 27.9406L87.0543 21.5604L87.8292 40.5719ZM95.5226 44.9479L88.3605 40.9531L87.6224 22.8302L95.5226 44.9479ZM88.1394 67.7937L88.3625 41.5521L95.6833 45.6354L88.1394 67.7937ZM93.2328 67.9781L88.2612 69.0385L95.4796 47.8333L93.2328 67.9781ZM79.3835 86.0052L88.0135 69.6687L88.0309 69.6573L88.0247 69.6469L88.038 69.6208L92.8285 68.599L79.3835 86.0052ZM77.6433 88.1937L67.2098 82.8052L87.1373 70.2219L77.6433 88.1937ZM52.4381 97.3875L66.6816 83.1187L77.0988 88.5L52.4381 97.3875ZM51.4043 97.6865L36.2632 86.6698L65.9169 83.149L51.4043 97.6865ZM27.5533 93.3833L35.5804 86.8177L50.351 97.5635L27.5533 93.3833ZM12.0253 78.3531L35.0492 86.5802L26.9689 93.1906L12.0253 78.3531ZM21.728 60.3875L34.9673 85.9948L11.4469 77.5906L21.728 60.3875ZM21.4076 59.1479L5.35855 48.426L20.0943 33.0937L21.4076 59.1479ZM41.1683 41.8135L22.0197 59.0167L20.7064 32.976L41.1683 41.8135ZM41.4887 41.1552L21.121 32.3583L42.0281 20.2125L41.4887 41.1552ZM45.3824 65.9969L22.4404 59.6167L41.5849 42.4167L45.3824 65.9969ZM43.109 19.5396L62.1787 8.95313L66.2977 27.3771L43.109 19.5396ZM65.8832 27.899L42.2113 41.076L42.7528 20.0802L65.8832 27.899ZM69.3788 53.2042L42.6607 41.6625L66.4267 28.4323L69.3788 53.2042ZM70.0973 53.1479L67.1596 28.4906L87.4904 41.0979L70.0973 53.1479ZM70.4044 53.8219L87.8466 41.7375L87.6173 68.6917L70.4044 53.8219ZM70.0943 54.5156L87.3 69.3792L67.0654 82.1573L70.0943 54.5156ZM46.4368 66.5323L69.3788 54.4312L66.3387 82.1729L46.4368 66.5323ZM42.2963 42.301L68.9652 53.8229L46.0949 65.8854L42.2963 42.301ZM35.5702 85.8104L22.3514 60.2448L45.3702 66.6437L35.5702 85.8104ZM45.9229 66.9229L65.9016 82.6229L36.0851 86.1635L45.9229 66.9229ZM5.31658 49.149L21.3288 59.8469L11.1143 76.9396L5.31658 49.149ZM1.78515 54.1458L4.80068 49.199L10.1695 74.9333L1.78515 54.1458ZM6.76395 33.9562L4.67273 48.4156L2.1516 52.549L6.76395 33.9562ZM1.24878 54.0573L1.49751 54.1219L1.25902 54.2208L10.7744 77.8135L11.0119 77.7135L10.8328 77.9021L26.7723 93.7281L26.9525 93.5396L26.9064 93.7979L51.3859 98.2854L51.4319 98.0271L51.5169 98.274L77.8368 88.7885L77.7508 88.5427L77.9535 88.7042L93.6699 68.3573L93.4672 68.1958L93.7231 68.225L96.2524 45.5417L95.9976 45.5125L96.2391 45.4219L87.5385 21.0625L87.2959 21.1521L87.4791 20.9687L75.0741 8.02604L74.8899 8.20938L74.9421 7.95313L50.0869 2.66979L50.0347 2.92708L49.9928 2.66771L29.9168 6.00104L29.9578 6.25833L29.8155 6.04063L17.219 14.5833L17.3623 14.8021L17.1505 14.6521L7.54803 28.7229L7.75992 28.8729L7.51016 28.8094L1.24878 54.0573Z" fill="#504351"/>
<path d="M42.7026 66.3969C42.7026 68.175 44.1193 69.6167 45.8656 69.6167C47.6129 69.6167 49.0285 68.175 49.0285 66.3969C49.0285 64.6187 47.6129 63.1781 45.8656 63.1781C44.1193 63.1781 42.7026 64.6187 42.7026 66.3969Z" fill="#504351"/>
<path d="M26.9279 92.3969C26.3025 92.3969 25.7958 92.9114 25.7958 93.5489C25.7958 94.1854 26.3025 94.701 26.9279 94.701C27.5523 94.701 28.06 94.1854 28.06 93.5489C28.06 92.9114 27.5523 92.3969 26.9279 92.3969Z" fill="#504351"/>
<path d="M37.0944 86.5031C37.0944 85.6625 36.4249 84.9802 35.5989 84.9802C34.7728 84.9802 34.1034 85.6625 34.1034 86.5031C34.1034 87.3448 34.7728 88.0261 35.5989 88.0261C36.4249 88.0261 37.0944 87.3448 37.0944 86.5031Z" fill="#504351"/>
<path d="M49.5516 98.0677C49.5516 99.1479 50.4125 100.025 51.475 100.025C52.5375 100.025 53.3994 99.1479 53.3994 98.0677C53.3994 96.9854 52.5375 96.1083 51.475 96.1083C50.4125 96.1083 49.5516 96.9854 49.5516 98.0677Z" fill="#504351"/>
<mask id="mask0_108_2" style="mask-type:luminance" maskUnits="userSpaceOnUse" x="47" y="0" width="6" height="6">
<path d="M47.6918 0.625H52.4085V5.33333H47.6918V0.625Z" fill="white"/>
</mask>
<g mask="url(#mask0_108_2)">
<path d="M50.0409 0.625C48.7901 0.625 47.7767 1.65729 47.7767 2.92917C47.7767 4.20208 48.7901 5.23438 50.0409 5.23438C51.2908 5.23438 52.3052 4.20208 52.3052 2.92917C52.3052 1.65729 51.2908 0.625 50.0409 0.625Z" fill="#504351"/>
</g>
<path d="M17.3562 13.2354C16.5128 13.2354 15.828 13.9323 15.828 14.7917C15.828 15.651 16.5128 16.3469 17.3562 16.3469C18.2007 16.3469 18.8845 15.651 18.8845 14.7917C18.8845 13.9323 18.2007 13.2354 17.3562 13.2354Z" fill="#504351"/>
<path d="M29.9896 8.2823C31.0838 8.2823 31.9703 7.37917 31.9703 6.26667C31.9703 5.15209 31.0838 4.24896 29.9896 4.24896C28.8964 4.24896 28.0089 5.15209 28.0089 6.26667C28.0089 7.37917 28.8964 8.2823 29.9896 8.2823Z" fill="#504351"/>
<path d="M19.0093 59.7615C19.0093 61.3208 20.2499 62.5854 21.7812 62.5854C23.3135 62.5854 24.5552 61.3208 24.5552 59.7615C24.5552 58.2031 23.3135 56.9385 21.7812 56.9385C20.2499 56.9385 19.0093 58.2031 19.0093 59.7615Z" fill="#504351"/>
<path d="M1.53141 52.601C0.686941 52.601 0.00317383 53.2979 0.00317383 54.1573C0.00317383 55.0167 0.686941 55.7125 1.53141 55.7125C2.37589 55.7125 3.05965 55.0167 3.05965 54.1573C3.05965 53.2979 2.37589 52.601 1.53141 52.601Z" fill="#504351"/>
<path d="M3.0033 48.499C3.0033 49.5813 3.86517 50.4583 4.92869 50.4583C5.99119 50.4583 6.85204 49.5813 6.85204 48.499C6.85204 47.4177 5.99119 46.5406 4.92869 46.5406C3.86517 46.5406 3.0033 47.4177 3.0033 48.499Z" fill="#504351"/>
<path d="M7.78451 30.4635C8.62796 30.4635 9.31275 29.7677 9.31275 28.9083C9.31275 28.049 8.62796 27.3521 7.78451 27.3521C6.94106 27.3521 6.25525 28.049 6.25525 28.9083C6.25525 29.7677 6.94106 30.4635 7.78451 30.4635Z" fill="#504351"/>
<path d="M20.4178 29.6208C18.8865 29.6208 17.6438 30.8854 17.6438 32.4438C17.6438 34.0031 18.8865 35.2677 20.4178 35.2677C21.9501 35.2677 23.1917 34.0031 23.1917 32.4438C23.1917 30.8854 21.9501 29.6208 20.4178 29.6208Z" fill="#504351"/>
<path d="M12.8329 77.7813C12.8329 76.7958 12.0468 75.9958 11.0775 75.9958C10.1081 75.9958 9.323 76.7958 9.323 77.7813C9.323 78.7677 10.1081 79.5677 11.0775 79.5677C12.0468 79.5677 12.8329 78.7677 12.8329 77.7813Z" fill="#504351"/>
<path d="M88.1322 39.4396C87.2427 39.4396 86.5221 40.174 86.5221 41.0792C86.5221 41.9844 87.2427 42.7177 88.1322 42.7177C89.0228 42.7177 89.7424 41.9844 89.7424 41.0792C89.7424 40.174 89.0228 39.4396 88.1322 39.4396Z" fill="#504351"/>
<path d="M85.8333 69.3615C85.8333 70.5073 86.7453 71.4354 87.8712 71.4354C88.9972 71.4354 89.9092 70.5073 89.9092 69.3615C89.9092 68.2156 88.9972 67.2865 87.8712 67.2865C86.7453 67.2865 85.8333 68.2156 85.8333 69.3615Z" fill="#504351"/>
<path d="M87.2407 19.2594C86.2407 19.2594 85.429 20.0844 85.429 21.1031C85.429 22.1219 86.2407 22.9479 87.2407 22.9479C88.2418 22.9479 89.0525 22.1219 89.0525 21.1031C89.0525 20.0844 88.2418 19.2594 87.2407 19.2594Z" fill="#504351"/>
<path d="M77.7335 90.0625C78.5769 90.0625 79.2617 89.3667 79.2617 88.5073C79.2617 87.6479 78.5769 86.951 77.7335 86.951C76.89 86.951 76.2042 87.6479 76.2042 88.5073C76.2042 89.3667 76.89 90.0625 77.7335 90.0625Z" fill="#504351"/>
<mask id="mask1_108_2" style="mask-type:luminance" maskUnits="userSpaceOnUse" x="93" y="43" width="6" height="5">
<path d="M93.5491 43.2H98.2546V47.8948H93.5491V43.2Z" fill="white"/>
</mask>
<g mask="url(#mask1_108_2)">
<path d="M98.2535 45.5135C98.2535 44.2406 97.2391 43.2094 95.9893 43.2094C94.7385 43.2094 93.7251 44.2406 93.7251 45.5135C93.7251 46.7865 94.7385 47.8187 95.9893 47.8187C97.2391 47.8187 98.2535 46.7865 98.2535 45.5135Z" fill="#504351"/>
</g>
<path d="M91.9268 68.2208C91.9268 69.0802 92.6105 69.7771 93.455 69.7771C94.2995 69.7771 94.9832 69.0802 94.9832 68.2208C94.9832 67.3625 94.2995 66.6656 93.455 66.6656C92.6105 66.6656 91.9268 67.3625 91.9268 68.2208Z" fill="#504351"/>
<path d="M74.8213 6.59167C73.9769 6.59167 73.2931 7.2875 73.2931 8.14688C73.2931 9.00625 73.9769 9.70313 74.8213 9.70313C75.6658 9.70313 76.3496 9.00625 76.3496 8.14688C76.3496 7.2875 75.6658 6.59167 74.8213 6.59167Z" fill="#504351"/>
<path d="M45.1573 41.6719C45.1573 39.8333 43.6935 38.3417 41.8858 38.3417C40.0792 38.3417 38.6144 39.8333 38.6144 41.6719C38.6144 43.5115 40.0792 45.0021 41.8858 45.0021C43.6935 45.0021 45.1573 43.5115 45.1573 41.6719Z" fill="#504351"/>
<path d="M72.773 53.7906C72.773 52.1312 71.4505 50.7854 69.821 50.7854C68.1904 50.7854 66.8689 52.1312 66.8689 53.7906C66.8689 55.449 68.1904 56.7948 69.821 56.7948C71.4505 56.7948 72.773 55.449 72.773 53.7906Z" fill="#504351"/>
<path d="M42.3915 15.7219C40.2675 15.7219 38.5448 17.474 38.5448 19.6365C38.5448 21.799 40.2675 23.5521 42.3915 23.5521C44.5175 23.5521 46.2382 21.799 46.2382 19.6365C46.2382 17.474 44.5175 15.7219 42.3915 15.7219Z" fill="#504351"/>
<path d="M62.4019 7.06875C61.5892 7.06875 60.931 7.73958 60.931 8.56667C60.931 9.39375 61.5892 10.0646 62.4019 10.0646C63.2147 10.0646 63.8739 9.39375 63.8739 8.56667C63.8739 7.73958 63.2147 7.06875 62.4019 7.06875Z" fill="#504351"/>
<path d="M64.228 82.7833C64.228 84.1417 65.31 85.2427 66.6437 85.2427C67.9775 85.2427 69.0584 84.1417 69.0584 82.7833C69.0584 81.426 67.9775 80.325 66.6437 80.325C65.31 80.325 64.228 81.426 64.228 82.7833Z" fill="#504351"/>
<path d="M66.7595 24.7885C65.1207 24.7885 63.791 26.1406 63.791 27.8083C63.791 29.476 65.1207 30.8281 66.7595 30.8281C68.3972 30.8281 69.7259 29.476 69.7259 27.8083C69.7259 26.1406 68.3972 24.7885 66.7595 24.7885Z" fill="#504351"/>
</g>
<defs>
<clipPath id="clip0_108_2">
<rect width="98.2659" height="100" fill="white"/>
</clipPath>
</defs>
</svg>
