<svg width="96" height="35" viewBox="0 0 96 35" fill="none" xmlns="http://www.w3.org/2000/svg">
<path d="M43.9165 17.1491C43.1211 17.1491 42.4126 17.0124 41.7912 16.739C41.1733 16.462 40.685 16.082 40.3263 15.5991C39.9712 15.1126 39.7884 14.5515 39.7777 13.9158H42.1001C42.1143 14.1822 42.2013 14.4165 42.3612 14.619C42.5245 14.8178 42.7411 14.9723 43.011 15.0824C43.2809 15.1925 43.5845 15.2475 43.9219 15.2475C44.2734 15.2475 44.5842 15.1854 44.854 15.0611C45.1239 14.9368 45.3352 14.7646 45.4879 14.5444C45.6406 14.3242 45.717 14.0703 45.717 13.7827C45.717 13.4915 45.6353 13.234 45.4719 13.0103C45.3121 12.783 45.0813 12.6055 44.7795 12.4776C44.4812 12.3498 44.1261 12.2859 43.7141 12.2859H42.6967V10.592H43.7141C44.0621 10.592 44.3693 10.5316 44.6357 10.4109C44.9055 10.2901 45.1151 10.1232 45.2642 9.91016C45.4134 9.69354 45.4879 9.44141 45.4879 9.15376C45.4879 8.88033 45.4222 8.64062 45.2908 8.43466C45.163 8.22514 44.9819 8.06179 44.7475 7.9446C44.5167 7.82741 44.2468 7.76882 43.9379 7.76882C43.6254 7.76882 43.3395 7.82564 43.0803 7.93928C42.821 8.04936 42.6133 8.20739 42.457 8.41335C42.3008 8.61932 42.2173 8.8608 42.2067 9.13778H39.9961C40.0067 8.50923 40.1861 7.95526 40.5341 7.47585C40.8821 6.99645 41.3509 6.6218 41.9403 6.35192C42.5334 6.07848 43.2028 5.94176 43.9485 5.94176C44.7013 5.94176 45.3601 6.07848 45.9247 6.35192C46.4893 6.62535 46.9279 6.99467 47.2404 7.45987C47.5565 7.92152 47.7127 8.43999 47.7092 9.01527C47.7127 9.62607 47.5227 10.1357 47.1392 10.544C46.7592 10.9524 46.2638 11.2116 45.6531 11.3217V11.407C46.4556 11.5099 47.0664 11.7887 47.4854 12.2433C47.908 12.6942 48.1175 13.2589 48.114 13.9371C48.1175 14.5586 47.9382 15.1108 47.576 15.5938C47.2173 16.0767 46.7219 16.4567 46.0898 16.7337C45.4577 17.0107 44.7333 17.1491 43.9165 17.1491ZM52.803 17H48.9358V6.09091H52.835C53.9323 6.09091 54.8769 6.3093 55.6688 6.74609C56.4607 7.17933 57.0697 7.80256 57.4959 8.61577C57.9256 9.42898 58.1404 10.402 58.1404 11.5348C58.1404 12.6712 57.9256 13.6477 57.4959 14.4645C57.0697 15.2812 56.4572 15.908 55.6582 16.3448C54.8627 16.7816 53.911 17 52.803 17ZM51.2423 15.0238H52.7072C53.389 15.0238 53.9625 14.9031 54.4277 14.6616C54.8964 14.4165 55.248 14.0384 55.4824 13.527C55.7203 13.0121 55.8393 12.348 55.8393 11.5348C55.8393 10.7287 55.7203 10.07 55.4824 9.55859C55.248 9.04723 54.8982 8.67081 54.433 8.42933C53.9678 8.18786 53.3943 8.06712 52.7125 8.06712H51.2423V15.0238ZM39.9482 31V20.0909H47.299V21.9925H42.2546V24.592H46.9208V26.4936H42.2546V29.0984H47.3203V31H39.9482ZM50.0864 22.8182L51.5885 25.6786L53.128 22.8182H55.4557L53.0854 26.9091L55.5197 31H53.2025L51.5885 28.1715L50.0012 31H47.6574L50.0864 26.9091L47.7427 22.8182H50.0864ZM55.9034 34.0682V22.8182H58.1406V24.1925H58.2418C58.3412 23.9723 58.4851 23.7486 58.6733 23.5213C58.865 23.2905 59.1136 23.0987 59.419 22.946C59.728 22.7898 60.1115 22.7116 60.5696 22.7116C61.1662 22.7116 61.7166 22.8679 62.2209 23.1804C62.7251 23.4893 63.1282 23.9563 63.43 24.5813C63.7319 25.2028 63.8828 25.9822 63.8828 26.9197C63.8828 27.8324 63.7354 28.603 63.4407 29.2315C63.1495 29.8565 62.7518 30.3306 62.2475 30.6538C61.7468 30.9734 61.1857 31.1332 60.5643 31.1332C60.1239 31.1332 59.7493 31.0604 59.4403 30.9148C59.1349 30.7692 58.8846 30.5863 58.6893 30.3661C58.4939 30.1424 58.3448 29.9169 58.2418 29.6896H58.1726V34.0682H55.9034ZM58.1246 26.9091C58.1246 27.3956 58.1921 27.82 58.327 28.1822C58.462 28.5444 58.6573 28.8267 58.913 29.0291C59.1687 29.228 59.4794 29.3274 59.8452 29.3274C60.2145 29.3274 60.527 29.2262 60.7827 29.0238C61.0383 28.8178 61.2319 28.5337 61.3633 28.1715C61.4982 27.8058 61.5657 27.3849 61.5657 26.9091C61.5657 26.4368 61.5 26.0213 61.3686 25.6626C61.2372 25.304 61.0437 25.0234 60.788 24.821C60.5323 24.6186 60.218 24.5174 59.8452 24.5174C59.4758 24.5174 59.1633 24.6151 58.9077 24.8104C58.6555 25.0057 58.462 25.2827 58.327 25.6413C58.1921 26 58.1246 26.4226 58.1246 26.9091ZM66.7648 20.0909V31H64.4956V20.0909H66.7648ZM71.3792 31.1598C70.5518 31.1598 69.8363 30.984 69.2326 30.6325C68.6324 30.2773 68.169 29.7837 67.8423 29.1516C67.5156 28.516 67.3522 27.7791 67.3522 26.9411C67.3522 26.0959 67.5156 25.3572 67.8423 24.7251C68.169 24.0895 68.6324 23.5959 69.2326 23.2443C69.8363 22.8892 70.5518 22.7116 71.3792 22.7116C72.2066 22.7116 72.9204 22.8892 73.5206 23.2443C74.1243 23.5959 74.5895 24.0895 74.9162 24.7251C75.2429 25.3572 75.4062 26.0959 75.4062 26.9411C75.4062 27.7791 75.2429 28.516 74.9162 29.1516C74.5895 29.7837 74.1243 30.2773 73.5206 30.6325C72.9204 30.984 72.2066 31.1598 71.3792 31.1598ZM71.3899 29.402C71.7663 29.402 72.0806 29.2955 72.3327 29.0824C72.5848 28.8658 72.7748 28.571 72.9027 28.1982C73.0341 27.8253 73.0998 27.4009 73.0998 26.9251C73.0998 26.4492 73.0341 26.0249 72.9027 25.652C72.7748 25.2791 72.5848 24.9844 72.3327 24.7678C72.0806 24.5511 71.7663 24.4428 71.3899 24.4428C71.0099 24.4428 70.6903 24.5511 70.4311 24.7678C70.1754 24.9844 69.9819 25.2791 69.8505 25.652C69.7226 26.0249 69.6587 26.4492 69.6587 26.9251C69.6587 27.4009 69.7226 27.8253 69.8505 28.1982C69.9819 28.571 70.1754 28.8658 70.4311 29.0824C70.6903 29.2955 71.0099 29.402 71.3899 29.402ZM75.9817 31V22.8182H78.1816V24.2457H78.2669C78.416 23.7379 78.6664 23.3544 79.0179 23.0952C79.3695 22.8324 79.7743 22.701 80.2324 22.701C80.3461 22.701 80.4686 22.7081 80.6 22.7223C80.7314 22.7365 80.8468 22.756 80.9462 22.7809V24.7944C80.8397 24.7624 80.6923 24.734 80.5041 24.7092C80.3159 24.6843 80.1436 24.6719 79.9874 24.6719C79.6536 24.6719 79.3553 24.7447 79.0925 24.8903C78.8333 25.0323 78.6273 25.2312 78.4746 25.4869C78.3255 25.7425 78.2509 26.0373 78.2509 26.3711V31H75.9817ZM84.5672 31.1598C83.7256 31.1598 83.0012 30.9893 82.3939 30.6484C81.7903 30.304 81.3251 29.8175 80.9983 29.1889C80.6716 28.5568 80.5083 27.8093 80.5083 26.9464C80.5083 26.1048 80.6716 25.3661 80.9983 24.7305C81.3251 24.0948 81.7849 23.5994 82.378 23.2443C82.9746 22.8892 83.6741 22.7116 84.4767 22.7116C85.0165 22.7116 85.5189 22.7987 85.9841 22.9727C86.4529 23.1431 86.8613 23.4006 87.2093 23.745C87.5608 24.0895 87.8343 24.5227 88.0296 25.0447C88.2249 25.5632 88.3226 26.1705 88.3226 26.8665V27.4897H81.4138V26.0835H86.1866C86.1866 25.7567 86.1155 25.4673 85.9735 25.2152C85.8314 24.9631 85.6344 24.766 85.3822 24.6239C85.1336 24.4783 84.8442 24.4055 84.514 24.4055C84.1695 24.4055 83.8641 24.4854 83.5978 24.6452C83.335 24.8015 83.129 25.0128 82.9799 25.2791C82.8307 25.5419 82.7544 25.8349 82.7508 26.158V27.495C82.7508 27.8999 82.8254 28.2496 82.9746 28.5444C83.1273 28.8391 83.3421 29.0664 83.6191 29.2262C83.8961 29.386 84.2246 29.4659 84.6045 29.4659C84.8567 29.4659 85.0875 29.4304 85.297 29.3594C85.5065 29.2884 85.6858 29.1818 85.835 29.0398C85.9841 28.8977 86.0978 28.7237 86.1759 28.5178L88.2746 28.6562C88.1681 29.1605 87.9497 29.6009 87.6194 29.9773C87.2927 30.3501 86.8702 30.6413 86.3517 30.8509C85.8368 31.0568 85.242 31.1598 84.5672 31.1598ZM88.9034 31V22.8182H91.1033V24.2457H91.1885C91.3377 23.7379 91.5881 23.3544 91.9396 23.0952C92.2912 22.8324 92.696 22.701 93.1541 22.701C93.2677 22.701 93.3903 22.7081 93.5216 22.7223C93.653 22.7365 93.7684 22.756 93.8679 22.7809V24.7944C93.7613 24.7624 93.614 24.734 93.4258 24.7092C93.2376 24.6843 93.0653 24.6719 92.9091 24.6719C92.5753 24.6719 92.277 24.7447 92.0142 24.8903C91.755 25.0323 91.549 25.2312 91.3963 25.4869C91.2471 25.7425 91.1726 26.0373 91.1726 26.3711V31H88.9034Z" fill="white"/>
<g clip-path="url(#clip0_20_34918)">
<path d="M2.56961 11.0309L1.52216 22.7526L0.62784 18.725L2.56961 11.0309ZM2.81097 10.3874L4.41696 16.0267L1.70737 22.742L2.81097 10.3874ZM9.42159 7.00804L4.53435 15.7693L2.87841 9.9557L9.42159 7.00804ZM7.18998 5.5858L9.44821 6.75465L3.21857 9.56122L7.18998 5.5858ZM6.21326 5.08012L7.01899 5.49721L3.42529 9.09455L6.21326 5.08012ZM9.95388 2.55976L7.15498 5.36122L6.36419 4.95179L9.95388 2.55976ZM9.59696 6.62559L7.32597 5.44945L10.4949 2.27721L9.59696 6.62559ZM10.7556 2.1033L16.2043 4.22882L9.82737 6.59898L10.7556 2.1033ZM17.6776 0.921685L16.4354 4.122L11.0163 2.00814L17.6776 0.921685ZM17.869 0.935174L24.7964 4.64299L16.6185 4.157L17.869 0.935174ZM26.5195 2.7158L25.1789 4.64007L18.4264 1.02559L26.5195 2.7158ZM26.6857 2.79783L30.7169 6.93038L25.3481 4.71773L26.6857 2.79783ZM28.9716 11.476L25.4381 4.95288L30.9688 7.23262L28.9716 11.476ZM33.9985 15.4463L29.0817 11.6718L31.0819 7.42293L33.9985 15.4463ZM28.1069 22.1543L29.0438 11.8738L34.0565 15.7219L28.1069 22.1543ZM33.2114 23.5372L28.1656 22.361L34.0696 15.9779L33.2114 23.5372ZM27.7948 30.4934L28.0788 22.5291L33.1297 23.706L27.7948 30.4934ZM27.607 30.6141L19.1279 26.946L27.8936 22.586L27.607 30.6141ZM16.4179 32.7662L18.923 27.0973L27.3482 30.7417L16.4179 32.7662ZM18.3276 33.9905L16.5029 32.9368L26.5658 31.0731L18.3276 33.9905ZM11.0892 32.6955L16.2149 32.9824L17.8176 33.9077L11.0892 32.6955ZM8.55461 26.6985L15.967 32.7852L9.67607 32.4326L8.55461 26.6985ZM1.93998 23.6425L8.33914 26.5519L9.44456 32.204L1.93998 23.6425ZM3.99367 26.9223L2.33482 24.371L7.98258 30.8142L3.99367 26.9223ZM8.21956 26.2559L1.6855 23.2852L4.50044 16.31L8.21956 26.2559ZM13.3037 18.6922L4.68456 15.9516L9.63925 7.06929L13.3037 18.6922ZM18.5562 11.6732L13.5461 18.6073L9.89664 7.0332L18.5562 11.6732ZM18.5329 11.3695L9.96956 6.7809L16.399 4.39106L18.5329 11.3695ZM18.8045 11.3809L16.6527 4.34257L24.959 4.83622L18.8045 11.3809ZM19.0411 11.5034L25.1927 4.96236L28.7726 11.5697L19.0411 11.5034ZM21.5349 18.3535L27.7696 22.4018L19.0444 26.7418L21.5349 18.3535ZM18.939 11.7593L28.6534 11.8256L21.529 17.9856L18.939 11.7593ZM21.2855 18.0688L13.7692 18.7367L18.7159 11.8909L21.2855 18.0688ZM13.727 18.9981L21.3139 18.324L18.8351 26.6737L13.727 18.9981ZM18.7013 27.0554L16.1923 32.7327L8.71102 26.5894L18.7013 27.0554ZM8.43576 26.2055L4.70425 16.2273L13.2982 18.9598L8.43576 26.2055ZM13.5002 19.1202L18.6321 26.8319L8.63701 26.366L13.5002 19.1202ZM27.9154 22.2341L21.6537 18.1687L28.8532 11.9438L27.9154 22.2341ZM1.47149 23.3691L1.56081 23.3494L1.48425 23.3993L1.51597 23.4482L1.5156 23.4493L1.51706 23.4504L3.84565 27.031L3.92222 26.981L3.85841 27.047L9.53571 32.5861L9.59987 32.5201L9.58347 32.6105L18.3025 34.1812L18.3189 34.0907L18.3491 34.1772L27.7237 30.8573L27.6931 30.7712L27.7652 30.8277L33.3631 23.7063L33.2909 23.6498L33.382 23.66L34.2829 15.7209L34.1921 15.7106L34.2782 15.6789L31.1792 7.15314L31.0928 7.1845L31.1581 7.12033L26.7397 2.59038L26.674 2.65455L26.6926 2.56486L17.8398 0.715695L17.8212 0.805747L17.8063 0.714966L10.6557 1.88163L10.6703 1.97168L10.6196 1.89549L6.13305 4.88543L6.18409 4.962L6.10862 4.9095L2.72347 9.78434L2.71836 9.78653L2.71982 9.78908L2.68847 9.83429L2.76393 9.88679L2.67498 9.86455L0.444819 18.7013L0.533413 18.7239L0.443726 18.7436L1.47149 23.3691Z" fill="#20C2D4"/>
<path d="M9.64393 7.57824C10.0913 7.60194 10.473 7.25777 10.4963 6.81043C10.52 6.36308 10.1762 5.981 9.72888 5.95766C9.28117 5.93433 8.89982 6.27777 8.87612 6.72548C8.85279 7.17319 9.19659 7.5549 9.64393 7.57824Z" fill="#20C2D4"/>
<path d="M14.2574 18.9164C14.2796 18.4986 13.9588 18.1417 13.541 18.1202C13.1231 18.0983 12.7666 18.4192 12.7451 18.837C12.7232 19.2551 13.0437 19.6113 13.4615 19.6336C13.8797 19.6551 14.2359 19.3346 14.2574 18.9164Z" fill="#20C2D4"/>
<path d="M7.44039 26.4122C7.41196 26.9573 7.8305 27.4221 8.37555 27.4509C8.92024 27.4794 9.38508 27.0608 9.41388 26.5154C9.44232 25.9707 9.02378 25.5059 8.47873 25.4771C7.93404 25.4486 7.4692 25.8672 7.44039 26.4122Z" fill="#20C2D4"/>
<path d="M17.2291 4.28136C17.2506 3.87047 16.9353 3.52011 16.5247 3.4986C16.1142 3.47709 15.7635 3.79281 15.742 4.20334C15.7208 4.61422 16.0362 4.96459 16.4463 4.9861C16.8572 5.00761 17.2076 4.69224 17.2291 4.28136Z" fill="#20C2D4"/>
<path d="M5.42172 16.1154C5.44724 15.6239 5.07026 15.2046 4.57844 15.1791C4.08771 15.1532 3.66844 15.5309 3.64292 16.022C3.61703 16.5131 3.99438 16.9324 4.48547 16.9583C4.97693 16.9842 5.39547 16.6065 5.42172 16.1154Z" fill="#20C2D4"/>
<path d="M15.5557 32.845C15.5356 33.223 15.8262 33.5457 16.2043 33.5654C16.582 33.5854 16.9046 33.2949 16.9247 32.9168C16.9444 32.5387 16.6538 32.2157 16.2757 32.196C15.898 32.1763 15.575 32.4669 15.5557 32.845Z" fill="#20C2D4"/>
<path d="M27.1972 22.3704C27.1738 22.8105 27.5122 23.186 27.9522 23.209C28.3919 23.2319 28.7674 22.894 28.7904 22.4535C28.8134 22.0138 28.4754 21.6383 28.0354 21.615C27.5957 21.592 27.2202 21.9304 27.1972 22.3704Z" fill="#20C2D4"/>
<path d="M18.8103 27.9128C19.355 27.9416 19.8199 27.5231 19.8483 26.9781C19.8767 26.433 19.4586 25.9685 18.9139 25.9397C18.3688 25.9113 17.9044 26.3298 17.8759 26.8745C17.8471 27.4196 18.2657 27.8844 18.8103 27.9128Z" fill="#20C2D4"/>
<path d="M25.9445 4.77313C25.9656 4.37246 25.6579 4.03121 25.2576 4.01006C24.8577 3.98892 24.516 4.29662 24.4949 4.6973C24.4741 5.09761 24.7815 5.43923 25.1818 5.46001C25.5824 5.48079 25.9237 5.17345 25.9445 4.77313Z" fill="#20C2D4"/>
<path d="M29.8182 11.7473C29.8433 11.2726 29.4787 10.8675 29.0044 10.8427C28.5297 10.818 28.1247 11.1825 28.0999 11.6572C28.0751 12.1315 28.4397 12.5366 28.914 12.5618C29.3887 12.5862 29.7934 12.222 29.8182 11.7473Z" fill="#20C2D4"/>
<path d="M18.7232 12.2909C19.1005 12.3102 19.4221 12.0207 19.4414 11.6437C19.4611 11.2668 19.1716 10.9448 18.7946 10.9251C18.4177 10.9055 18.0961 11.1949 18.0764 11.5723C18.0571 11.9493 18.3466 12.2708 18.7232 12.2909Z" fill="#20C2D4"/>
<path d="M22.2035 18.2183C22.2246 17.8147 21.9147 17.4698 21.5104 17.4487C21.1068 17.4275 20.7623 17.7378 20.7411 18.1417C20.72 18.5457 21.0302 18.8902 21.4338 18.9114C21.8374 18.9325 22.1823 18.6222 22.2035 18.2183Z" fill="#20C2D4"/>
<path d="M2.83935 10.0027L7.08164 11.1792L1.88377 16.4934L2.83935 10.0027ZM10.4059 2.36616L7.18117 11.017L2.93961 9.84012L10.4059 2.36616ZM6.24929 5.02835L9.95383 2.55976L3.42523 9.09455L6.24929 5.02835ZM10.7187 2.15653L14.9435 6.61721L7.46445 10.8865L10.7187 2.15653ZM21.9063 2.83721L15.1214 6.53809L10.8985 2.07924L21.9063 2.83721ZM17.8088 0.900174L21.7156 2.64033L11.4668 1.9345L17.8088 0.900174ZM25.8828 2.58309L22.2443 2.67497L18.6411 1.07043L25.8828 2.58309ZM30.6494 6.86111L22.5968 2.8496L26.6364 2.74715L30.6494 6.86111ZM23.8448 9.38804L22.3796 2.94585L30.8262 7.15387L23.8448 9.38804ZM31.2827 13.9814L24.0275 9.56049L31.0067 7.32741L31.2827 13.9814ZM34.0229 15.513L31.4719 14.1149L31.209 7.77184L34.0229 15.513ZM31.3931 23.5091L31.4726 14.3245L34.0801 15.7537L31.3931 23.5091ZM33.2073 23.5736L31.4365 23.9448L34.0076 16.5229L33.2073 23.5736ZM28.2745 29.8831L31.3483 24.1653L31.3545 24.1613L31.3523 24.1577L31.3571 24.1486L33.0633 23.7909L28.2745 29.8831ZM27.6547 30.6491L23.9385 28.7631L31.0362 24.3589L27.6547 30.6491ZM18.6772 33.8669L23.7504 28.8728L27.4608 30.7563L18.6772 33.8669ZM18.309 33.9715L12.9161 30.1157L23.478 28.8834L18.309 33.9715ZM9.81383 32.4654L12.6729 30.1675L17.9338 33.9285L9.81383 32.4654ZM4.2831 27.2049L12.4837 30.0843L9.60565 32.398L4.2831 27.2049ZM7.73898 20.9169L12.4545 29.8794L4.07711 26.938L7.73898 20.9169ZM7.62487 20.483L1.90857 16.7304L7.15711 11.3641L7.62487 20.483ZM14.6631 14.416L7.84289 20.4371L7.37513 11.3229L14.6631 14.416ZM14.7773 14.1856L7.52278 11.1067L14.9694 6.85564L14.7773 14.1856ZM16.1641 22.8802L7.99273 20.6471L14.8115 14.6271L16.1641 22.8802ZM15.3544 6.62012L22.1466 2.91486L23.6137 9.36325L15.3544 6.62012ZM23.466 9.5459L15.0347 14.1579L15.2275 6.80934L23.466 9.5459ZM24.7111 18.4027L15.1947 14.3631L23.6596 9.73257L24.7111 18.4027ZM24.967 18.383L23.9206 9.75299L31.162 14.1655L24.967 18.383ZM25.0764 18.6189L31.2889 14.3894L31.2072 23.8234L25.0764 18.6189ZM24.9659 18.8617L31.0942 24.064L23.8871 28.5363L24.9659 18.8617ZM16.5397 23.0676L24.7111 18.8322L23.6283 28.5418L16.5397 23.0676ZM15.0649 14.5866L24.5638 18.6193L16.4179 22.8412L15.0649 14.5866ZM12.6692 29.8149L7.96101 20.8669L16.1598 23.1066L12.6692 29.8149ZM16.3566 23.2043L23.4726 28.6993L12.8526 29.9385L16.3566 23.2043ZM1.89362 16.9834L7.59679 20.7277L3.95862 26.7101L1.89362 16.9834ZM0.635805 18.7323L1.70987 17.0009L3.62211 26.0079L0.635805 18.7323ZM2.40914 11.666L1.66429 16.7267L0.766326 18.1734L2.40914 11.666ZM0.444763 18.7013L0.533357 18.7239L0.448409 18.7586L3.83758 27.016L3.92216 26.981L3.85836 27.047L9.53565 32.5861L9.59982 32.5201L9.58341 32.6105L18.3024 34.1812L18.3188 34.0907L18.3491 34.1772L27.7236 30.8573L27.693 30.7712L27.7652 30.8277L33.363 23.7063L33.2908 23.6498L33.382 23.66L34.2828 15.7209L34.1921 15.7106L34.2781 15.6789L31.1791 7.15314L31.0927 7.1845L31.158 7.12033L26.7396 2.59038L26.674 2.65455L26.6926 2.56486L17.8398 0.715695L17.8212 0.805747L17.8062 0.714966L10.6556 1.88163L10.6702 1.97168L10.6196 1.89549L6.13299 4.88543L6.18403 4.962L6.10857 4.9095L2.68841 9.83429L2.76388 9.88679L2.67492 9.86455L0.444763 18.7013Z" fill="#FADD5C"/>
<path d="M15.2097 23.0201C15.2097 23.6425 15.7143 24.147 16.3363 24.147C16.9586 24.147 17.4628 23.6425 17.4628 23.0201C17.4628 22.3978 16.9586 21.8936 16.3363 21.8936C15.7143 21.8936 15.2097 22.3978 15.2097 23.0201Z" fill="#FADD5C"/>
<path d="M9.5911 32.1201C9.36833 32.1201 9.18787 32.3002 9.18787 32.5233C9.18787 32.7461 9.36833 32.9266 9.5911 32.9266C9.81349 32.9266 9.99432 32.7461 9.99432 32.5233C9.99432 32.3002 9.81349 32.1201 9.5911 32.1201Z" fill="#FADD5C"/>
<path d="M13.2122 30.0573C13.2122 29.7631 12.9737 29.5243 12.6795 29.5243C12.3853 29.5243 12.1469 29.7631 12.1469 30.0573C12.1469 30.3519 12.3853 30.5903 12.6795 30.5903C12.9737 30.5903 13.2122 30.3519 13.2122 30.0573Z" fill="#FADD5C"/>
<path d="M17.8234 0C17.3778 0 17.0169 0.361302 17.0169 0.806458C17.0169 1.25198 17.3778 1.61328 17.8234 1.61328C18.2685 1.61328 18.6298 1.25198 18.6298 0.806458C18.6298 0.361302 18.2685 0 17.8234 0Z" fill="#FADD5C"/>
<path d="M6.1819 4.4137C5.88148 4.4137 5.63757 4.6576 5.63757 4.95838C5.63757 5.25917 5.88148 5.50271 6.1819 5.50271C6.48268 5.50271 6.72622 5.25917 6.72622 4.95838C6.72622 4.6576 6.48268 4.4137 6.1819 4.4137Z" fill="#FADD5C"/>
<path d="M10.6815 2.6801C11.0713 2.6801 11.387 2.36401 11.387 1.97463C11.387 1.58453 11.0713 1.26843 10.6815 1.26843C10.2922 1.26843 9.97607 1.58453 9.97607 1.97463C9.97607 2.36401 10.2922 2.6801 10.6815 2.6801Z" fill="#FADD5C"/>
<path d="M6.77069 20.6977C6.77069 21.2435 7.21257 21.6861 7.75798 21.6861C8.30376 21.6861 8.746 21.2435 8.746 20.6977C8.746 20.1523 8.30376 19.7097 7.75798 19.7097C7.21257 19.7097 6.77069 20.1523 6.77069 20.6977Z" fill="#FADD5C"/>
<path d="M0.545422 18.1917C0.24464 18.1917 0.00109863 18.4356 0.00109863 18.7363C0.00109863 19.0371 0.24464 19.2807 0.545422 19.2807C0.846203 19.2807 1.08974 19.0371 1.08974 18.7363C1.08974 18.4356 0.846203 18.1917 0.545422 18.1917Z" fill="#FADD5C"/>
<path d="M1.0697 16.7559C1.0697 17.1347 1.37668 17.4416 1.75548 17.4416C2.13392 17.4416 2.44054 17.1347 2.44054 16.7559C2.44054 16.3774 2.13392 16.0704 1.75548 16.0704C1.37668 16.0704 1.0697 16.3774 1.0697 16.7559Z" fill="#FADD5C"/>
<path d="M2.77265 10.4435C3.07307 10.4435 3.31698 10.2 3.31698 9.89918C3.31698 9.5984 3.07307 9.35449 2.77265 9.35449C2.47224 9.35449 2.22797 9.5984 2.22797 9.89918C2.22797 10.2 2.47224 10.4435 2.77265 10.4435Z" fill="#FADD5C"/>
<path d="M7.27232 10.1486C6.72691 10.1486 6.2843 10.5912 6.2843 11.1366C6.2843 11.6824 6.72691 12.125 7.27232 12.125C7.8181 12.125 8.26034 11.6824 8.26034 11.1366C8.26034 10.5912 7.8181 10.1486 7.27232 10.1486Z" fill="#FADD5C"/>
<path d="M4.57077 27.0047C4.57077 26.6598 4.29077 26.3798 3.94551 26.3798C3.60025 26.3798 3.32062 26.6598 3.32062 27.0047C3.32062 27.3499 3.60025 27.6299 3.94551 27.6299C4.29077 27.6299 4.57077 27.3499 4.57077 27.0047Z" fill="#FADD5C"/>
<path d="M31.3906 13.5851C31.0738 13.5851 30.8171 13.8421 30.8171 14.1589C30.8171 14.4754 31.0738 14.7324 31.3906 14.7324C31.7078 14.7324 31.9641 14.4754 31.9641 14.1589C31.9641 13.8421 31.7078 13.5851 31.3906 13.5851Z" fill="#FADD5C"/>
<path d="M30.5718 24.0578C30.5718 24.4588 30.8966 24.7837 31.2977 24.7837C31.6987 24.7837 32.0235 24.4588 32.0235 24.0578C32.0235 23.6568 31.6987 23.3315 31.2977 23.3315C30.8966 23.3315 30.5718 23.6568 30.5718 24.0578Z" fill="#FADD5C"/>
<path d="M31.073 6.52197C30.7168 6.52197 30.4277 6.81072 30.4277 7.16729C30.4277 7.52385 30.7168 7.81296 31.073 7.81296C31.4296 7.81296 31.7184 7.52385 31.7184 7.16729C31.7184 6.81072 31.4296 6.52197 31.073 6.52197Z" fill="#FADD5C"/>
<path d="M27.6868 31.3031C27.9873 31.3031 28.2312 31.0596 28.2312 30.7588C28.2312 30.458 27.9873 30.2141 27.6868 30.2141C27.3864 30.2141 27.1422 30.458 27.1422 30.7588C27.1422 31.0596 27.3864 31.3031 27.6868 31.3031Z" fill="#FADD5C"/>
<mask id="mask0_20_34918" style="mask-type:luminance" maskUnits="userSpaceOnUse" x="33" y="14" width="2" height="3">
<path d="M33.32 14.8436H34.996V16.52H33.32V14.8436Z" fill="white"/>
</mask>
<g mask="url(#mask0_20_34918)">
<path d="M34.9956 15.711C34.9956 15.2655 34.6343 14.9045 34.1891 14.9045C33.7436 14.9045 33.3827 15.2655 33.3827 15.711C33.3827 16.1565 33.7436 16.5178 34.1891 16.5178C34.6343 16.5178 34.9956 16.1565 34.9956 15.711Z" fill="#FADD5C"/>
</g>
<path d="M32.7421 23.6586C32.7421 23.9594 32.9857 24.2033 33.2864 24.2033C33.5872 24.2033 33.8308 23.9594 33.8308 23.6586C33.8308 23.3582 33.5872 23.1143 33.2864 23.1143C32.9857 23.1143 32.7421 23.3582 32.7421 23.6586Z" fill="#FADD5C"/>
<path d="M26.6496 2.08838C26.3488 2.08838 26.1053 2.33192 26.1053 2.6327C26.1053 2.93348 26.3488 3.17739 26.6496 3.17739C26.9504 3.17739 27.1939 2.93348 27.1939 2.6327C27.1939 2.33192 26.9504 2.08838 26.6496 2.08838Z" fill="#FADD5C"/>
<path d="M16.084 14.3664C16.084 13.7229 15.5626 13.2008 14.9187 13.2008C14.2753 13.2008 13.7535 13.7229 13.7535 14.3664C13.7535 15.0102 14.2753 15.532 14.9187 15.532C15.5626 15.532 16.084 15.0102 16.084 14.3664Z" fill="#FADD5C"/>
<path d="M25.9201 18.608C25.9201 18.0272 25.449 17.5558 24.8686 17.5558C24.2878 17.5558 23.8171 18.0272 23.8171 18.608C23.8171 19.1884 24.2878 19.6594 24.8686 19.6594C25.449 19.6594 25.9201 19.1884 25.9201 18.608Z" fill="#FADD5C"/>
<path d="M15.0989 5.28394C14.3424 5.28394 13.7288 5.89716 13.7288 6.65404C13.7288 7.41091 14.3424 8.02451 15.0989 8.02451C15.8561 8.02451 16.469 7.41091 16.469 6.65404C16.469 5.89716 15.8561 5.28394 15.0989 5.28394Z" fill="#FADD5C"/>
<path d="M22.2261 2.25537C21.9366 2.25537 21.7022 2.49016 21.7022 2.77964C21.7022 3.06912 21.9366 3.30391 22.2261 3.30391C22.5156 3.30391 22.7504 3.06912 22.7504 2.77964C22.7504 2.49016 22.5156 2.25537 22.2261 2.25537Z" fill="#FADD5C"/>
<path d="M22.8765 28.7554C22.8765 29.2309 23.2619 29.6162 23.7369 29.6162C24.212 29.6162 24.597 29.2309 24.597 28.7554C24.597 28.2804 24.212 27.895 23.7369 27.895C23.2619 27.895 22.8765 28.2804 22.8765 28.7554Z" fill="#FADD5C"/>
<path d="M23.7781 8.45728C23.1944 8.45728 22.7208 8.9305 22.7208 9.5142C22.7208 10.0979 23.1944 10.5711 23.7781 10.5711C24.3615 10.5711 24.8347 10.0979 24.8347 9.5142C24.8347 8.9305 24.3615 8.45728 23.7781 8.45728Z" fill="#FADD5C"/>
<mask id="mask1_20_34918" style="mask-type:luminance" maskUnits="userSpaceOnUse" x="17" y="33" width="3" height="2">
<path d="M17.64 33.4133H19.04V34.79H17.64V33.4133Z" fill="white"/>
</mask>
<g mask="url(#mask1_20_34918)">
<path d="M17.6491 34.1046C17.6491 34.483 17.9557 34.79 18.3342 34.79C18.7126 34.79 19.0196 34.483 19.0196 34.1046C19.0196 33.7262 18.7126 33.4192 18.3342 33.4192C17.9557 33.4192 17.6491 33.7262 17.6491 34.1046Z" fill="#FADD5C"/>
</g>
</g>
<defs>
<clipPath id="clip0_20_34918">
<rect width="35" height="35" fill="white"/>
</clipPath>
</defs>
</svg>
