<svg width="140" height="140" viewBox="0 0 140 140" fill="none" xmlns="http://www.w3.org/2000/svg">
<g clip-path="url(#clip0_5_2150)">
<path d="M10.29 44.205L6.10165 91.089L2.5229 74.9788L10.29 44.205ZM11.2569 41.631L17.6794 64.1885L6.84103 91.0452L11.2569 41.631ZM37.695 28.1167L18.1489 63.1575L11.5267 39.9044L37.695 28.1167ZM28.77 22.4277L37.8029 27.1031L12.8858 38.3279L28.77 22.4277ZM24.8631 20.405L28.086 22.0733L13.7127 36.4613L24.8631 20.405ZM39.8227 10.3235L28.63 21.5294L25.4669 19.8917L39.8227 10.3235ZM38.3979 26.5854L29.3125 21.8823L41.9883 9.19334L38.3979 26.5854ZM43.031 8.49917L64.8244 16.9998L39.3181 26.4804L43.031 8.49917ZM70.716 3.77271L65.7489 16.574L44.0723 8.11855L70.716 3.77271ZM71.4831 3.82667L99.1885 18.655L66.4796 16.711L71.4831 3.82667ZM106.082 10.9492L100.72 18.6433L73.7129 4.18834L106.082 10.9492ZM106.746 11.2773L122.869 27.806L101.396 18.9554L106.746 11.2773ZM115.889 45.9856L101.755 19.896L123.877 29.0135L115.889 45.9856ZM135.995 61.8654L116.33 46.7688L124.329 29.7748L135.995 61.8654ZM112.43 88.6958L116.178 47.5752L136.227 62.9679L112.43 88.6958ZM132.847 94.2258L112.664 89.5227L136.278 63.9917L132.847 94.2258ZM111.182 122.049L112.318 90.1936L132.52 94.9025L111.182 122.049ZM110.431 122.531L76.5173 107.86L111.576 90.421L110.431 122.531ZM65.6789 131.139L75.6992 108.465L109.395 123.041L65.6789 131.139ZM73.3177 136.035L66.0187 131.822L106.266 124.368L73.3177 136.035ZM44.3654 130.856L64.8667 132.004L71.2775 135.704L44.3654 130.856ZM34.2285 106.871L63.875 131.214L38.7129 129.805L34.2285 106.871ZM7.77144 94.6473L33.3652 106.283L37.7869 128.89L7.77144 94.6473ZM15.9862 107.766L9.35082 97.561L31.9389 123.331L15.9862 107.766ZM32.8883 105.099L6.75499 93.2181L18.0133 65.3202L32.8883 105.099ZM53.2233 74.849L18.7498 63.8852L38.5656 28.3617L53.2233 74.849ZM74.2321 46.776L54.1917 74.5077L39.5952 28.2173L74.2321 46.776ZM74.1373 45.5598L39.8854 27.2081L65.6046 17.6488L74.1373 45.5598ZM75.2237 45.605L66.6181 17.4548L99.8404 19.4279L75.2237 45.605ZM76.1717 46.095L100.775 19.934L115.092 46.3604L76.1717 46.095ZM86.1437 73.4927L111.081 89.686L76.1819 107.043L86.1437 73.4927ZM75.7633 47.1202L114.618 47.3842L86.1204 72.0227L75.7633 47.1202ZM85.1462 72.3552L55.0842 75.0254L74.8694 47.6452L85.1462 72.3552ZM54.915 76.071L85.2614 73.3746L75.3462 106.77L54.915 76.071ZM74.811 108.297L64.7748 131.005L34.8542 106.435L74.811 108.297ZM33.7531 104.898L18.8285 64.9877L53.2014 75.9179L33.7531 104.898ZM54.0079 76.561L74.5339 107.403L34.5581 105.541L54.0079 76.561ZM111.665 89.0152L86.6192 72.7548L115.415 47.8567L111.665 89.0152ZM5.89894 93.555L6.25624 93.4748L5.94853 93.676L6.07686 93.8715L6.07394 93.8758L6.08124 93.8788L15.3942 108.201L15.7019 108L15.4452 108.264L38.1529 130.417L38.4081 130.155L38.3439 130.516L73.2141 136.799L73.2798 136.437L73.4023 136.783L110.897 123.505L110.775 123.159L111.064 123.385L133.452 94.9025L133.165 94.6765L133.529 94.7173L137.133 62.9635L136.768 62.9227L137.112 62.7973L124.718 28.6956L124.372 28.821L124.635 28.5644L106.961 10.4475L106.699 10.7042L106.773 10.3454L71.365 2.94875L71.2906 3.30896L71.2308 2.9473L42.6314 7.61105L42.6898 7.97271L42.4871 7.66792L24.5437 19.6263L24.7464 19.931L24.4446 19.7225L10.9054 39.2204L10.8864 39.2277L10.8908 39.2394L10.7654 39.4202L11.0673 39.6302L10.7114 39.5398L1.79082 74.884L2.14665 74.9729L1.7879 75.0531L5.89894 93.555Z" fill="#12656D"/>
<path d="M38.5861 30.396C40.374 30.4908 41.9023 29.1156 41.9956 27.3248C42.089 25.5354 40.7152 24.0085 38.9244 23.9152C37.135 23.8204 35.6081 25.1956 35.5148 26.9865C35.4215 28.7758 36.7952 30.3027 38.5861 30.396Z" fill="#348B95"/>
<path d="M57.0383 75.7444C57.1258 74.0731 55.8425 72.6483 54.1713 72.5608C52.5015 72.4733 51.0752 73.7552 50.9877 75.4265C50.9002 77.0977 52.1835 78.524 53.8548 78.6115C55.526 78.699 56.9508 77.4156 57.0383 75.7444Z" fill="#348B95"/>
<path d="M29.7719 105.725C29.6581 107.905 31.3323 109.764 33.5125 109.88C35.6913 109.993 37.5506 108.318 37.6644 106.139C37.7781 103.959 36.104 102.099 33.9252 101.986C31.7465 101.87 29.8871 103.546 29.7719 105.725Z" fill="#348B95"/>
<path d="M68.9223 17.2098C69.0098 15.5677 67.7469 14.1648 66.1048 14.0802C64.4627 13.9942 63.0613 15.2556 62.9752 16.8977C62.8892 18.5412 64.1506 19.9427 65.7927 20.0287C67.4363 20.1148 68.8363 18.8533 68.9223 17.2098Z" fill="#348B95"/>
<path d="M21.6971 64.5415C21.7992 62.5756 20.2912 60.9 18.3269 60.7965C16.3625 60.6929 14.6854 62.2023 14.5833 64.1681C14.4798 66.134 15.9892 67.8096 17.9535 67.9117C19.9179 68.0152 21.5935 66.5073 21.6971 64.5415Z" fill="#348B95"/>
<path d="M62.2285 131.453C62.1498 132.966 63.3106 134.257 64.8229 134.337C66.3352 134.416 67.6258 133.254 67.706 131.741C67.7848 130.228 66.624 128.939 65.1117 128.86C63.5994 128.78 62.3088 129.94 62.2285 131.453Z" fill="#348B95"/>
<path d="M108.792 89.5592C108.7 91.3194 110.05 92.8215 111.81 92.9148C113.571 93.0052 115.071 91.6548 115.163 89.8931C115.256 88.1329 113.905 86.6323 112.144 86.539C110.386 86.4471 108.884 87.799 108.792 89.5592Z" fill="#348B95"/>
<path d="M75.2471 111.729C77.4258 111.842 79.2852 110.168 79.399 107.99C79.5127 105.809 77.8386 103.95 75.6613 103.836C73.4811 103.721 71.6231 105.395 71.5094 107.574C71.3942 109.754 73.0683 111.614 75.2471 111.729Z" fill="#348B95"/>
<path d="M103.782 19.1771C103.865 17.5758 102.638 16.2094 101.035 16.1248C99.4336 16.0417 98.0686 17.271 97.984 18.8723C97.8994 20.475 99.1302 21.8415 100.731 21.9246C102.333 22.0092 103.699 20.7783 103.782 19.1771Z" fill="#348B95"/>
<path d="M119.274 47.0706C119.375 45.1719 117.916 43.5517 116.019 43.4539C114.12 43.3533 112.502 44.8117 112.402 46.7104C112.303 48.6077 113.76 50.2264 115.657 50.3271C117.556 50.4262 119.176 48.9679 119.274 47.0706Z" fill="#348B95"/>
<path d="M74.8985 49.2435C76.4064 49.3223 77.6927 48.1644 77.7729 46.6565C77.8517 45.1485 76.6937 43.8623 75.1858 43.7835C73.6779 43.7048 72.3917 44.8627 72.3129 46.3706C72.2342 47.8785 73.3906 49.1648 74.8985 49.2435Z" fill="#348B95"/>
<path d="M88.8183 72.9531C88.9029 71.3373 87.6633 69.9592 86.0475 69.8746C84.4331 69.79 83.055 71.0311 82.9704 72.6454C82.8858 74.2613 84.1269 75.6394 85.7413 75.724C87.3571 75.8086 88.7352 74.569 88.8183 72.9531Z" fill="#348B95"/>
<path d="M11.3692 40.094L28.3354 44.8L7.54833 66.0523L11.3692 40.094ZM41.6325 9.54917L28.735 44.1496L11.7702 39.4435L41.6325 9.54917ZM25.0075 20.1979L39.8227 10.3235L13.7127 36.4613L25.0075 20.1979ZM42.8838 8.71063L59.7815 26.5519L29.8681 43.629L42.8838 8.71063ZM87.6312 11.4348L60.4931 26.2369L43.6027 8.40292L87.6312 11.4348ZM71.241 3.68667L86.8685 10.6473L45.8763 7.82542L71.241 3.68667ZM103.533 10.4169L88.9831 10.7858L74.5704 4.36771L103.533 10.4169ZM122.599 27.529L90.3919 11.4829L106.549 11.0746L122.599 27.529ZM95.3838 37.6338L89.5227 11.8694L123.306 28.7L95.3838 37.6338ZM125.132 56.0058L96.1129 38.3235L124.03 29.3927L125.132 56.0058ZM136.093 62.1323L125.889 56.541L124.836 31.1719L136.093 62.1323ZM125.574 94.115L125.892 57.3796L136.322 63.0948L125.574 94.115ZM132.829 94.3702L125.746 95.8563L136.032 66.1704L132.829 94.3702ZM113.101 119.608L125.395 96.7385L125.421 96.721L125.411 96.7065L125.43 96.6715L132.253 95.2423L113.101 119.608ZM110.622 122.671L95.7585 115.128L124.146 97.5115L110.622 122.671ZM74.7133 135.54L95.0046 115.569L109.847 123.099L74.7133 135.54ZM73.2433 135.959L51.6717 120.539L93.9167 115.609L73.2433 135.959ZM39.2642 129.936L50.7004 120.743L71.7412 135.788L39.2642 129.936ZM17.1442 108.895L49.9435 120.412L38.4329 129.666L17.1442 108.895ZM30.9662 83.7463L49.8269 119.594L16.3202 107.829L30.9662 83.7463ZM30.5098 82.0094L7.6475 67.0002L28.6388 45.5379L30.5098 82.0094ZM58.66 57.7456L31.3819 81.8271L29.5123 45.3731L58.66 57.7456ZM59.1165 56.824L30.1015 44.5083L59.8865 27.5056L59.1165 56.824ZM64.664 91.5979L31.9812 82.6685L59.2535 58.59L64.664 91.5979ZM61.425 26.5635L88.5923 11.7454L94.4606 37.536L61.425 26.5635ZM93.8685 38.2667L60.146 56.7131L60.9175 27.3219L93.8685 38.2667ZM98.8487 73.691L60.7863 57.5327L94.6429 39.0133L98.8487 73.691ZM99.871 73.6123L95.6871 39.095L124.651 56.7423L99.871 73.6123ZM100.31 74.5544L125.157 57.6392L124.83 95.3706L100.31 74.5544ZM99.8667 75.5256L124.377 96.3331L95.5529 114.221L99.8667 75.5256ZM66.1646 92.346L98.8487 75.4075L94.5175 114.241L66.1646 92.346ZM60.2671 58.4281L98.2581 74.5573L65.679 91.4433L60.2671 58.4281ZM50.6844 119.334L31.8544 83.545L64.645 92.505L50.6844 119.334ZM65.434 92.8944L93.8948 114.873L51.4194 119.83L65.434 92.8944ZM7.58625 68.0138L30.396 82.9879L15.8462 106.916L7.58625 68.0138ZM2.55646 75.0079L6.85125 68.0852L14.5002 104.109L2.55646 75.0079ZM9.64833 46.7454L6.66896 66.9885L3.08 72.7752L9.64833 46.7454ZM1.79083 74.884L2.14667 74.9729L1.80687 75.1129L15.3621 108.14L15.7019 108.001L15.4452 108.264L38.1529 130.417L38.4081 130.155L38.344 130.516L73.2142 136.799L73.2798 136.437L73.4023 136.783L110.897 123.505L110.775 123.159L111.064 123.385L133.452 94.9025L133.165 94.6765L133.529 94.7173L137.133 62.9635L136.768 62.9227L137.113 62.7973L124.718 28.6956L124.372 28.821L124.635 28.5644L106.961 10.4475L106.699 10.7042L106.773 10.3454L71.365 2.94875L71.2906 3.30896L71.2308 2.9473L42.6315 7.61105L42.6898 7.97271L42.4871 7.66792L24.5437 19.6263L24.7465 19.931L24.4446 19.7225L10.7654 39.4202L11.0673 39.6302L10.7115 39.5398L1.79083 74.884Z" fill="#64D5DD"/>
<path d="M60.8475 92.1579C60.8475 94.6473 62.8644 96.6642 65.3523 96.6642C67.8402 96.6642 69.8571 94.6473 69.8571 92.1579C69.8571 89.67 67.8402 87.6517 65.3523 87.6517C62.8644 87.6517 60.8475 89.67 60.8475 92.1579Z" fill="#77E0E3"/>
<path d="M38.3731 128.554C37.4835 128.554 36.7602 129.277 36.7602 130.166C36.7602 131.059 37.4835 131.781 38.3731 131.781C39.2642 131.781 39.986 131.059 39.986 130.166C39.986 129.277 39.2642 128.554 38.3731 128.554Z" fill="#77E0E3"/>
<path d="M52.8573 120.305C52.8573 119.128 51.9035 118.173 50.7267 118.173C49.5498 118.173 48.5946 119.128 48.5946 120.305C48.5946 121.482 49.5498 122.437 50.7267 122.437C51.9035 122.437 52.8573 121.482 52.8573 120.305Z" fill="#77E0E3"/>
<mask id="mask0_5_2150" style="mask-type:luminance" maskUnits="userSpaceOnUse" x="70" y="133" width="7" height="7">
<path d="M70.56 133.653H76.1585V139.233H70.56V133.653Z" fill="white"/>
</mask>
<g mask="url(#mask0_5_2150)">
<path d="M70.6023 136.493C70.6023 138.006 71.8288 139.233 73.3425 139.233C74.8563 139.233 76.0827 138.006 76.0827 136.493C76.0827 134.979 74.8563 133.751 73.3425 133.751C71.8288 133.751 70.6023 134.979 70.6023 136.493Z" fill="#77E0E3"/>
</g>
<mask id="mask1_5_2150" style="mask-type:luminance" maskUnits="userSpaceOnUse" x="67" y="0" width="8" height="7">
<path d="M67.9467 0.0874939H74.6667V6.71999H67.9467V0.0874939Z" fill="white"/>
</mask>
<g mask="url(#mask1_5_2150)">
<path d="M71.3008 0.0860291C69.5173 0.0860291 68.0735 1.52978 68.0735 3.31332C68.0735 5.0954 69.5173 6.53915 71.3008 6.53915C73.0814 6.53915 74.5252 5.0954 74.5252 3.31332C74.5252 1.52978 73.0814 0.0860291 71.3008 0.0860291Z" fill="#77E0E3"/>
</g>
<path d="M24.7377 17.7392C23.5346 17.7392 22.5604 18.7148 22.5604 19.9179C22.5604 21.1196 23.5346 22.0952 24.7377 22.0952C25.9408 22.0952 26.915 21.1196 26.915 19.9179C26.915 18.7148 25.9408 17.7392 24.7377 17.7392Z" fill="#77E0E3"/>
<path d="M42.735 10.8062C44.2939 10.8062 45.5583 9.54187 45.5583 7.98291C45.5583 6.42395 44.2939 5.15958 42.735 5.15958C41.1775 5.15958 39.9131 6.42395 39.9131 7.98291C39.9131 9.54187 41.1775 10.8062 42.735 10.8062Z" fill="#77E0E3"/>
<path d="M27.0915 82.8698C27.0915 85.0515 28.8619 86.8219 31.0421 86.8219C33.2238 86.8219 34.9942 85.0515 34.9942 82.8698C34.9942 80.6881 33.2238 78.9177 31.0421 78.9177C28.8619 78.9177 27.0915 80.6881 27.0915 82.8698Z" fill="#77E0E3"/>
<path d="M2.19478 72.8452C0.991653 72.8452 0.0174866 73.8223 0.0174866 75.024C0.0174866 76.2271 0.991653 77.2027 2.19478 77.2027C3.3979 77.2027 4.37207 76.2271 4.37207 75.024C4.37207 73.8223 3.3979 72.8452 2.19478 72.8452Z" fill="#77E0E3"/>
<path d="M4.29187 67.1052C4.29187 68.619 5.51833 69.8469 7.03354 69.8469C8.54729 69.8469 9.7752 68.619 9.7752 67.1052C9.7752 65.59 8.54729 64.3621 7.03354 64.3621C5.51833 64.3621 4.29187 65.59 4.29187 67.1052Z" fill="#77E0E3"/>
<path d="M11.1023 41.8571C12.3054 41.8571 13.2796 40.8829 13.2796 39.6798C13.2796 38.4767 12.3054 37.501 11.1023 37.501C9.89915 37.501 8.92499 38.4767 8.92499 39.6798C8.92499 40.8829 9.89915 41.8571 11.1023 41.8571Z" fill="#77E0E3"/>
<path d="M29.0996 40.6773C26.9165 40.6773 25.149 42.4463 25.149 44.6294C25.149 46.8111 26.9165 48.5815 29.0996 48.5815C31.2827 48.5815 33.0517 46.8111 33.0517 44.6294C33.0517 42.4463 31.2827 40.6773 29.0996 40.6773Z" fill="#77E0E3"/>
<path d="M18.2933 108.096C18.2933 106.714 17.1748 105.595 15.7937 105.595C14.4127 105.595 13.2942 106.714 13.2942 108.096C13.2942 109.477 14.4127 110.596 15.7937 110.596C17.1748 110.596 18.2933 109.477 18.2933 108.096Z" fill="#77E0E3"/>
<path d="M125.565 54.4221C124.298 54.4221 123.271 55.4488 123.271 56.716C123.271 57.9833 124.298 59.01 125.565 59.01C126.831 59.01 127.858 57.9833 127.858 56.716C127.858 55.4488 126.831 54.4221 125.565 54.4221Z" fill="#77E0E3"/>
<path d="M122.289 96.3083C122.289 97.911 123.589 99.2119 125.192 99.2119C126.795 99.2119 128.096 97.911 128.096 96.3083C128.096 94.7027 126.795 93.4048 125.192 93.4048C123.589 93.4048 122.289 94.7027 122.289 96.3083Z" fill="#77E0E3"/>
<path d="M124.294 26.1727C122.869 26.1727 121.714 27.3277 121.714 28.7539C121.714 30.1787 122.869 31.3352 124.294 31.3352C125.719 31.3352 126.875 30.1787 126.875 28.7539C126.875 27.3277 125.719 26.1727 124.294 26.1727Z" fill="#77E0E3"/>
<path d="M110.749 125.288C111.952 125.288 112.927 124.313 112.927 123.11C112.927 121.906 111.952 120.932 110.749 120.932C109.547 120.932 108.573 121.906 108.573 123.11C108.573 124.313 109.547 125.288 110.749 125.288Z" fill="#77E0E3"/>
<path d="M139.982 62.9242C139.982 61.1435 138.537 59.6983 136.757 59.6983C134.976 59.6983 133.531 61.1435 133.531 62.9242C133.531 64.7063 134.976 66.1515 136.757 66.1515C138.537 66.1515 139.982 64.7063 139.982 62.9242Z" fill="#77E0E3"/>
<path d="M130.969 94.7129C130.969 95.9161 131.943 96.8902 133.146 96.8902C134.349 96.8902 135.323 95.9161 135.323 94.7129C135.323 93.5098 134.349 92.5342 133.146 92.5342C131.943 92.5342 130.969 93.5098 130.969 94.7129Z" fill="#77E0E3"/>
<path d="M106.601 8.43793C105.4 8.43793 104.425 9.41355 104.425 10.6167C104.425 11.8198 105.4 12.7954 106.601 12.7954C107.804 12.7954 108.779 11.8198 108.779 10.6167C108.779 9.41355 107.804 8.43793 106.601 8.43793Z" fill="#77E0E3"/>
<path d="M64.3431 57.5473C64.3431 54.9733 62.2577 52.885 59.6837 52.885C57.1083 52.885 55.0215 54.9733 55.0215 57.5473C55.0215 60.1213 57.1083 62.2096 59.6837 62.2096C62.2577 62.2096 64.3431 60.1213 64.3431 57.5473Z" fill="#77E0E3"/>
<path d="M103.683 74.5106C103.683 72.1875 101.8 70.3048 99.4773 70.3048C97.1556 70.3048 95.2729 72.1875 95.2729 74.5106C95.2729 76.8338 97.1556 78.7165 99.4773 78.7165C101.8 78.7165 103.683 76.8338 103.683 74.5106Z" fill="#77E0E3"/>
<path d="M60.4042 21.2188C57.3767 21.2188 54.9238 23.6731 54.9238 26.6992C54.9238 29.7267 57.3767 32.181 60.4042 32.181C63.4302 32.181 65.8831 29.7267 65.8831 26.6992C65.8831 23.6731 63.4302 21.2188 60.4042 21.2188Z" fill="#77E0E3"/>
<path d="M88.9087 9.10583C87.7508 9.10583 86.8131 10.045 86.8131 11.2029C86.8131 12.3623 87.7508 13.3 88.9087 13.3C90.0681 13.3 91.0058 12.3623 91.0058 11.2029C91.0058 10.045 90.0681 9.10583 88.9087 9.10583Z" fill="#77E0E3"/>
<path d="M91.5104 115.099C91.5104 116.998 93.0519 118.539 94.9521 118.539C96.8508 118.539 98.3923 116.998 98.3923 115.099C98.3923 113.197 96.8508 111.657 94.9521 111.657C93.0519 111.657 91.5104 113.197 91.5104 115.099Z" fill="#77E0E3"/>
<path d="M95.1154 33.9121C92.7821 33.9121 90.8892 35.8035 90.8892 38.1398C90.8892 40.4746 92.7821 42.3675 95.1154 42.3675C97.4502 42.3675 99.3431 40.4746 99.3431 38.1398C99.3431 35.8035 97.4502 33.9121 95.1154 33.9121Z" fill="#77E0E3"/>
</g>
<defs>
<clipPath id="clip0_5_2150">
<rect width="140" height="140" fill="white"/>
</clipPath>
</defs>
</svg>
