<svg width="140" height="140" viewBox="0 0 140 140" fill="none" xmlns="http://www.w3.org/2000/svg">
<g clip-path="url(#clip0_209_2)">
<path d="M10.2783 44.1233L6.08853 91.0102L2.51124 74.9L10.2783 44.1233ZM11.2437 41.5494L17.6677 64.1069L6.82936 90.9679L11.2437 41.5494ZM37.6862 28.0321L18.1373 63.0773L11.5135 39.8227L37.6862 28.0321ZM28.7598 22.3431L37.7927 27.0186L12.8742 38.2448L28.7598 22.3431ZM24.8529 20.3204L28.0758 21.9888L13.701 36.3781L24.8529 20.3204ZM39.8154 10.239L28.6198 21.4448L25.4567 19.8071L39.8154 10.239ZM38.3877 26.5023L29.3037 21.7977L41.9796 9.10876L38.3877 26.5023ZM43.0223 8.41314L64.8171 16.9152L39.3094 26.3958L43.0223 8.41314ZM70.7102 3.68668L65.7417 16.4879L44.065 8.03251L70.7102 3.68668ZM71.4758 3.74064L99.1856 18.5719L66.4737 16.6279L71.4758 3.74064ZM106.078 10.8631L100.715 18.5602L73.7056 4.1023L106.078 10.8631ZM106.743 11.1913L122.867 27.7215L101.392 18.8708L106.743 11.1913ZM115.886 45.904L101.752 19.8115L123.875 28.9304L115.886 45.904ZM135.994 61.7852L116.327 46.6871L124.327 29.6917L135.994 61.7852ZM112.427 88.6171L116.175 47.495L136.226 62.8877L112.427 88.6171ZM132.845 94.1486L112.662 89.444L136.278 63.9115L132.845 94.1486ZM111.179 121.974L112.315 90.1163L132.519 94.8238L111.179 121.974ZM110.428 122.456L76.5115 107.784L111.574 90.3438L110.428 122.456ZM65.6717 131.065L75.6919 108.389L109.392 122.967L65.6717 131.065ZM73.3104 135.962L66.0115 131.747L106.263 124.292L73.3104 135.962ZM44.3567 130.782L64.8594 131.93L71.2702 135.631L44.3567 130.782ZM34.2183 106.794L63.8677 131.141L38.7042 129.73L34.2183 106.794ZM7.75978 94.57L33.3564 106.208L37.7781 128.816L7.75978 94.57ZM15.9746 107.689L9.33916 97.4838L31.9302 123.257L15.9746 107.689ZM32.8781 105.023L6.74186 93.1408L18.0017 65.24L32.8781 105.023ZM53.2146 74.7688L18.7381 63.8065L38.5569 28.2771L53.2146 74.7688ZM74.2248 46.6929L54.1844 74.429L39.5865 28.1327L74.2248 46.6929ZM74.1315 45.4781L39.8781 27.1236L65.5958 17.5642L74.1315 45.4781ZM75.2179 45.5233L66.6108 17.3702L99.836 19.3448L75.2179 45.5233ZM76.1644 46.0133L100.771 19.8494L115.09 46.2788L76.1644 46.0133ZM86.1394 73.414L111.078 89.6073L76.1775 106.967L86.1394 73.414ZM75.756 47.0371L114.613 47.3025L86.116 71.9425L75.756 47.0371ZM85.1419 72.275L55.0769 74.9467L74.8635 47.5636L85.1419 72.275ZM54.9077 75.9923L85.2556 73.2958L75.3404 106.695L54.9077 75.9923ZM74.8052 108.221L64.769 130.931L34.8439 106.358L74.8052 108.221ZM33.7429 104.822L18.8169 64.909L53.1927 75.8392L33.7429 104.822ZM54.0006 76.4808L74.5281 107.328L34.5479 105.464L54.0006 76.4808ZM111.662 88.9365L86.6148 72.6746L115.412 47.775L111.662 88.9365ZM5.88582 93.4763L6.24311 93.3975L5.93686 93.5973L6.06374 93.7927L6.06228 93.7971L6.06811 93.8015L15.3825 108.124L15.6887 107.924L15.4335 108.188L38.1427 130.344L38.3994 130.08L38.3337 130.442L73.2098 136.725L73.2754 136.363L73.3965 136.709L110.895 123.429L110.772 123.085L111.061 123.311L133.452 94.8252L133.163 94.5992L133.528 94.64L137.131 62.8833L136.768 62.8425L137.112 62.7156L124.717 28.6125L124.371 28.7379L124.632 28.4813L106.959 10.3615L106.696 10.6181L106.77 10.2594L71.3592 2.86272L71.2848 3.22293L71.225 2.8598L42.6227 7.52647L42.681 7.88668L42.4783 7.58189L24.5321 19.5417L24.7362 19.8479L24.4344 19.6379L10.8937 39.1373L10.8733 39.1461L10.8792 39.1563L10.7537 39.3371L11.0556 39.5471L10.6998 39.4581L1.77916 74.8052L2.13353 74.8956L1.77478 74.9744L5.88582 93.4763Z" fill="#20C2D4"/>
<path d="M38.5758 30.3129C40.3652 30.4077 41.8921 29.031 41.9854 27.2417C42.0802 25.4523 40.705 23.924 38.9156 23.8306C37.1248 23.7373 35.5994 25.111 35.5046 26.9019C35.4112 28.6927 36.7864 30.2196 38.5758 30.3129Z" fill="#20C2D4"/>
<path d="M57.0296 75.6656C57.1185 73.9944 55.8352 72.5667 54.164 72.4806C52.4927 72.3931 51.0665 73.6765 50.9804 75.3477C50.8929 77.0204 52.1748 78.4452 53.846 78.5342C55.5188 78.6202 56.9435 77.3383 57.0296 75.6656Z" fill="#20C2D4"/>
<path d="M29.7617 105.649C29.6479 107.829 31.3221 109.689 33.5023 109.804C35.681 109.918 37.5404 108.243 37.6556 106.062C37.7694 103.883 36.0952 102.024 33.915 101.908C31.7362 101.795 29.8769 103.469 29.7617 105.649Z" fill="#20C2D4"/>
<path d="M68.9165 17.1252C69.0025 15.4817 67.741 14.0802 66.099 13.9942C64.4569 13.9081 63.054 15.171 62.9679 16.8131C62.8833 18.4567 64.1448 19.8581 65.7854 19.9442C67.429 20.0302 68.8304 18.7688 68.9165 17.1252Z" fill="#20C2D4"/>
<path d="M21.6869 64.4613C21.789 62.4954 20.2811 60.8183 18.3138 60.7163C16.3508 60.6127 14.6738 62.1236 14.5717 64.0879C14.4681 66.0523 15.9775 67.7294 17.9419 67.8329C19.9077 67.9365 21.5819 66.4256 21.6869 64.4613Z" fill="#20C2D4"/>
<path d="M62.2227 131.38C62.1425 132.892 63.3048 134.183 64.8171 134.261C66.3279 134.342 67.6185 133.179 67.6988 131.667C67.7775 130.155 66.6152 128.863 65.1029 128.784C63.5921 128.705 62.3 129.868 62.2227 131.38Z" fill="#20C2D4"/>
<path d="M108.789 89.4819C108.695 91.2421 110.049 92.7442 111.809 92.8361C113.568 92.9279 115.07 91.5761 115.162 89.8144C115.254 88.0556 113.902 86.5536 112.141 86.4602C110.383 86.3683 108.881 87.7217 108.789 89.4819Z" fill="#20C2D4"/>
<path d="M75.2413 111.651C77.42 111.767 79.2794 110.092 79.3931 107.912C79.5069 105.732 77.8342 103.874 75.6554 103.759C73.4752 103.645 71.6173 105.319 71.5035 107.498C71.3883 109.678 73.0625 111.538 75.2413 111.651Z" fill="#20C2D4"/>
<path d="M103.778 19.0925C103.863 17.4898 102.632 16.1248 101.03 16.0402C99.4306 15.9556 98.0642 17.1865 97.9796 18.7892C97.8965 20.3904 99.1258 21.7569 100.727 21.84C102.33 21.9231 103.695 20.6938 103.778 19.0925Z" fill="#20C2D4"/>
<path d="M119.273 46.989C119.373 45.0902 117.915 43.47 116.018 43.3708C114.119 43.2717 112.499 44.73 112.4 46.6287C112.3 48.526 113.759 50.1462 115.656 50.2469C117.555 50.3446 119.174 48.8877 119.273 46.989Z" fill="#20C2D4"/>
<path d="M74.8927 49.1633C76.4021 49.2406 77.6883 48.0827 77.7656 46.5748C77.8444 45.0669 76.6865 43.7792 75.1785 43.7004C73.6706 43.6217 72.3844 44.7796 72.3056 46.289C72.2283 47.7969 73.3863 49.0831 74.8927 49.1633Z" fill="#20C2D4"/>
<path d="M88.814 72.8729C88.8985 71.2585 87.659 69.8789 86.0417 69.7944C84.4273 69.7098 83.0492 70.9508 82.9646 72.5667C82.88 74.1825 84.121 75.5606 85.7354 75.6452C87.3498 75.7298 88.7294 74.4887 88.814 72.8729Z" fill="#20C2D4"/>
<path d="M11.3575 40.0108L28.3267 44.7169L7.53522 65.9736L11.3575 40.0108ZM41.6238 9.46459L28.7248 44.0679L11.7585 39.3604L41.6238 9.46459ZM24.9973 20.1133L39.8154 10.239L13.701 36.3781L24.9973 20.1133ZM42.875 8.62605L59.7742 26.4688L29.8579 43.5458L42.875 8.62605ZM87.6254 11.3488L60.4858 26.1523L43.594 8.31689L87.6254 11.3488ZM71.2352 3.60064L86.8627 10.5613L45.8675 7.73793L71.2352 3.60064ZM103.531 10.3323L88.9773 10.6998L74.5646 4.28168L103.531 10.3323ZM122.598 27.4444L90.3875 11.3983L106.546 10.9886L122.598 27.4444ZM95.3794 37.5521L89.5183 11.7833L123.305 28.6154L95.3794 37.5521ZM125.131 55.9256L96.11 38.2419L124.027 29.3096L125.131 55.9256ZM136.092 62.0521L125.888 56.4594L124.836 31.0873L136.092 62.0521ZM125.573 94.0363L125.891 57.2979L136.321 63.0146L125.573 94.0363ZM132.829 94.2944L125.746 95.779L136.03 66.0917L132.829 94.2944ZM113.098 119.532L125.393 96.6613L125.418 96.6452L125.409 96.6306L125.428 96.5942L132.253 95.1636L113.098 119.532ZM110.619 122.596L95.7542 115.052L124.145 97.4356L110.619 122.596ZM74.709 135.468L95.0017 115.491L109.843 123.025L74.709 135.468ZM73.2361 135.886L51.6644 120.463L93.9123 115.534L73.2361 135.886ZM39.2554 129.862L50.6917 120.67L71.7354 135.714L39.2554 129.862ZM17.1325 108.819L49.9348 120.337L38.4227 129.592L17.1325 108.819ZM30.956 83.6675L49.8181 119.518L16.3085 107.752L30.956 83.6675ZM30.4996 81.9321L7.63438 66.9215L28.6285 45.4563L30.4996 81.9321ZM58.6527 57.664L31.3717 81.7483L29.5006 45.2915L58.6527 57.664ZM59.1092 56.7423L30.0913 44.4267L59.8777 27.4225L59.1092 56.7423ZM64.6567 91.5206L31.971 82.5883L59.2463 58.5083L64.6567 91.5206ZM61.4177 26.4804L88.5865 11.6594L94.4548 37.4529L61.4177 26.4804ZM93.8642 38.1836L60.1388 56.6315L60.9102 27.2373L93.8642 38.1836ZM98.8444 73.6108L60.779 57.4525L94.6386 38.9302L98.8444 73.6108ZM99.8681 73.5321L95.6827 39.0119L124.648 56.6621L99.8681 73.5321ZM100.306 74.4756L125.156 57.5575L124.829 95.2933L100.306 74.4756ZM99.8638 75.4469L124.377 96.2558L95.5486 114.145L99.8638 75.4469ZM66.1588 92.2702L98.8444 75.3288L94.5131 114.167L66.1588 92.2702ZM60.2598 58.3465L98.2552 74.4771L65.6717 91.3646L60.2598 58.3465ZM50.6771 119.26L31.8442 83.4677L64.6392 92.4263L50.6771 119.26ZM65.4267 92.8171L93.8904 114.797L51.4106 119.754L65.4267 92.8171ZM7.57459 67.9336L30.3873 82.9106L15.8346 106.84L7.57459 67.9336ZM2.54334 74.9292L6.83959 68.0036L14.4885 104.032L2.54334 74.9292ZM9.63667 46.6638L6.6573 66.9069L3.06543 72.6936L9.63667 46.6638ZM1.77917 74.8052L2.13355 74.8956L1.79376 75.0342L15.3504 108.064L15.6888 107.924L15.4335 108.188L38.1427 130.344L38.3994 130.08L38.3338 130.442L73.2098 136.725L73.2754 136.363L73.3965 136.709L110.895 123.429L110.772 123.085L111.061 123.311L133.452 94.8252L133.163 94.5992L133.528 94.64L137.131 62.8833L136.768 62.8425L137.113 62.7156L124.717 28.6125L124.371 28.7379L124.632 28.4813L106.959 10.3615L106.696 10.6181L106.77 10.2594L71.3592 2.86272L71.2848 3.22293L71.225 2.8598L42.6227 7.52647L42.681 7.88668L42.4783 7.58189L24.5321 19.5417L24.7363 19.8479L24.4344 19.6379L10.7538 39.3371L11.0556 39.5471L10.6998 39.4581L1.77917 74.8052Z" fill="#FADD5C"/>
<path d="M60.8387 92.0806C60.8387 94.57 62.8571 96.5883 65.345 96.5883C67.8344 96.5883 69.8512 94.57 69.8512 92.0806C69.8512 89.5912 67.8344 87.5744 65.345 87.5744C62.8571 87.5744 60.8387 89.5912 60.8387 92.0806Z" fill="#FADD5C"/>
<path d="M38.3644 128.481C37.4733 128.481 36.7515 129.201 36.7515 130.094C36.7515 130.985 37.4733 131.706 38.3644 131.706C39.254 131.706 39.9773 130.985 39.9773 130.094C39.9773 129.201 39.254 128.481 38.3644 128.481Z" fill="#FADD5C"/>
<path d="M52.8485 120.229C52.8485 119.052 51.8948 118.097 50.7179 118.097C49.541 118.097 48.5873 119.052 48.5873 120.229C48.5873 121.408 49.541 122.361 50.7179 122.361C51.8948 122.361 52.8485 121.408 52.8485 120.229Z" fill="#FADD5C"/>
<path d="M71.2935 0C69.5115 0 68.0677 1.44521 68.0677 3.22583C68.0677 5.00792 69.5115 6.45313 71.2935 6.45313C73.0742 6.45313 74.5194 5.00792 74.5194 3.22583C74.5194 1.44521 73.0742 0 71.2935 0Z" fill="#FADD5C"/>
<path d="M24.7275 17.6546C23.5258 17.6546 22.5502 18.6302 22.5502 19.8333C22.5502 21.0364 23.5258 22.0106 24.7275 22.0106C25.9306 22.0106 26.9048 21.0364 26.9048 19.8333C26.9048 18.6302 25.9306 17.6546 24.7275 17.6546Z" fill="#FADD5C"/>
<path d="M42.7262 10.7202C44.2852 10.7202 45.5481 9.45584 45.5481 7.89834C45.5481 6.33792 44.2852 5.07355 42.7262 5.07355C41.1687 5.07355 39.9044 6.33792 39.9044 7.89834C39.9044 9.45584 41.1687 10.7202 42.7262 10.7202Z" fill="#FADD5C"/>
<path d="M27.0827 82.791C27.0827 84.9742 28.8502 86.7446 31.0319 86.7446C33.215 86.7446 34.984 84.9742 34.984 82.791C34.984 80.6094 33.215 78.839 31.0319 78.839C28.8502 78.839 27.0827 80.6094 27.0827 82.791Z" fill="#FADD5C"/>
<path d="M2.18175 72.7665C0.978622 72.7665 0.00445557 73.7421 0.00445557 74.9452C0.00445557 76.1484 0.978622 77.1225 2.18175 77.1225C3.38487 77.1225 4.35904 76.1484 4.35904 74.9452C4.35904 73.7421 3.38487 72.7665 2.18175 72.7665Z" fill="#FADD5C"/>
<path d="M4.27875 67.0235C4.27875 68.5387 5.50666 69.7667 7.02187 69.7667C8.53562 69.7667 9.76208 68.5387 9.76208 67.0235C9.76208 65.5098 8.53562 64.2819 7.02187 64.2819C5.50666 64.2819 4.27875 65.5098 4.27875 67.0235Z" fill="#FADD5C"/>
<path d="M11.0906 41.7739C12.2923 41.7739 13.2679 40.7998 13.2679 39.5967C13.2679 38.3935 12.2923 37.4179 11.0906 37.4179C9.88895 37.4179 8.91187 38.3935 8.91187 39.5967C8.91187 40.7998 9.88895 41.7739 11.0906 41.7739Z" fill="#FADD5C"/>
<path d="M29.0894 40.5942C26.9077 40.5942 25.1373 42.3646 25.1373 44.5463C25.1373 46.7294 26.9077 48.4998 29.0894 48.4998C31.2725 48.4998 33.0415 46.7294 33.0415 44.5463C33.0415 42.3646 31.2725 40.5942 29.0894 40.5942Z" fill="#FADD5C"/>
<path d="M18.2831 108.019C18.2831 106.639 17.1631 105.519 15.7821 105.519C14.401 105.519 13.2825 106.639 13.2825 108.019C13.2825 109.4 14.401 110.52 15.7821 110.52C17.1631 110.52 18.2831 109.4 18.2831 108.019Z" fill="#FADD5C"/>
<path d="M125.563 54.3404C124.295 54.3404 123.269 55.3685 123.269 56.6358C123.269 57.9017 124.295 58.9298 125.563 58.9298C126.831 58.9298 127.856 57.9017 127.856 56.6358C127.856 55.3685 126.831 54.3404 125.563 54.3404Z" fill="#FADD5C"/>
<path d="M122.287 96.2311C122.287 97.8352 123.586 99.1346 125.191 99.1346C126.795 99.1346 128.094 97.8352 128.094 96.2311C128.094 94.6269 126.795 93.326 125.191 93.326C123.586 93.326 122.287 94.6269 122.287 96.2311Z" fill="#FADD5C"/>
<path d="M124.292 26.0881C122.868 26.0881 121.711 27.2431 121.711 28.6694C121.711 30.0956 122.868 31.2521 124.292 31.2521C125.719 31.2521 126.874 30.0956 126.874 28.6694C126.874 27.2431 125.719 26.0881 124.292 26.0881Z" fill="#FADD5C"/>
<path d="M110.747 125.212C111.949 125.212 112.925 124.238 112.925 123.035C112.925 121.832 111.949 120.856 110.747 120.856C109.546 120.856 108.569 121.832 108.569 123.035C108.569 124.238 109.546 125.212 110.747 125.212Z" fill="#FADD5C"/>
<mask id="mask0_209_2" style="mask-type:luminance" maskUnits="userSpaceOnUse" x="133" y="59" width="7" height="8">
<path d="M133.28 59.3746H139.984V66.08H133.28V59.3746Z" fill="white"/>
</mask>
<g mask="url(#mask0_209_2)">
<path d="M139.983 62.844C139.983 61.0619 138.537 59.6181 136.757 59.6181C134.975 59.6181 133.531 61.0619 133.531 62.844C133.531 64.6261 134.975 66.0713 136.757 66.0713C138.537 66.0713 139.983 64.6261 139.983 62.844Z" fill="#FADD5C"/>
</g>
<path d="M130.969 94.6342C130.969 95.8373 131.943 96.813 133.146 96.813C134.349 96.813 135.323 95.8373 135.323 94.6342C135.323 93.4325 134.349 92.4569 133.146 92.4569C131.943 92.4569 130.969 93.4325 130.969 94.6342Z" fill="#FADD5C"/>
<path d="M106.598 8.35333C105.395 8.35333 104.421 9.3275 104.421 10.5306C104.421 11.7337 105.395 12.7094 106.598 12.7094C107.801 12.7094 108.776 11.7337 108.776 10.5306C108.776 9.3275 107.801 8.35333 106.598 8.35333Z" fill="#FADD5C"/>
<path d="M64.3358 57.4656C64.3358 54.8917 62.2504 52.8033 59.675 52.8033C57.101 52.8033 55.0142 54.8917 55.0142 57.4656C55.0142 60.0411 57.101 62.1279 59.675 62.1279C62.2504 62.1279 64.3358 60.0411 64.3358 57.4656Z" fill="#FADD5C"/>
<path d="M103.68 74.4319C103.68 72.1087 101.796 70.2231 99.4744 70.2231C97.1512 70.2231 95.2685 72.1087 95.2685 74.4319C95.2685 76.7535 97.1512 78.6377 99.4744 78.6377C101.796 78.6377 103.68 76.7535 103.68 74.4319Z" fill="#FADD5C"/>
<path d="M60.3954 21.1356C57.3694 21.1356 54.915 23.5885 54.915 26.616C54.915 29.6435 57.3694 32.0979 60.3954 32.0979C63.4244 32.0979 65.8758 29.6435 65.8758 26.616C65.8758 23.5885 63.4244 21.1356 60.3954 21.1356Z" fill="#FADD5C"/>
<path d="M88.9044 9.02124C87.7465 9.02124 86.8087 9.96041 86.8087 11.1183C86.8087 12.2762 87.7465 13.2154 88.9044 13.2154C90.0623 13.2154 91.0015 12.2762 91.0015 11.1183C91.0015 9.96041 90.0623 9.02124 88.9044 9.02124Z" fill="#FADD5C"/>
<path d="M91.506 115.022C91.506 116.923 93.0475 118.465 94.9477 118.465C96.8479 118.465 98.3879 116.923 98.3879 115.022C98.3879 113.121 96.8479 111.58 94.9477 111.58C93.0475 111.58 91.506 113.121 91.506 115.022Z" fill="#FADD5C"/>
<path d="M95.1125 33.8289C92.7777 33.8289 90.8833 35.7219 90.8833 38.0567C90.8833 40.3914 92.7777 42.2844 95.1125 42.2844C97.4458 42.2844 99.3387 40.3914 99.3387 38.0567C99.3387 35.7219 97.4458 33.8289 95.1125 33.8289Z" fill="#FADD5C"/>
<mask id="mask1_209_2" style="mask-type:luminance" maskUnits="userSpaceOnUse" x="70" y="133" width="7" height="7">
<path d="M70.56 133.653H76.16V139.16H70.56V133.653Z" fill="white"/>
</mask>
<g mask="url(#mask1_209_2)">
<path d="M70.5964 136.418C70.5964 137.932 71.8229 139.16 73.3366 139.16C74.8504 139.16 76.0783 137.932 76.0783 136.418C76.0783 134.905 74.8504 133.677 73.3366 133.677C71.8229 133.677 70.5964 134.905 70.5964 136.418Z" fill="#FADD5C"/>
</g>
</g>
<defs>
<clipPath id="clip0_209_2">
<rect width="140" height="140" fill="white"/>
</clipPath>
</defs>
</svg>
