<svg width="140" height="140" viewBox="0 0 140 140" fill="none" xmlns="http://www.w3.org/2000/svg">
<g clip-path="url(#clip0_5_2199)">
<path d="M10.2783 44.9983L6.08853 91.8852L2.51124 75.775L10.2783 44.9983ZM11.2437 42.4244L17.6677 64.9819L6.82936 91.8429L11.2437 42.4244ZM37.6862 28.9071L18.1373 63.9523L11.5135 40.6977L37.6862 28.9071ZM28.7598 23.2181L37.7927 27.8936L12.8742 39.1198L28.7598 23.2181ZM24.8529 21.1954L28.0758 22.8638L13.701 37.2531L24.8529 21.1954ZM39.8154 11.114L28.6198 22.3198L25.4567 20.6821L39.8154 11.114ZM38.3877 27.3773L29.3037 22.6727L41.9796 9.98376L38.3877 27.3773ZM43.0223 9.28814L64.8171 17.7902L39.3094 27.2708L43.0223 9.28814ZM70.7102 4.56168L65.7417 17.3629L44.065 8.90751L70.7102 4.56168ZM71.4758 4.61564L99.1856 19.4469L66.4737 17.5029L71.4758 4.61564ZM106.078 11.7381L100.715 19.4352L73.7056 4.9773L106.078 11.7381ZM106.743 12.0663L122.868 28.5965L101.392 19.7458L106.743 12.0663ZM115.886 46.779L101.752 20.6865L123.875 29.8054L115.886 46.779ZM135.994 62.6602L116.327 47.5621L124.327 30.5667L135.994 62.6602ZM112.427 89.4921L116.175 48.37L136.226 63.7627L112.427 89.4921ZM132.845 95.0236L112.662 90.319L136.278 64.7865L132.845 95.0236ZM111.179 122.849L112.315 90.9913L132.519 95.7002L111.179 122.849ZM110.428 123.331L76.5115 108.659L111.574 91.2188L110.428 123.331ZM65.6717 131.94L75.6919 109.264L109.392 123.842L65.6717 131.94ZM73.3104 136.837L66.0115 132.622L106.263 125.167L73.3104 136.837ZM44.3567 131.657L64.8594 132.805L71.2702 136.506L44.3567 131.657ZM34.2183 107.669L63.8677 132.016L38.7042 130.605L34.2183 107.669ZM7.75978 95.445L33.3564 107.083L37.7781 129.691L7.75978 95.445ZM15.9746 108.564L9.33916 98.3602L31.9302 124.132L15.9746 108.564ZM32.8781 105.898L6.74186 94.0158L18.0017 66.115L32.8781 105.898ZM53.2146 75.6438L18.7381 64.6815L38.5569 29.1521L53.2146 75.6438ZM74.2248 47.5679L54.1844 75.304L39.5864 29.0077L74.2248 47.5679ZM74.1315 46.3531L39.8781 27.9986L65.5958 18.4392L74.1315 46.3531ZM75.2179 46.3983L66.6108 18.2452L99.836 20.2198L75.2179 46.3983ZM76.1644 46.8883L100.771 20.7244L115.09 47.1538L76.1644 46.8883ZM86.1394 74.289L111.078 90.4823L76.1775 107.842L86.1394 74.289ZM75.756 47.9121L114.613 48.1775L86.116 72.8175L75.756 47.9121ZM85.1419 73.15L55.0769 75.8217L74.8635 48.4386L85.1419 73.15ZM54.9077 76.8673L85.2556 74.1708L75.3404 107.57L54.9077 76.8673ZM74.8052 109.096L64.769 131.806L34.8439 107.233L74.8052 109.096ZM33.7429 105.697L18.8169 65.784L53.1927 76.7142L33.7429 105.697ZM54.0006 77.3558L74.5281 108.203L34.5479 106.339L54.0006 77.3558ZM111.662 89.8115L86.6148 73.5496L115.412 48.65L111.662 89.8115ZM5.88582 94.3513L6.24311 94.2725L5.93686 94.4723L6.06374 94.6677L6.06228 94.6721L6.06811 94.6765L15.3825 108.999L15.6887 108.799L15.4335 109.063L38.1427 131.219L38.3994 130.955L38.3337 131.317L73.2098 137.6L73.2754 137.238L73.3965 137.584L110.895 124.304L110.772 123.96L111.061 124.186L133.452 95.7002L133.163 95.4742L133.528 95.515L137.131 63.7583L136.768 63.7175L137.113 63.5906L124.717 29.4875L124.371 29.6129L124.632 29.3563L106.959 11.2365L106.696 11.4931L106.77 11.1344L71.3592 3.73772L71.2848 4.09793L71.225 3.7348L42.6227 8.40147L42.681 8.76168L42.4783 8.45689L24.5321 20.4167L24.7362 20.7229L24.4344 20.5129L10.8937 40.0123L10.8733 40.0211L10.8792 40.0313L10.7537 40.2121L11.0556 40.4221L10.6998 40.3331L1.77916 75.6802L2.13353 75.7706L1.77478 75.8494L5.88582 94.3513Z" fill="#ADAAAD"/>
<path d="M38.5759 31.1879C40.3652 31.2827 41.8921 29.906 41.9854 28.1167C42.0802 26.3273 40.705 24.799 38.9156 24.7056C37.1248 24.6123 35.5994 25.986 35.5046 27.7769C35.4113 29.5677 36.7865 31.0946 38.5759 31.1879Z" fill="#ADAAAD"/>
<path d="M57.0296 76.5406C57.1185 74.8694 55.8352 73.4417 54.164 73.3556C52.4927 73.2681 51.0665 74.5515 50.9804 76.2227C50.8929 77.8954 52.1748 79.3202 53.846 79.4092C55.5188 79.4952 56.9435 78.2133 57.0296 76.5406Z" fill="#ADAAAD"/>
<path d="M29.7617 106.524C29.6479 108.704 31.3221 110.564 33.5023 110.679C35.6811 110.792 37.5404 109.118 37.6557 106.937C37.7694 104.758 36.0952 102.899 33.915 102.783C31.7363 102.67 29.8769 104.344 29.7617 106.524Z" fill="#ADAAAD"/>
<path d="M68.9165 18.0002C69.0025 16.3567 67.7411 14.9552 66.099 14.8692C64.4569 14.7831 63.054 16.046 62.9679 17.6881C62.8834 19.3317 64.1448 20.7331 65.7854 20.8192C67.429 20.9052 68.8304 19.6438 68.9165 18.0002Z" fill="#ADAAAD"/>
<path d="M21.6869 65.3363C21.789 63.3704 20.281 61.6933 18.3138 61.5913C16.3508 61.4877 14.6738 62.9986 14.5717 64.9629C14.4681 66.9273 15.9775 68.6044 17.9419 68.7079C19.9077 68.8115 21.5819 67.3006 21.6869 65.3363Z" fill="#ADAAAD"/>
<path d="M62.2227 132.255C62.1425 133.767 63.3048 135.058 64.8171 135.136C66.3279 135.217 67.6186 134.054 67.6988 132.542C67.7775 131.03 66.6152 129.738 65.1029 129.659C63.5921 129.58 62.3 130.743 62.2227 132.255Z" fill="#ADAAAD"/>
<path d="M108.789 90.3569C108.695 92.1171 110.049 93.6192 111.809 93.711C113.568 93.8029 115.07 92.451 115.162 90.6894C115.254 88.9306 113.902 87.4285 112.141 87.3352C110.383 87.2433 108.881 88.5967 108.789 90.3569Z" fill="#ADAAAD"/>
<path d="M75.2412 112.526C77.42 112.642 79.2794 110.967 79.3931 108.789C79.5069 106.607 77.8342 104.749 75.6554 104.634C73.4752 104.52 71.6173 106.194 71.5035 108.373C71.3883 110.553 73.0625 112.413 75.2412 112.526Z" fill="#ADAAAD"/>
<path d="M103.778 19.9675C103.862 18.3648 102.632 16.9998 101.03 16.9152C99.4306 16.8306 98.0641 18.0615 97.9796 19.6642C97.8964 21.2654 99.1258 22.6319 100.727 22.715C102.33 22.7981 103.695 21.5688 103.778 19.9675Z" fill="#ADAAAD"/>
<path d="M119.273 47.864C119.373 45.9652 117.915 44.345 116.018 44.2458C114.119 44.1467 112.499 45.605 112.4 47.5037C112.3 49.401 113.759 51.0212 115.656 51.1219C117.555 51.2196 119.174 49.7627 119.273 47.864Z" fill="#ADAAAD"/>
<path d="M74.8927 50.0383C76.4021 50.1156 77.6884 48.9577 77.7657 47.4498C77.8444 45.9419 76.6865 44.6542 75.1786 44.5754C73.6707 44.4967 72.3844 45.6546 72.3057 47.164C72.2284 48.6719 73.3863 49.9581 74.8927 50.0383Z" fill="#ADAAAD"/>
<path d="M88.814 73.7479C88.8985 72.1335 87.659 70.7539 86.0417 70.6694C84.4273 70.5848 83.0492 71.8258 82.9646 73.4417C82.88 75.0575 84.121 76.4356 85.7354 76.5202C87.3498 76.6048 88.7294 75.3637 88.814 73.7479Z" fill="#ADAAAD"/>
<path d="M11.3575 40.8858L28.3267 45.5919L7.53522 66.8486L11.3575 40.8858ZM41.6238 10.3396L28.7248 44.9429L11.7585 40.2354L41.6238 10.3396ZM24.9973 20.9883L39.8154 11.114L13.701 37.2531L24.9973 20.9883ZM42.875 9.50105L59.7742 27.3438L29.8579 44.4208L42.875 9.50105ZM87.6254 12.2238L60.4858 27.0273L43.594 9.19189L87.6254 12.2238ZM71.2352 4.47564L86.8627 11.4363L45.8675 8.61293L71.2352 4.47564ZM103.531 11.2073L88.9773 11.5748L74.5646 5.15668L103.531 11.2073ZM122.598 28.3194L90.3875 12.2733L106.546 11.8636L122.598 28.3194ZM95.3794 38.4271L89.5183 12.6583L123.305 29.4904L95.3794 38.4271ZM125.131 56.8006L96.11 39.1169L124.027 30.1846L125.131 56.8006ZM136.092 62.9271L125.888 57.3344L124.836 31.9623L136.092 62.9271ZM125.573 94.9113L125.891 58.1729L136.321 63.8896L125.573 94.9113ZM132.829 95.1694L125.746 96.654L136.03 66.9667L132.829 95.1694ZM113.098 120.407L125.393 97.5363L125.418 97.5202L125.409 97.5056L125.428 97.4692L132.253 96.0386L113.098 120.407ZM110.619 123.471L95.7542 115.927L124.145 98.3106L110.619 123.471ZM74.709 136.343L95.0017 116.366L109.843 123.9L74.709 136.343ZM73.2361 136.761L51.6644 121.338L93.9123 116.409L73.2361 136.761ZM39.2554 130.737L50.6917 121.545L71.7354 136.589L39.2554 130.737ZM17.1325 109.694L49.9348 121.212L38.4227 130.467L17.1325 109.694ZM30.9561 84.5425L49.8181 120.393L16.3085 108.627L30.9561 84.5425ZM30.4996 82.8071L7.63438 67.7965L28.6285 46.3313L30.4996 82.8071ZM58.6527 58.539L31.3717 82.6233L29.5006 46.1665L58.6527 58.539ZM59.1092 57.6173L30.0913 45.3017L59.8777 28.2975L59.1092 57.6173ZM64.6567 92.3956L31.9711 83.4633L59.2463 59.3833L64.6567 92.3956ZM61.4177 27.3554L88.5865 12.5344L94.4548 38.3279L61.4177 27.3554ZM93.8642 39.0586L60.1388 57.5065L60.9102 28.1123L93.8642 39.0586ZM98.8444 74.4858L60.779 58.3275L94.6385 39.8052L98.8444 74.4858ZM99.8681 74.4071L95.6827 39.8869L124.648 57.5371L99.8681 74.4071ZM100.306 75.3506L125.156 58.4325L124.829 96.1683L100.306 75.3506ZM99.8638 76.3219L124.377 97.1308L95.5486 115.02L99.8638 76.3219ZM66.1588 93.1452L98.8444 76.2038L94.5131 115.042L66.1588 93.1452ZM60.2598 59.2215L98.2552 75.3521L65.6717 92.2396L60.2598 59.2215ZM50.6771 120.135L31.8442 84.3427L64.6392 93.3013L50.6771 120.135ZM65.4267 93.6921L93.8904 115.672L51.4106 120.629L65.4267 93.6921ZM7.57459 68.8086L30.3873 83.7856L15.8346 107.715L7.57459 68.8086ZM2.54334 75.8042L6.83959 68.8786L14.4886 104.907L2.54334 75.8042ZM9.63667 47.5388L6.6573 67.7819L3.06543 73.5686L9.63667 47.5388ZM1.77917 75.6802L2.13355 75.7706L1.79376 75.9092L15.3504 108.939L15.6888 108.799L15.4335 109.063L38.1427 131.219L38.3994 130.955L38.3338 131.317L73.2098 137.6L73.2754 137.238L73.3965 137.584L110.895 124.304L110.772 123.96L111.061 124.186L133.452 95.7002L133.163 95.4742L133.528 95.515L137.131 63.7583L136.768 63.7175L137.113 63.5906L124.717 29.4875L124.371 29.6129L124.632 29.3563L106.959 11.2365L106.696 11.4931L106.77 11.1344L71.3592 3.73772L71.2848 4.09793L71.225 3.7348L42.6227 8.40147L42.681 8.76168L42.4783 8.45689L24.5321 20.4167L24.7363 20.7229L24.4344 20.5129L10.7538 40.2121L11.0556 40.4221L10.6998 40.3331L1.77917 75.6802Z" fill="#504351"/>
<path d="M60.8387 92.9556C60.8387 95.445 62.8571 97.4633 65.345 97.4633C67.8344 97.4633 69.8512 95.445 69.8512 92.9556C69.8512 90.4662 67.8344 88.4494 65.345 88.4494C62.8571 88.4494 60.8387 90.4662 60.8387 92.9556Z" fill="#504351"/>
<path d="M38.3644 129.356C37.4733 129.356 36.7515 130.076 36.7515 130.969C36.7515 131.86 37.4733 132.581 38.3644 132.581C39.254 132.581 39.9773 131.86 39.9773 130.969C39.9773 130.076 39.254 129.356 38.3644 129.356Z" fill="#504351"/>
<path d="M52.8485 121.104C52.8485 119.927 51.8948 118.972 50.7179 118.972C49.541 118.972 48.5873 119.927 48.5873 121.104C48.5873 122.283 49.541 123.236 50.7179 123.236C51.8948 123.236 52.8485 122.283 52.8485 121.104Z" fill="#504351"/>
<path d="M70.5964 137.295C70.5964 138.807 71.8229 140.035 73.3366 140.035C74.8504 140.035 76.0783 138.807 76.0783 137.295C76.0783 135.78 74.8504 134.552 73.3366 134.552C71.8229 134.552 70.5964 135.78 70.5964 137.295Z" fill="#504351"/>
<mask id="mask0_5_2199" style="mask-type:luminance" maskUnits="userSpaceOnUse" x="67" y="0" width="8" height="8">
<path d="M67.9467 0.875H74.6667V7.46667H67.9467V0.875Z" fill="white"/>
</mask>
<g mask="url(#mask0_5_2199)">
<path d="M71.2935 0.875C69.5114 0.875 68.0677 2.32021 68.0677 4.10083C68.0677 5.88292 69.5114 7.32812 71.2935 7.32812C73.0741 7.32812 74.5194 5.88292 74.5194 4.10083C74.5194 2.32021 73.0741 0.875 71.2935 0.875Z" fill="#504351"/>
</g>
<path d="M24.7275 18.5296C23.5259 18.5296 22.5502 19.5052 22.5502 20.7083C22.5502 21.9114 23.5259 22.8856 24.7275 22.8856C25.9306 22.8856 26.9048 21.9114 26.9048 20.7083C26.9048 19.5052 25.9306 18.5296 24.7275 18.5296Z" fill="#504351"/>
<path d="M42.7262 11.5952C44.2852 11.5952 45.5481 10.3308 45.5481 8.77334C45.5481 7.21292 44.2852 5.94855 42.7262 5.94855C41.1687 5.94855 39.9044 7.21292 39.9044 8.77334C39.9044 10.3308 41.1687 11.5952 42.7262 11.5952Z" fill="#504351"/>
<path d="M27.0827 83.666C27.0827 85.8492 28.8502 87.6196 31.0319 87.6196C33.215 87.6196 34.984 85.8492 34.984 83.666C34.984 81.4844 33.215 79.714 31.0319 79.714C28.8502 79.714 27.0827 81.4844 27.0827 83.666Z" fill="#504351"/>
<path d="M2.18169 73.6414C0.978561 73.6414 0.00439453 74.6171 0.00439453 75.8202C0.00439453 77.0233 0.978561 77.9975 2.18169 77.9975C3.38481 77.9975 4.35898 77.0233 4.35898 75.8202C4.35898 74.6171 3.38481 73.6414 2.18169 73.6414Z" fill="#504351"/>
<path d="M4.27875 67.8985C4.27875 69.4137 5.50666 70.6417 7.02187 70.6417C8.53562 70.6417 9.76208 69.4137 9.76208 67.8985C9.76208 66.3848 8.53562 65.1569 7.02187 65.1569C5.50666 65.1569 4.27875 66.3848 4.27875 67.8985Z" fill="#504351"/>
<path d="M11.0906 42.6489C12.2923 42.6489 13.2679 41.6748 13.2679 40.4717C13.2679 39.2685 12.2923 38.2929 11.0906 38.2929C9.88895 38.2929 8.91187 39.2685 8.91187 40.4717C8.91187 41.6748 9.88895 42.6489 11.0906 42.6489Z" fill="#504351"/>
<path d="M29.0894 41.4692C26.9077 41.4692 25.1373 43.2396 25.1373 45.4213C25.1373 47.6044 26.9077 49.3748 29.0894 49.3748C31.2725 49.3748 33.0414 47.6044 33.0414 45.4213C33.0414 43.2396 31.2725 41.4692 29.0894 41.4692Z" fill="#504351"/>
<path d="M18.2831 108.894C18.2831 107.514 17.1631 106.394 15.7821 106.394C14.401 106.394 13.2825 107.514 13.2825 108.894C13.2825 110.275 14.401 111.395 15.7821 111.395C17.1631 111.395 18.2831 110.275 18.2831 108.894Z" fill="#504351"/>
<path d="M125.563 55.2154C124.295 55.2154 123.269 56.2435 123.269 57.5108C123.269 58.7781 124.295 59.8048 125.563 59.8048C126.831 59.8048 127.856 58.7781 127.856 57.5108C127.856 56.2435 126.831 55.2154 125.563 55.2154Z" fill="#504351"/>
<path d="M122.287 97.1061C122.287 98.7102 123.586 100.01 125.191 100.01C126.795 100.01 128.094 98.7102 128.094 97.1061C128.094 95.5019 126.795 94.201 125.191 94.201C123.586 94.201 122.287 95.5019 122.287 97.1061Z" fill="#504351"/>
<path d="M124.292 26.9631C122.868 26.9631 121.711 28.1181 121.711 29.5444C121.711 30.9706 122.868 32.1271 124.292 32.1271C125.719 32.1271 126.874 30.9706 126.874 29.5444C126.874 28.1181 125.719 26.9631 124.292 26.9631Z" fill="#504351"/>
<path d="M110.747 126.087C111.949 126.087 112.925 125.113 112.925 123.91C112.925 122.707 111.949 121.731 110.747 121.731C109.546 121.731 108.569 122.707 108.569 123.91C108.569 125.113 109.546 126.087 110.747 126.087Z" fill="#504351"/>
<mask id="mask1_5_2199" style="mask-type:luminance" maskUnits="userSpaceOnUse" x="133" y="60" width="7" height="8">
<path d="M133.28 60.48H139.984V67.0527H133.28V60.48Z" fill="white"/>
</mask>
<g mask="url(#mask1_5_2199)">
<path d="M139.983 63.719C139.983 61.9369 138.537 60.4931 136.757 60.4931C134.975 60.4931 133.531 61.9369 133.531 63.719C133.531 65.5011 134.975 66.9463 136.757 66.9463C138.537 66.9463 139.983 65.5011 139.983 63.719Z" fill="#504351"/>
</g>
<path d="M130.969 95.5092C130.969 96.7123 131.943 97.688 133.146 97.688C134.349 97.688 135.323 96.7123 135.323 95.5092C135.323 94.3075 134.349 93.3319 133.146 93.3319C131.943 93.3319 130.969 94.3075 130.969 95.5092Z" fill="#504351"/>
<path d="M106.598 9.22833C105.395 9.22833 104.421 10.2025 104.421 11.4056C104.421 12.6087 105.395 13.5844 106.598 13.5844C107.801 13.5844 108.776 12.6087 108.776 11.4056C108.776 10.2025 107.801 9.22833 106.598 9.22833Z" fill="#504351"/>
<path d="M64.3358 58.3406C64.3358 55.7667 62.2504 53.6783 59.675 53.6783C57.101 53.6783 55.0142 55.7667 55.0142 58.3406C55.0142 60.9161 57.101 63.0029 59.675 63.0029C62.2504 63.0029 64.3358 60.9161 64.3358 58.3406Z" fill="#504351"/>
<path d="M103.68 75.3069C103.68 72.9837 101.796 71.0996 99.4744 71.0996C97.1513 71.0996 95.2686 72.9837 95.2686 75.3069C95.2686 77.6285 97.1513 79.5127 99.4744 79.5127C101.796 79.5127 103.68 77.6285 103.68 75.3069Z" fill="#504351"/>
<path d="M60.3954 22.0106C57.3694 22.0106 54.915 24.4635 54.915 27.491C54.915 30.5185 57.3694 32.9729 60.3954 32.9729C63.4244 32.9729 65.8758 30.5185 65.8758 27.491C65.8758 24.4635 63.4244 22.0106 60.3954 22.0106Z" fill="#504351"/>
<path d="M88.9043 9.89624C87.7464 9.89624 86.8087 10.8354 86.8087 11.9933C86.8087 13.1512 87.7464 14.0904 88.9043 14.0904C90.0623 14.0904 91.0014 13.1512 91.0014 11.9933C91.0014 10.8354 90.0623 9.89624 88.9043 9.89624Z" fill="#504351"/>
<path d="M91.506 115.897C91.506 117.798 93.0475 119.34 94.9477 119.34C96.8479 119.34 98.3879 117.798 98.3879 115.897C98.3879 113.996 96.8479 112.455 94.9477 112.455C93.0475 112.455 91.506 113.996 91.506 115.897Z" fill="#504351"/>
<path d="M95.1125 34.7039C92.7777 34.7039 90.8833 36.5969 90.8833 38.9317C90.8833 41.2664 92.7777 43.1594 95.1125 43.1594C97.4458 43.1594 99.3387 41.2664 99.3387 38.9317C99.3387 36.5969 97.4458 34.7039 95.1125 34.7039Z" fill="#504351"/>
</g>
<defs>
<clipPath id="clip0_5_2199">
<rect width="140" height="140" fill="white"/>
</clipPath>
</defs>
</svg>
