<svg xmlns="http://www.w3.org/2000/svg" width="40" zoomAndPan="magnify" viewBox="0 0 30 30" height="40" preserveAspectRatio="xMidYMid meet" xmlns:v="https://vecta.io/nano"><style><![CDATA[.B{fill:#504351}.C{clip-rule:nonzero}]]></style><defs><clipPath id="A"><path d="M.484.18H29V29H.484zm0 0" class="C"/></clipPath><clipPath id="B"><path d="M.484.18H29V29H.484zm0 0" class="C"/></clipPath><clipPath id="C"><path d="M15 28h2v1.031h-2zm0 0" class="C"/></clipPath><clipPath id="D"><path d="M14 .18h2V2h-2zm0 0" class="C"/></clipPath><clipPath id="E"><path d="M.484 15H2v2H.484zm0 0" class="C"/></clipPath><clipPath id="F"><path d="M28.117 12.57h1.395v1.418h-1.395zm0 0" class="C"/></clipPath></defs><g clip-path="url(#A)"><path fill="#adaaad" d="M2.617 9.387l-.871 9.781-.742-3.359zm.199-.539l1.332 4.707-2.25 5.605zm5.484-2.816L4.246 13.34 2.871 8.488zM6.449 4.844l1.871.973L3.152 8.16zm-.812-.422l.668.348-2.98 3zm3.105-2.105l-2.324 2.34-.656-.344zm-.297 3.395l-1.887-.98 2.629-2.648zm.961-3.773l4.52 1.773-5.289 1.977zm5.742-.988l-1.031 2.672-4.496-1.766zm.156.012l5.746 3.094-6.781-.402zm7.176 1.488l-1.109 1.605-5.602-3.016zm.141.066l3.344 3.449-4.453-1.848zm1.895 7.242l-2.93-5.441 4.586 1.902zm4.168 3.313l-4.078-3.148 1.66-3.547zm-4.887 5.598l.777-8.578 4.16 3.211zm4.234 1.156l-4.184-.984 4.898-5.324zm-4.492 5.805l.234-6.648 4.191.984zm-.156.102l-7.031-3.062 7.27-3.637zm-9.281 1.793l2.078-4.73 6.988 3.043zm1.586 1.023l-1.516-.879 8.348-1.555zm-6.004-1.082l4.25.242 1.328.77zm-2.105-5.004l6.148 5.078-5.215-.293zM2.094 19.91l5.309 2.43.914 4.715zm1.703 2.738L2.422 20.52l4.684 5.375zm3.504-.555l-5.418-2.48 2.336-5.82zm4.219-6.312l-7.148-2.289 4.109-7.41zm4.355-5.859l-4.156 5.789-3.027-9.66zm-.02-.254L8.754 5.84l5.332-1.992zm.227.012l-1.785-5.875 6.891.414zm.195.102l5.105-5.457 2.969 5.512zm2.07 5.715l5.172 3.379-7.238 3.621zm-2.152-5.5l8.055.055-5.906 5.141zm1.945 5.266l-6.234.555 4.102-5.711zm-6.27.773l6.293-.562-2.059 6.969zm4.125 6.723l-2.082 4.738-6.203-5.125zm-8.516-.707l-3.094-8.328 7.129 2.281zm4.203-5.914l4.254 6.438-8.289-.391zm12.02 2.75zm-.062-.152l-5.195-3.391 5.973-5.195zm-21.937.949l.074-.016-.062.039.027.043 1.93 2.988.066-.043-.055.059 4.711 4.621.051-.055-.012.074 7.23 1.313.016-.078.023.074 7.777-2.77-.027-.074.063.047 4.645-5.941-.062-.047.078.008.746-6.625-.074-.008.07-.027-2.57-7.113-.074.023.055-.051-3.664-3.781-.055.055.016-.078L15.281.777l-.016.078-.012-.078-5.93.973.012.078-.043-.066L5.57 4.258l.043.063-.062-.043-2.809 4.07h-.004v.004l-.023.035.063.047-.074-.02-1.852 7.375.074.016-.074.02.852 3.859"/></g><path d="M8.484 6.504c.371.02.688-.266.707-.641s-.266-.691-.637-.711-.688.27-.707.641.266.691.637.711m3.825 9.465a.63.63 0 0 0-.594-.668c-.344-.016-.641.25-.66.602a.63.63 0 0 0 .594.664.63.63 0 0 0 .66-.598m-5.653 6.254c-.023.453.324.844.773.867s.84-.328.863-.781-.324-.844-.777-.867a.82.82 0 0 0-.859.781m8.117-18.469c.02-.344-.242-.637-.582-.652a.62.62 0 0 0-.648.586.62.62 0 0 0 .582.656c.344.016.633-.246.648-.59M4.98 13.629a.74.74 0 0 0-.699-.781c-.406-.02-.754.293-.777.703a.74.74 0 0 0 .699.781c.406.019.758-.293.777-.703m8.407 13.961c-.016.316.227.586.539.602a.57.57 0 0 0 .598-.539c.016-.316-.227-.586-.539-.602a.57.57 0 0 0-.598.539m9.656-8.742c-.02.367.262.684.625.703a.67.67 0 0 0 .699-.633c.019-.367-.262-.68-.629-.699a.66.66 0 0 0-.695.629m-6.957 4.629c.453.023.84-.328.863-.781s-.324-.844-.777-.867a.82.82 0 0 0-.859.781c-.023.453.324.84.773.867m5.918-19.313c.02-.332-.238-.617-.57-.637s-.613.238-.633.574a.61.61 0 0 0 .57.637c.332.016.617-.238.633-.574m3.215 5.82c.02-.395-.281-.734-.676-.754a.71.71 0 0 0-.75.68c-.02.395.281.734.676.754s.73-.285.75-.68m-9.203.454a.57.57 0 1 0 .059-1.141c-.312-.016-.578.227-.598.543a.57.57 0 0 0 .539.598m2.886 4.945c.016-.336-.242-.621-.574-.641s-.621.242-.641.578.242.625.574.645.621-.242.641-.582" fill="#adaaad"/><g clip-path="url(#B)" class="B"><path d="M2.84 8.527l3.52.984-4.312 4.434zm6.277-6.371L6.441 9.375l-3.52-.98zM5.668 4.379l3.074-2.062L3.324 7.77zM9.375 1.98l3.504 3.723-6.203 3.563zm9.281.57l-5.629 3.086-3.504-3.719zM15.258.934l3.238 1.453-8.5-.59zm6.695 1.402l-3.02.078-2.988-1.34zm3.953 3.57l-6.68-3.348 3.352-.086zm-5.645 2.109l-1.215-5.375 7.008 3.512zm6.172 3.832l-6.02-3.687 5.789-1.863zm2.273 1.281l-2.117-1.168-.219-5.293zm-2.184 6.672l.066-7.664 2.164 1.191zm1.504.055l-1.469.309 2.133-6.195zm-4.09 5.262l2.551-4.77.004-.004v-.004l.004-.008 1.414-.297zm-.516.641l-3.082-1.574 5.887-3.676zm-7.445 2.684l4.207-4.164 3.078 1.57zm-.305.09l-4.473-3.219 8.758-1.027zm-7.047-1.258l2.371-1.918 4.363 3.141zm-4.59-4.391l6.805 2.402-2.387 1.934zm2.867-5.246l3.914 7.48-6.949-2.457zm-.094-.363l-4.742-3.129 4.355-4.48zm5.84-5.062l-5.66 5.023-.387-7.605zm.094-.191l-6.02-2.57 6.18-3.547zm1.148 7.254L7.113 17.41l5.656-5.023zm-.672-13.566l5.637-3.094 1.215 5.383zm6.73 2.441l-6.996 3.848.16-6.133zm1.031 7.391l-7.895-3.371 7.023-3.863zm.215-.016l-.871-7.203 6.008 3.684zm.09.195l5.152-3.527-.066 7.871zm-.094.203l5.086 4.34-5.98 3.734zm-6.988 3.508l6.777-3.531L20.082 24zm-1.223-7.074l7.879 3.363-6.758 3.523zm-1.988 12.707l-3.906-7.469 6.801 1.871zm3.059-5.516l5.902 4.586-8.809 1.031zM2.055 14.355l4.73 3.125-3.016 4.992zm-1.043 1.457l.891-1.445 1.586 7.52zM2.48 9.918l-.617 4.223-.742 1.207zM.852 15.789l.074.016-.07.031 2.813 6.891.07-.031-.055.059 4.711 4.621.051-.055-.012.074 7.23 1.313.016-.078.023.074 7.777-2.77-.027-.074.063.047 4.645-5.941-.062-.047.078.008.746-6.625-.074-.008.07-.027-2.57-7.113-.074.023.055-.051-3.664-3.781-.055.055.016-.078L15.281.777l-.016.078-.012-.078-5.93.973.012.078-.043-.066L5.57 4.258l.043.063-.062-.043-2.836 4.109.063.047-.074-.02-1.852 7.375"/></g><path d="M13.102 19.391c0 .52.418.941.934.941a.94.94 0 0 0 .934-.941c0-.519-.418-.937-.934-.937s-.934.418-.934.938m-4.661 7.592c-.187 0-.336.152-.336.336a.34.34 0 0 0 .336.34c.188 0 .332-.152.332-.34s-.148-.336-.332-.336m3.004-1.718c0-.246-.199-.445-.445-.445a.44.44 0 0 0-.441.445c0 .246.199.445.441.445s.445-.199.445-.445" class="B"/><g clip-path="url(#C)" class="B"><path d="M15.125 28.641a.57.57 0 0 0 .566.574.57.57 0 1 0 0-1.145c-.312 0-.566.254-.566.57"/></g><g clip-path="url(#D)" class="B"><path d="M15.27.18c-.371 0-.672.305-.672.676a.67.67 0 0 0 .672.672.67.67 0 0 0 .668-.672c0-.371-.301-.676-.668-.676"/></g><path d="M5.613 3.863c-.25 0-.453.203-.453.457a.45.45 0 1 0 .902 0c0-.25-.203-.457-.449-.457m3.731-1.445a.59.59 0 0 0 0-1.18.59.59 0 0 0 0 1.18M6.102 17.453c0 .457.363.824.816.824a.82.82 0 0 0 .82-.824c0-.453-.367-.824-.82-.824a.82.82 0 0 0-.816.824" class="B"/><g clip-path="url(#E)" class="B"><path d="M.938 15.363c-.25 0-.453.203-.453.453s.203.453.453.453a.45.45 0 1 0 0-.906"/></g><path d="M1.371 14.164a.57.57 0 0 0 .57.574.57.57 0 0 0 .566-.574c0-.316-.254-.57-.566-.57a.57.57 0 0 0-.57.57m1.414-5.266c.246 0 .449-.207.449-.457s-.203-.453-.449-.453-.453.203-.453.453.203.457.453.457m3.731-.246a.82.82 0 0 0-.82.824c0 .453.367.824.82.824s.82-.371.82-.824a.82.82 0 0 0-.82-.824M4.273 22.719a.52.52 0 0 0-.516-.523.521.521 0 1 0 0 1.043.52.52 0 0 0 .516-.52m22.25-11.199c-.266 0-.477.215-.477.477a.48.48 0 0 0 .477.48c.266 0 .473-.215.473-.48s-.211-.477-.473-.477m-.679 8.738c0 .336.27.605.602.605s.602-.27.602-.605-.27-.605-.602-.605-.602.27-.602.605m.414-14.633c-.293 0-.535.238-.535.539a.54.54 0 0 0 .535.539c.297 0 .535-.242.535-.539s-.238-.539-.535-.539m-2.809 20.68c.25 0 .453-.203.453-.457a.45.45 0 1 0-.902 0 .45.45 0 0 0 .449.457" class="B"/><g clip-path="url(#F)" class="B"><path d="M29.512 13.293a.67.67 0 0 0-.668-.672.67.67 0 1 0 0 1.344.67.67 0 0 0 .668-.672"/></g><g class="B"><path d="M27.645 19.926a.45.45 0 0 0 .449.453c.25 0 .453-.203.453-.453s-.203-.457-.453-.457-.449.207-.449.457m-5.055-18c-.25 0-.453.203-.453.453s.203.453.453.453.453-.203.453-.453-.203-.453-.453-.453m-8.766 10.246c0-.539-.43-.973-.965-.973a.97.97 0 0 0-.969.973c0 .535.434.973.969.973a.97.97 0 0 0 .965-.973"/><path d="M21.984 15.711c0-.484-.391-.879-.871-.879a.88.88 0 0 0-.875.879c0 .484.391.875.875.875a.87.87 0 0 0 .871-.875M13.008 4.59a1.14 1.14 0 0 0-1.137 1.145 1.14 1.14 0 0 0 1.137 1.145 1.14 1.14 0 0 0 1.137-1.145 1.14 1.14 0 0 0-1.137-1.145m5.914-2.527c-.242 0-.437.195-.437.438s.195.438.438.438.434-.195.434-.437-.195-.437-.434-.437m.538 22.115c0 .395.32.715.711.715a.72.72 0 0 0 .715-.715.72.72 0 0 0-.715-.719c-.395 0-.711.32-.711.719"/><path d="M20.207 7.238c-.484 0-.875.395-.875.883s.391.883.875.883a.88.88 0 0 0 0-1.766"/></g></svg>