<svg xmlns="http://www.w3.org/2000/svg" width="100" zoomAndPan="magnify" viewBox="0 0 75 75" height="100" preserveAspectRatio="xMidYMid meet" xmlns:v="https://vecta.io/nano"><defs><clipPath id="A"><path d="M37.801 71.309h3v2.98h-3zm0 0" clip-rule="nonzero"/></clipPath><clipPath id="B"><path d="M36 .047h4V4h-4zm0 0" clip-rule="nonzero"/></clipPath></defs><path fill="#12656d" d="M5.512 23.586L3.27 48.602l-1.918-8.598zm.52-1.371L9.473 34.25 3.664 48.578zm14.164-7.211L9.723 33.699 6.176 21.293zm-4.781-3.039l4.836 2.496-13.348 5.988zm-2.094-1.078l1.727.891-7.699 7.676zm8.012-5.379l-5.996 5.98-1.691-.875zm-.762 8.676l-4.867-2.508 6.789-6.77zm2.48-9.648L34.727 9.07l-13.664 5.059zm14.832-2.523l-2.66 6.832-11.613-4.512zm.41.031l14.844 7.91-17.523-1.035zm18.535 3.801l-2.871 4.105-14.469-7.715zm.355.172l8.641 8.82-11.504-4.723zm4.898 18.52l-7.57-13.918 11.852 4.863zm10.773 8.473L62.32 24.953l4.285-9.066zM60.23 47.324l2.008-21.941 10.742 8.215zm10.938 2.949l-10.812-2.508 12.652-13.621zM59.563 65.121l.609-16.996 10.82 2.512zm-.402.258l-18.168-7.828 18.781-9.305zm-23.977 4.594l5.371-12.102 18.051 7.777zm4.094 2.609l-3.91-2.246 21.563-3.977zM23.766 69.82l10.984.613 3.434 1.973zm-5.43-12.797l15.883 12.988-13.48-.754zM4.164 50.5l13.711 6.207 2.367 12.063zm4.398 7l-3.555-5.445 12.102 13.75zm9.055-1.422l-14-6.34 6.031-14.887zm10.895-16.141l-18.469-5.852L20.66 15.133zm11.254-14.98L29.031 39.754l-7.82-24.699zm-.051-.648l-18.348-9.793 13.777-5.098zm.582.023l-4.609-15.02 17.797 1.055zm.508.262l13.184-13.957 7.668 14.102zm5.344 14.621l13.359 8.637-18.695 9.262zm-5.562-14.074l20.816.141L46.137 38.43zm5.027 13.465l-16.105 1.426 10.602-14.609zM29.418 40.59l16.258-1.441-5.312 17.82zm10.66 17.195l-5.379 12.113-16.027-13.109zm-21.996-1.816l-7.996-21.293L28.5 40.508zm10.852-15.121L39.93 57.305l-21.418-.992zm31.051 7.031zm-.164-.383L46.402 38.82l15.426-13.285zM3.16 49.918l.191-.043-.164.105.066.105v.004h.004l4.988 7.641.164-.105-.137.141 12.164 11.82.137-.141-.031.191 18.68 3.355.035-.195.066.184 20.086-7.082-.066-.184.156.117 11.992-15.195-.152-.121.195.023 1.93-16.945-.195-.02.184-.07-6.641-18.191-.184.066.141-.137-9.469-9.668-.141.137.039-.191L38.23 1.574l-.039.191-.031-.191-15.32 2.488.031.191-.109-.164-9.613 6.383.109.16-.164-.109-7.25 10.402-.012.004.004.008-.07.094.164.113-.191-.047L.961 39.957l.188.047-.191.043 2.203 9.871"/><path d="M20.672 16.219c.957.051 1.777-.684 1.824-1.641a1.73 1.73 0 0 0-1.645-1.816c-.957-.051-1.777.684-1.824 1.637a1.73 1.73 0 0 0 1.645 1.82m9.883 24.195a1.621 1.621 0 1 0-3.238-.168 1.621 1.621 0 1 0 3.238.168M15.949 56.41c-.062 1.164.836 2.156 2.004 2.219s2.164-.836 2.223-1.996a2.12 2.12 0 0 0-2-2.219 2.12 2.12 0 0 0-2.227 1.996M36.922 9.184a1.59 1.59 0 0 0-1.508-1.672c-.879-.047-1.633.629-1.676 1.504a1.59 1.59 0 0 0 1.508 1.672c.879.043 1.629-.629 1.676-1.504M11.625 34.438c.055-1.051-.754-1.945-1.809-2s-1.949.75-2.004 1.801a1.9 1.9 0 0 0 1.805 1.996 1.91 1.91 0 0 0 2.008-1.797m21.711 35.699c-.043.809.582 1.496 1.391 1.539s1.5-.578 1.543-1.383-.578-1.496-1.387-1.539a1.47 1.47 0 0 0-1.547 1.383m24.945-22.352c-.051.938.676 1.742 1.617 1.789a1.71 1.71 0 0 0 1.797-1.609c.051-.941-.676-1.742-1.617-1.789a1.71 1.71 0 0 0-1.797 1.609M40.313 59.613c1.164.063 2.16-.832 2.223-1.996a2.11 2.11 0 1 0-4.227-.219 2.11 2.11 0 0 0 2.004 2.215M55.598 10.23a1.555 1.555 0 1 0-3.105-.16c-.047.855.613 1.582 1.473 1.629a1.55 1.55 0 0 0 1.633-1.469m8.299 14.883c.051-1.012-.73-1.875-1.746-1.93a1.84 1.84 0 0 0-1.937 1.738 1.844 1.844 0 1 0 3.684.191m-23.774 1.161a1.46 1.46 0 0 0 1.539-1.379c.043-.805-.578-1.492-1.387-1.535s-1.496.578-1.539 1.383.578 1.492 1.387 1.531m7.457 12.653a1.57 1.57 0 0 0-1.484-1.645c-.867-.043-1.605.617-1.648 1.48a1.56 1.56 0 0 0 1.484 1.641 1.57 1.57 0 0 0 1.648-1.477" fill="#348b95"/><path fill="#64d5dd" d="M6.09 21.391l9.09 2.512-11.137 11.34zM22.305 5.094l-6.91 18.461-9.09-2.508zm-8.906 5.684l7.934-5.27L7.348 19.453zm9.574-6.129l9.055 9.52L16 23.277zm23.973 1.453L32.406 14l-9.047-9.516zm-8.781-4.133l8.371 3.711-21.957-1.504zm17.301 3.59l-7.797.195-7.719-3.422zm10.215 9.129L48.426 6.129l8.652-.219zm-14.582 5.391L47.957 6.332l18.102 8.98zm15.938 9.805l-15.547-9.434 14.957-4.766zm5.871 3.27l-5.465-2.984-.566-13.535zm-5.633 17.063l.168-19.598 5.59 3.047zm3.887.137l-3.797.793 5.512-15.84zM60.59 63.816l6.586-12.199.016-.012-.008-.008.012-.016 3.656-.766zm-1.328 1.637l-7.961-4.023 15.207-9.402zM40.023 72.32l10.871-10.656 7.953 4.016zm-.785.223L27.68 64.316l22.633-2.633zm-18.203-3.215l6.125-4.902 11.273 8.023zM9.184 58.102l17.57 6.145-6.164 4.938zm7.406-13.418l10.102 19.125-17.949-6.273zm-.246-.926L4.098 35.75l11.246-11.453zm15.082-12.945L16.813 43.66l-1.004-19.449zm.242-.492l-15.543-6.574 15.957-9.07zm2.973 18.555l-17.508-4.766 14.609-12.848zm-1.734-34.703l14.555-7.906 3.145 13.762zm17.379 6.246l-18.062 9.844.41-15.684zm2.668 18.902l-20.391-8.625 18.141-9.879zm.551-.043l-2.242-18.418 15.516 9.418zm.234.504l13.309-9.027-.172 20.133zm-.238.516l13.129 11.102-15.441 9.547zm-18.055 8.977l17.508-9.039-2.32 20.719zm-3.16-18.098l20.352 8.605-17.453 9.008zm-5.133 32.496L17.066 44.578l17.566 4.777zm7.902-14.105l15.246 11.727-22.754 2.645zM4.063 36.289l12.223 7.988-7.797 12.77zm-2.691 3.734l2.301-3.695L7.77 55.547zm3.797-15.082L3.574 35.742l-1.926 3.086zM.961 39.957l.188.047-.18.074L8.23 57.699l.18-.074-.137.141 12.164 11.82.137-.141-.031.191 18.68 3.355.035-.195.066.184 20.086-7.082-.066-.184.156.117 11.992-15.195-.152-.121.195.023 1.93-16.945-.195-.02.184-.07-6.641-18.191-.184.066.141-.137-9.469-9.668-.141.137.039-.191L38.23 1.574l-.039.191-.031-.191-15.32 2.488.031.191-.109-.164-9.613 6.383.109.16-.164-.109-7.328 10.508.164.113-.191-.047L.961 39.957"/><path d="M32.598 49.172a2.412 2.412 0 1 0 4.824 0c0-1.328-1.078-2.402-2.41-2.402s-2.414 1.074-2.414 2.402M20.559 68.59c-.477 0-.867.387-.867.863s.391.859.867.859.863-.387.863-.859-.387-.863-.863-.863m7.757-4.399a1.14 1.14 0 0 0-1.141-1.141c-.633 0-1.145.512-1.145 1.141a1.14 1.14 0 1 0 2.286 0" fill="#77e0e3"/><g clip-path="url(#A)"><path fill="#77e0e3" d="M37.824 72.828c0 .805.656 1.461 1.465 1.461s1.469-.656 1.469-1.461-.656-1.465-1.469-1.465-1.465.656-1.465 1.465"/></g><g clip-path="url(#B)"><path fill="#77e0e3" d="M38.195.047c-.953 0-1.727.77-1.727 1.723s.773 1.719 1.727 1.719 1.73-.77 1.73-1.719-.773-1.723-1.73-1.723"/></g><g fill="#77e0e3"><path d="M13.254 9.465c-.645 0-1.168.52-1.168 1.164s.523 1.16 1.168 1.16a1.162 1.162 0 1 0 0-2.324m9.641-3.699a1.51 1.51 0 0 0 1.512-1.508c0-.832-.676-1.504-1.512-1.504s-1.512.672-1.512 1.504a1.51 1.51 0 0 0 1.512 1.508m-8.383 38.449c0 1.164.949 2.109 2.117 2.109s2.117-.945 2.117-2.109a2.11 2.11 0 1 0-4.234 0M1.176 38.867c-.645 0-1.168.52-1.168 1.164s.523 1.16 1.168 1.16 1.168-.52 1.168-1.16a1.17 1.17 0 0 0-1.168-1.164"/><path d="M2.301 35.805c0 .809.656 1.465 1.469 1.465a1.47 1.47 0 0 0 1.469-1.465A1.47 1.47 0 0 0 3.77 34.34c-.812 0-1.469.656-1.469 1.465m3.648-13.473a1.16 1.16 0 0 0 1.164-1.16c0-.641-.52-1.164-1.164-1.164a1.17 1.17 0 0 0-1.168 1.164c0 .641.523 1.16 1.168 1.16m9.641-.629c-1.172 0-2.117.945-2.117 2.109s.945 2.109 2.117 2.109 2.117-.945 2.117-2.109-.949-2.109-2.117-2.109M9.801 57.676a1.34 1.34 0 0 0-2.68 0c0 .738.602 1.332 1.34 1.332s1.34-.594 1.34-1.332m57.465-28.637c-.676 0-1.227.547-1.227 1.223s.551 1.223 1.227 1.223a1.23 1.23 0 0 0 1.23-1.223c0-.676-.551-1.223-1.23-1.223m-1.754 22.348a1.554 1.554 0 1 0 3.109 0c0-.855-.695-1.551-1.555-1.551s-1.555.695-1.555 1.551m1.075-37.422c-.762 0-1.383.617-1.383 1.379a1.383 1.383 0 1 0 2.766 0c0-.762-.621-1.379-1.383-1.379m-7.258 52.883c.645 0 1.168-.52 1.168-1.16a1.17 1.17 0 0 0-1.168-1.164 1.16 1.16 0 1 0 0 2.324m15.664-33.274a1.73 1.73 0 0 0-1.73-1.723c-.953 0-1.727.773-1.727 1.723s.773 1.723 1.727 1.723a1.73 1.73 0 0 0 1.73-1.723M70.16 50.535c0 .641.523 1.16 1.168 1.16s1.168-.52 1.168-1.16a1.17 1.17 0 0 0-1.168-1.164 1.17 1.17 0 0 0-1.168 1.164M57.109 4.504c-.645 0-1.168.52-1.168 1.16a1.17 1.17 0 0 0 1.168 1.164c.645 0 1.164-.523 1.164-1.164a1.16 1.16 0 0 0-1.164-1.16m-22.64 26.203a2.49 2.49 0 1 0-4.992 0 2.496 2.496 0 1 0 4.992 0m21.074 9.051a2.25 2.25 0 0 0-4.504 0c0 1.238 1.008 2.242 2.254 2.242s2.25-1.004 2.25-2.242"/><path d="M32.359 11.32c-1.621 0-2.937 1.313-2.937 2.926s1.316 2.926 2.938 2.926a2.93 2.93 0 0 0 2.934-2.926 2.93 2.93 0 0 0-2.934-2.926m15.269-6.461a1.12 1.12 0 0 0-1.121 1.117 1.12 1.12 0 0 0 1.121 1.121c.621 0 1.125-.5 1.125-1.121a1.12 1.12 0 0 0-1.125-1.117m1.394 56.551a1.844 1.844 0 1 0 3.688 0c0-1.012-.828-1.836-1.844-1.836a1.84 1.84 0 0 0-1.844 1.836m1.93-43.316a2.26 2.26 0 0 0-2.262 2.254 2.264 2.264 0 1 0 4.527 0 2.26 2.26 0 0 0-2.266-2.254"/></g></svg>