<svg xmlns="http://www.w3.org/2000/svg" width="100" zoomAndPan="magnify" viewBox="0 0 75 75" height="100" preserveAspectRatio="xMidYMid meet" xmlns:v="https://vecta.io/nano"><defs><clipPath id="A"><path d="M37 71h4v3.719h-4zm0 0" clip-rule="nonzero"/></clipPath><clipPath id="B"><path d="M36 .469h4V4h-4zm0 0" clip-rule="nonzero"/></clipPath><clipPath id="C"><path d="M71.387 32.148h3.605v3.629h-3.605zm0 0" clip-rule="nonzero"/></clipPath></defs><g fill="#adaaad"><path d="M5.508 24.012L3.262 49.027l-1.918-8.594zm.516-1.375l3.441 12.035L3.66 49.004zm14.164-7.211L9.715 34.125l-3.547-12.41zm-4.781-3.035l4.84 2.496-13.348 5.988zm-2.094-1.078l1.727.887-7.699 7.68zm8.016-5.379l-5.996 5.977-1.695-.871zm-.762 8.676l-4.867-2.512 6.789-6.77zm2.48-9.652l11.676 4.535-13.664 5.059zm14.832-2.52l-2.66 6.828-11.613-4.512zm.41.027l14.848 7.914L35.609 9.34zm18.539 3.801l-2.875 4.105-14.469-7.715zm.355.176l8.637 8.82-11.504-4.723zm4.898 18.52l-7.57-13.922 11.852 4.867zm10.773 8.473l-10.539-8.055 4.289-9.066zM60.23 47.75l2.008-21.941 10.738 8.215zm10.938 2.953l-10.812-2.512L73.008 34.57zM59.559 65.551l.609-17 10.824 2.512zm-.402.254l-18.168-7.828 18.785-9.305zM35.18 70.398l5.371-12.098 18.051 7.777zm4.094 2.613l-3.91-2.246 21.563-3.98zM23.762 70.25l10.984.609 3.434 1.977zm-5.43-12.801l15.883 12.992-13.48-.754zM4.156 50.926l13.715 6.211 2.367 12.063zm4.402 7L5.004 52.48l12.102 13.754zm9.055-1.422l-14-6.34 6.031-14.887zm10.895-16.141l-18.469-5.852 10.617-18.957zm11.254-14.98L29.027 40.18l-7.82-24.699zm-.047-.648l-18.352-9.793L35.141 9.84zm.582.023l-4.613-15.02 17.801 1.051zm.504.262l13.184-13.961 7.672 14.102zm5.344 14.621l13.363 8.641-18.699 9.262zm-5.562-14.074l20.816.141-15.266 13.148zm5.031 13.465l-16.109 1.426 10.602-14.609zm-16.199 1.984l16.258-1.437-5.312 17.816zm10.66 17.195l-5.375 12.117-16.031-13.109zm-21.996-1.812l-7.996-21.297 18.414 5.832zM28.93 41.277l10.996 16.457-21.418-.996zm31.051 7.027zm-.16-.383l-13.418-8.676 15.426-13.285zM3.152 50.344l.191-.043-.164.109.07.102-.004.004h.004l4.992 7.645.164-.109-.137.141 12.164 11.824.137-.141-.035.191 18.684 3.352.035-.191.066.184 20.086-7.086-.062-.184.152.121 11.996-15.199-.156-.121.195.023 1.934-16.945-.195-.02.184-.07-6.641-18.195-.184.066.137-.137-9.465-9.668-.141.137.039-.191-18.973-3.945-.039.191-.031-.191-15.324 2.488.031.191-.105-.16-9.617 6.379.109.164-.16-.113-7.254 10.406-.012.004.004.004-.066.098.16.113-.191-.047L.953 40.383l.191.047-.195.043 2.203 9.871"/><path d="M20.664 16.645a1.74 1.74 0 0 0 1.828-1.641c.051-.953-.687-1.77-1.645-1.82a1.74 1.74 0 0 0-1.828 1.641c-.051.957.688 1.77 1.645 1.82m9.887 24.195a1.621 1.621 0 1 0-3.238-.168c-.047.891.637 1.652 1.535 1.699a1.62 1.62 0 0 0 1.703-1.531m-14.606 16c-.062 1.16.836 2.152 2.004 2.215a2.11 2.11 0 0 0 2.223-1.996 2.116 2.116 0 1 0-4.227-.219M36.918 9.605a1.594 1.594 0 1 0-3.184-.168 1.594 1.594 0 1 0 3.184.168M11.617 34.863c.055-1.051-.754-1.945-1.805-2a1.91 1.91 0 0 0-2.008 1.801c-.055 1.051.754 1.941 1.809 1.996s1.949-.75 2.004-1.797m21.715 35.703c-.043.809.582 1.496 1.391 1.539s1.5-.578 1.543-1.383-.578-1.496-1.391-1.539-1.5.578-1.543 1.383m24.949-22.355c-.051.941.672 1.742 1.617 1.793a1.71 1.71 0 0 0 1.797-1.613 1.71 1.71 0 0 0-1.621-1.789c-.941-.051-1.746.672-1.793 1.609M40.309 60.043c1.168.059 2.164-.832 2.223-1.996a2.11 2.11 0 0 0-2-2.215c-1.168-.062-2.164.832-2.227 1.992s.836 2.156 2.004 2.219m15.285-49.387a1.55 1.55 0 0 0-1.469-1.629c-.859-.047-1.59.609-1.637 1.465a1.55 1.55 0 0 0 1.473 1.629c.859.047 1.59-.609 1.633-1.465m8.301 14.883a1.842 1.842 0 1 0-3.68-.191 1.84 1.84 0 0 0 1.742 1.93c1.02.055 1.887-.723 1.938-1.738m-23.774 1.159a1.46 1.46 0 0 0 1.539-1.379c.043-.805-.578-1.492-1.387-1.535s-1.496.578-1.539 1.383a1.46 1.46 0 0 0 1.387 1.531m7.457 12.653c.047-.863-.617-1.598-1.484-1.645a1.57 1.57 0 0 0-1.648 1.48 1.56 1.56 0 0 0 1.484 1.641c.863.047 1.605-.617 1.648-1.477"/></g><g fill="#504351"><path d="M6.086 21.816l9.09 2.512-11.141 11.34zM22.297 5.52l-6.91 18.461-9.086-2.512zm-8.906 5.68l7.938-5.266L7.34 19.879zm9.578-6.129l9.055 9.52-16.027 9.113zm23.973 1.453l-14.539 7.898-9.047-9.516zM38.16 2.391l8.375 3.715L24.57 4.598zm17.305 3.59l-7.797.199-7.723-3.426zm10.211 9.133L48.422 6.551l8.656-.219zm-14.578 5.391L47.957 6.758l18.098 8.98zm15.938 9.805l-15.547-9.437 14.953-4.766zm5.871 3.27l-5.465-2.984-.566-13.539zM67.27 50.645l.172-19.605 5.586 3.051zm3.891.137l-3.797.793 5.512-15.844zM60.59 64.246l6.586-12.203.012-.008-.004-.008.012-.02 3.656-.762zm-1.328 1.637l-7.965-4.027 15.211-9.398zM40.023 72.75l10.871-10.66 7.949 4.02zm-.789.223l-11.559-8.23 22.633-2.629zm-18.203-3.215l6.125-4.906 11.273 8.027zM9.18 58.531l17.57 6.145-6.168 4.938zm7.402-13.422l10.105 19.129-17.949-6.277zm-.242-.926L4.09 36.176l11.246-11.453zm15.082-12.949L16.805 44.086l-1-19.453zm.242-.488l-15.543-6.574 15.957-9.07zm2.973 18.555l-17.508-4.766 14.609-12.848zm-1.734-34.703l14.555-7.906 3.145 13.762zm17.383 6.242l-18.066 9.844.41-15.684zm2.668 18.906l-20.395-8.625 18.141-9.883zm.547-.043l-2.242-18.418 15.52 9.414zm.234.504l13.313-9.027-.176 20.133zm-.234.516l13.129 11.105-15.441 9.543zm-18.059 8.977l17.512-9.039-2.32 20.723zm-3.16-18.098l20.355 8.605-17.457 9.012zm-5.133 32.5l-10.09-19.098 17.57 4.781zm7.902-14.109l15.246 11.727-22.754 2.645zM4.059 36.715l12.219 7.992-7.793 12.766zm-2.695 3.734l2.301-3.695 4.098 19.223zm3.801-15.082L3.566 36.168l-1.926 3.086zM.953 40.383l.191.047-.184.074 7.262 17.625.184-.078-.137.141 12.164 11.824.137-.141-.035.191 18.684 3.352.035-.191.066.184 20.086-7.086-.062-.184.152.121 11.996-15.199-.156-.121.195.023 1.934-16.945-.195-.02.184-.07-6.641-18.195-.184.066.137-.137-9.465-9.668-.141.137.039-.191-18.973-3.945-.039.191-.031-.191-15.324 2.488.031.191-.105-.16-9.617 6.379.109.164-.16-.113-7.328 10.512.16.113-.191-.047L.953 40.383"/><path d="M32.594 49.598a2.41 2.41 0 0 0 2.414 2.406c1.332 0 2.414-1.078 2.414-2.406a2.41 2.41 0 0 0-2.414-2.402c-1.336 0-2.414 1.074-2.414 2.402M20.551 69.02c-.477 0-.863.387-.863.863a.86.86 0 0 0 .863.859c.476 0 .867-.387.867-.859a.87.87 0 0 0-.867-.863m7.762-4.403a1.14 1.14 0 0 0-1.141-1.137c-.633 0-1.145.512-1.145 1.137s.512 1.141 1.145 1.141a1.14 1.14 0 0 0 1.141-1.141"/></g><g clip-path="url(#A)"><path fill="#504351" d="M37.82 73.258c0 .805.656 1.461 1.469 1.461a1.47 1.47 0 0 0 1.469-1.461 1.47 1.47 0 0 0-1.469-1.465c-.812 0-1.469.656-1.469 1.465"/></g><g clip-path="url(#B)"><path fill="#504351" d="M38.191.469c-.953 0-1.727.77-1.727 1.723s.773 1.719 1.727 1.719 1.73-.77 1.73-1.719-.773-1.723-1.73-1.723"/></g><g fill="#504351"><path d="M13.246 9.887c-.645 0-1.164.523-1.164 1.164a1.16 1.16 0 0 0 1.164 1.16c.645 0 1.168-.52 1.168-1.16a1.17 1.17 0 0 0-1.168-1.164m9.645-3.699a1.51 1.51 0 0 0 1.512-1.504c0-.832-.68-1.508-1.512-1.508a1.51 1.51 0 0 0-1.512 1.508c0 .832.676 1.504 1.512 1.504m-8.383 38.457a2.11 2.11 0 1 0 4.234 0c0-1.164-.949-2.109-2.117-2.109s-2.117.941-2.117 2.109m-13.34-5.352a1.16 1.16 0 0 0-1.164 1.164 1.16 1.16 0 0 0 1.164 1.16c.645 0 1.168-.52 1.168-1.16a1.17 1.17 0 0 0-1.168-1.164"/><path d="M2.293 36.23c0 .809.656 1.465 1.469 1.465s1.469-.656 1.469-1.465-.656-1.465-1.469-1.465-1.469.656-1.469 1.465m3.648-13.472c.645 0 1.168-.52 1.168-1.16a1.17 1.17 0 0 0-1.168-1.164c-.645 0-1.168.52-1.168 1.164s.523 1.16 1.168 1.16m9.641-.629c-1.168 0-2.117.945-2.117 2.109s.949 2.109 2.117 2.109 2.117-.945 2.117-2.109-.945-2.109-2.117-2.109M9.793 58.102c0-.734-.598-1.332-1.34-1.332s-1.336.598-1.336 1.332a1.34 1.34 0 0 0 1.336 1.336 1.34 1.34 0 0 0 1.34-1.336m57.473-28.641a1.23 1.23 0 0 0-1.23 1.227c0 .676.551 1.223 1.23 1.223s1.23-.547 1.23-1.223a1.23 1.23 0 0 0-1.23-1.227m-1.754 22.352c0 .855.695 1.551 1.555 1.551s1.555-.695 1.555-1.551a1.554 1.554 0 1 0-3.109 0m1.073-37.426a1.38 1.38 0 0 0-1.383 1.379 1.38 1.38 0 0 0 1.383 1.379c.762 0 1.383-.617 1.383-1.379s-.621-1.379-1.383-1.379m-7.258 52.89c.645 0 1.168-.52 1.168-1.164s-.523-1.16-1.168-1.16-1.168.52-1.168 1.16a1.17 1.17 0 0 0 1.168 1.164"/></g><g clip-path="url(#C)"><path fill="#504351" d="M74.992 34c0-.953-.777-1.723-1.73-1.723s-1.727.77-1.727 1.723.773 1.723 1.727 1.723A1.73 1.73 0 0 0 74.992 34"/></g><g fill="#504351"><path d="M70.16 50.961c0 .645.523 1.164 1.168 1.164s1.168-.52 1.168-1.164-.523-1.16-1.168-1.16-1.168.52-1.168 1.16M57.105 4.926a1.162 1.162 0 1 0 0 2.324c.645 0 1.168-.52 1.168-1.164s-.523-1.16-1.168-1.16m-22.64 26.203c0-1.371-1.117-2.488-2.496-2.488s-2.496 1.117-2.496 2.488 1.117 2.488 2.496 2.488a2.49 2.49 0 0 0 2.496-2.488"/><path d="M55.543 40.184a2.254 2.254 0 1 0-4.508 0 2.25 2.25 0 0 0 2.254 2.242c1.246 0 2.254-1.004 2.254-2.242M32.355 11.746c-1.621 0-2.937 1.309-2.937 2.922s1.316 2.926 2.938 2.926a2.93 2.93 0 0 0 2.934-2.926c0-1.613-1.312-2.922-2.934-2.922m15.273-6.465c-.621 0-1.125.5-1.125 1.121a1.123 1.123 0 1 0 2.246 0 1.12 1.12 0 0 0-1.121-1.121M49.02 61.84a1.844 1.844 0 1 0 3.688 0 1.843 1.843 0 1 0-3.687 0"/><path d="M50.953 18.52a2.26 2.26 0 0 0-2.266 2.254c0 1.246 1.016 2.258 2.266 2.258s2.266-1.012 2.266-2.258a2.26 2.26 0 0 0-2.266-2.254"/></g></svg>