<svg xmlns="http://www.w3.org/2000/svg" width="40" zoomAndPan="magnify" viewBox="0 0 30 30" height="40" preserveAspectRatio="xMidYMid meet" xmlns:v="https://vecta.io/nano"><style><![CDATA[.B{fill:#fadd5c}.C{clip-rule:nonzero}]]></style><defs><clipPath id="A"><path d="M.484 0H29v29H.484zm0 0" class="C"/></clipPath><clipPath id="B"><path d="M.484 0H29v29H.484zm0 0" class="C"/></clipPath><clipPath id="C"><path d="M15 27h2v2.031h-2zm0 0" class="C"/></clipPath><clipPath id="D"><path d="M.484 15H2v2H.484zm0 0" class="C"/></clipPath><clipPath id="E"><path d="M28.117 12.387h1.395v1.418h-1.395zm0 0" class="C"/></clipPath></defs><g clip-path="url(#A)"><path fill="#20c2d4" d="M2.617 9.207l-.871 9.781-.742-3.363zm.199-.539l1.332 4.707-2.25 5.602zm5.484-2.82L4.246 13.16 2.871 8.309zM6.449 4.66l1.871.977L3.152 7.98zm-.812-.422l.668.348-2.98 3.004zm3.105-2.102L6.418 4.473l-.656-.34zm-.297 3.391l-1.887-.98 2.629-2.648zm.961-3.773l4.52 1.773-5.289 1.98zM15.148.77l-1.031 2.672-4.496-1.766zm.156.012l5.746 3.094-6.781-.406zm7.176 1.484l-1.109 1.605L15.77.855zm.141.07l3.344 3.449-4.453-1.848zm1.895 7.242l-2.93-5.445 4.586 1.902zm4.168 3.313l-4.078-3.152 1.66-3.543zm-4.887 5.598l.777-8.578 4.16 3.211zm4.234 1.152l-4.184-.98 4.898-5.328zm-4.492 5.805l.234-6.645 4.191.98zm-.156.102l-7.031-3.059 7.27-3.641zm-9.281 1.797l2.078-4.73 6.988 3.039zm1.586 1.02l-1.516-.879 8.348-1.555zm-6.004-1.078l4.25.238 1.328.773zm-2.105-5.004l6.148 5.078-5.215-.293zM2.094 19.73l5.309 2.426.914 4.719zm1.703 2.734l-1.375-2.129 4.684 5.379zm3.504-.555l-5.418-2.48 2.336-5.82zm4.219-6.312l-7.148-2.285L8.48 5.898zm4.355-5.855l-4.156 5.785-3.027-9.656zm-.02-.254L8.754 5.66l5.332-1.996zm.227.008l-1.785-5.871 6.891.41zm.195.102l5.105-5.457 2.969 5.516zm2.07 5.719l5.172 3.379-7.238 3.621zm-2.152-5.504l8.055.055-5.906 5.141zm1.945 5.266l-6.234.559 4.102-5.715zm-6.27.777l6.293-.562-2.059 6.965zm4.125 6.723l-2.082 4.738-6.203-5.129zm-8.516-.711l-3.094-8.324 7.129 2.277zm4.203-5.91l4.254 6.434-8.289-.387zm12.02 2.746zm-.062-.148l-5.195-3.395 5.973-5.191zM1.703 19.5l.074-.016-.062.043.027.039v.004l1.93 2.988.066-.043-.055.055 4.711 4.621.051-.055-.012.078 7.23 1.309.016-.074.023.07 7.777-2.77-.027-.07.063.047 4.645-5.945-.062-.047.078.012.746-6.629-.074-.008.07-.023-2.57-7.117-.074.027.055-.055-3.664-3.781-.055.055.016-.074L15.281.598l-.016.074-.012-.074-5.93.973.012.074-.043-.062L5.57 4.078l.043.063-.062-.043-2.809 4.066-.004.004-.023.039.063.043-.074-.02-1.852 7.375.074.02-.074.016.852 3.859"/></g><path d="M8.484 6.324c.371.02.688-.266.707-.641s-.266-.691-.637-.711-.688.266-.707.641.266.691.637.711m3.825 9.461a.63.63 0 0 0-.594-.664.63.63 0 0 0-.066 1.262.63.63 0 0 0 .66-.598m-5.653 6.258a.82.82 0 0 0 .773.863.82.82 0 0 0 .863-.777c.023-.457-.324-.844-.777-.867a.82.82 0 0 0-.859.781m8.117-18.469a.62.62 0 0 0-.582-.656.62.62 0 0 0-.648.59c-.02.344.242.637.582.652a.62.62 0 0 0 .648-.586M4.98 13.449c.023-.41-.289-.762-.699-.781a.74.74 0 0 0-.777.703c-.023.41.293.758.699.781a.74.74 0 0 0 .777-.703m8.407 13.961c-.016.313.227.582.539.602a.57.57 0 0 0 .598-.543c.016-.316-.227-.586-.539-.602a.57.57 0 0 0-.598.543m9.656-8.742c-.02.367.262.68.625.699s.68-.262.699-.629-.262-.68-.629-.699a.66.66 0 0 0-.695.629m-6.957 4.625a.824.824 0 1 0 .086-1.645c-.453-.027-.836.324-.859.777s.324.844.773.867m5.918-19.308a.6.6 0 0 0-.57-.637c-.332-.02-.613.238-.633.57s.238.621.57.637a.6.6 0 0 0 .633-.57m3.215 5.821a.72.72 0 0 0-.676-.758c-.395-.02-.73.285-.75.68a.72.72 0 0 0 .676.758c.395.02.73-.285.75-.68m-9.203.453a.57.57 0 0 0 .594-.543.57.57 0 0 0-.535-.598c-.312-.016-.578.227-.598.539s.227.582.539.602m2.886 4.945a.61.61 0 1 0-.64.578.61.61 0 0 0 .641-.578" fill="#20c2d4"/><g clip-path="url(#B)" class="B"><path d="M2.84 8.348l3.52.98-4.312 4.434zm6.277-6.375L6.441 9.195l-3.52-.984zM5.668 4.195l3.074-2.059L3.324 7.59zm3.707-2.395l3.504 3.723-6.203 3.563zm9.281.566l-5.629 3.09-3.504-3.723zM15.258.75l3.238 1.453-8.5-.59zm6.695 1.406l-3.02.074L15.945.895zm3.953 3.57l-6.68-3.348 3.352-.086zm-5.645 2.109l-1.215-5.379 7.008 3.512zm6.172 3.832l-6.02-3.691 5.789-1.863zm2.273 1.277l-2.117-1.168-.219-5.293zm-2.184 6.672l.066-7.664 2.164 1.191zm1.504.055l-1.469.309 2.133-6.191zm-4.09 5.266l2.551-4.773h.004v-.004l.004-.008 1.414-.297zm-.516.641l-3.082-1.574 5.887-3.676zm-7.445 2.684l4.207-4.168 3.078 1.574zm-.305.086l-4.473-3.215 8.758-1.031zm-7.047-1.254l2.371-1.918 4.363 3.137zm-4.59-4.391l6.805 2.402-2.387 1.93zm2.867-5.246l3.914 7.477-6.949-2.453zm-.094-.363l-4.742-3.133 4.355-4.477zm5.84-5.062l-5.66 5.023-.387-7.605zm.094-.191l-6.02-2.57 6.18-3.547zm1.148 7.254L7.113 17.23l5.656-5.023zm-.672-13.57l5.637-3.09 1.215 5.379zm6.73 2.441l-6.996 3.852.16-6.133zm1.031 7.391l-7.895-3.371 7.023-3.863zm.215-.016l-.871-7.199 6.008 3.68zm.09.199l5.152-3.531-.066 7.871zm-.094.199l5.086 4.344-5.98 3.73zm-6.988 3.512l6.777-3.535-.898 8.102zm-1.223-7.078l7.879 3.367-6.758 3.523zm-1.988 12.707l-3.906-7.465 6.801 1.867zm3.059-5.516l5.902 4.586-8.809 1.035zM2.055 14.172l4.73 3.125-3.016 4.992zm-1.043 1.461l.891-1.445 1.586 7.516zM2.48 9.734l-.617 4.223-.742 1.207zM.852 15.605l.074.02-.07.027 2.813 6.891.07-.027-.055.055 4.711 4.621.051-.055-.012.078 7.23 1.309.016-.074.023.07 7.777-2.77-.027-.07.063.047 4.645-5.945-.062-.047.078.012.746-6.629-.074-.008.07-.023-2.57-7.117-.074.027.055-.055-3.664-3.781-.055.055.016-.074L15.281.598l-.016.074-.012-.074-5.93.973.012.074-.043-.062L5.57 4.078l.043.063-.062-.043-2.836 4.109.063.043-.074-.02-1.852 7.375"/></g><path d="M13.102 19.211c0 .52.418.941.934.941a.94.94 0 1 0 0-1.882.94.94 0 0 0-.934.941m-4.661 7.594c-.187 0-.336.148-.336.336s.148.336.336.336a.33.33 0 0 0 .332-.336c0-.188-.148-.336-.332-.336m3.004-1.723c0-.246-.199-.445-.445-.445a.44.44 0 0 0-.441.445c0 .246.199.445.441.445s.445-.199.445-.445" class="B"/><g clip-path="url(#C)" class="B"><path d="M15.125 28.461c0 .316.254.57.566.57a.57.57 0 1 0 0-1.145.57.57 0 0 0-.566.574"/></g><g class="B"><path d="M15.27 0a.67.67 0 0 0-.672.672c0 .371.301.676.672.676s.668-.305.668-.676A.67.67 0 0 0 15.27 0M5.613 3.684c-.25 0-.453.203-.453.453s.203.457.453.457.449-.207.449-.457-.203-.453-.449-.453"/><path d="M9.344 2.238a.59.59 0 0 0 0-1.18.59.59 0 0 0 0 1.18M6.102 17.273a.82.82 0 0 0 .816.824c.453 0 .82-.371.82-.824a.82.82 0 0 0-.82-.824c-.453 0-.816.367-.816.824"/></g><g clip-path="url(#D)" class="B"><path d="M.938 15.18c-.25 0-.453.203-.453.457s.203.453.453.453a.45.45 0 0 0 .449-.453.45.45 0 0 0-.449-.457"/></g><path d="M1.371 13.984a.57.57 0 0 0 .57.57c.313 0 .566-.254.566-.57a.57.57 0 0 0-.566-.574.57.57 0 0 0-.57.574m1.414-5.269c.246 0 .449-.203.449-.453s-.203-.457-.449-.457a.46.46 0 0 0-.453.457c0 .25.203.453.453.453m3.731-.246c-.453 0-.82.371-.82.824a.821.821 0 1 0 1.641 0c0-.453-.367-.824-.82-.824M4.273 22.535c0-.289-.23-.52-.516-.52a.52.52 0 1 0 0 1.043.52.52 0 0 0 .516-.523m22.25-11.199c-.266 0-.477.215-.477.48s.211.477.477.477.473-.215.473-.477a.48.48 0 0 0-.473-.48m-.679 8.738c0 .336.27.609.602.609s.602-.273.602-.609-.27-.605-.602-.605-.602.273-.602.605m.414-14.633a.54.54 0 0 0-.535.539.54.54 0 0 0 .535.539c.297 0 .535-.242.535-.539s-.238-.539-.535-.539m-2.809 20.68c.25 0 .453-.203.453-.453s-.203-.453-.453-.453a.453.453 0 1 0 0 .906" class="B"/><g clip-path="url(#E)" class="B"><path d="M29.512 13.109a.67.67 0 0 0-.668-.672.67.67 0 1 0 0 1.348.67.67 0 0 0 .668-.676"/></g><g class="B"><path d="M27.645 19.742a.45.45 0 0 0 .449.457c.25 0 .453-.203.453-.457a.45.45 0 1 0-.902 0m-5.055-18c-.25 0-.453.203-.453.453s.203.457.453.457.453-.203.453-.457a.45.45 0 0 0-.453-.453m-8.766 10.246a.97.97 0 0 0-.965-.973c-.535 0-.969.438-.969.973a.97.97 0 0 0 .969.973c.535 0 .965-.434.965-.973"/><path d="M21.984 15.527c0-.484-.391-.875-.871-.875s-.875.391-.875.875.391.879.875.879.871-.395.871-.879M13.008 4.41a1.14 1.14 0 0 0-1.137 1.141 1.14 1.14 0 0 0 1.137 1.145 1.14 1.14 0 0 0 1.137-1.145 1.14 1.14 0 0 0-1.137-1.141m5.914-2.527c-.242 0-.437.195-.437.438s.195.438.438.438.434-.195.434-.437-.195-.437-.434-.437m.538 22.111c0 .398.32.719.711.719a.72.72 0 0 0 .715-.719.72.72 0 0 0-.715-.719.72.72 0 0 0-.711.719"/><path d="M20.207 7.059c-.484 0-.875.395-.875.883s.391.879.875.879a.88.88 0 0 0 0-1.762"/></g></svg>